{
.appVersion = "3199";
.formatVersion = 3;
axes = (
{
name = "Optical size";
tag = opsz;
},
{
name = Weight;
tag = wght;
}
);
customParameters = (
{
name = unicodeRanges;
value = (
0,
1,
2,
3,
5,
31,
32,
33,
35,
36,
38,
45,
60,
62
);
},
{
name = fsType;
value = (
);
},
{
name = "Enforce Compatibility Check";
value = 1;
},
{
name = "Use Typo Metrics";
value = 1;
},
{
name = "Axis Mappings";
value = {
opsz = {
9 = 0;
14 = 75;
24 = 100;
40 = 200;
};
wght = {
100 = 20;
200 = 45;
300 = 70;
400 = 84;
500 = 100;
600 = 120;
700 = 135;
800 = 140;
900 = 150;
1000 = 171;
};
};
},
{
name = "Variable Font Origin";
value = "A6F5E7A4-47EF-4F55-BF18-0ACACB57A720";
}
);
date = "2023-05-04 08:42:24 +0000";
familyName = "DM Sans";
featurePrefixes = (
{
automatic = 1;
code = "languagesystem DFLT dflt;

languagesystem latn dflt;
languagesystem latn AZE;
languagesystem latn CRT;
languagesystem latn KAZ;
languagesystem latn TAT;
languagesystem latn TRK;
languagesystem latn ROM;
languagesystem latn MOL;
languagesystem latn CAT;
";
name = Languagesystems;
}
);
features = (
{
automatic = 1;
code = "feature locl;
feature sups;
feature numr;
feature dnom;
feature frac;
feature ordn;
feature calt;
feature ss01;
feature ss02;
feature ss03;
feature ss04;
feature ss05;
feature ss06;
feature ss07;
feature ss08;
feature case;
";
tag = aalt;
},
{
code = "lookup ccmp_Other_1 {
	@CombiningTopAccents = [acutecomb brevecomb caroncomb circumflexcomb commaturnedabovecomb dieresiscomb dotaccentcomb gravecomb hungarumlautcomb macroncomb ringcomb tildecomb];
	@CombiningNonTopAccents = [cedillacomb ogonekcomb];
	sub [i j]' @CombiningTopAccents by [idotless jdotless];
	sub [i j]' @CombiningNonTopAccents @CombiningTopAccents by [idotless jdotless];
	sub iogonek' @CombiningTopAccents by idotless ogonekcomb;
} ccmp_Other_1;

lookup ccmp_latn_1 {
	sub fi by f i;
	sub fl by f l;
} ccmp_latn_1;

script latn;
lookup ccmp_latn_1;
";
tag = ccmp;
},
{
automatic = 1;
code = "script latn;
language AZE;

glyphs = (
{
glyphname = A;
kernLeft = A;
kernRight = A;
lastChange = "2023-05-19 14:07:26 +0000";
layers = (
{
anchors = (
{
name = ogonek;
pos = (566,0);
},
{
name = top;
pos = (302,700);
}
);
layerId = "EB62C368-BB48-47C0-A466-DA94204A0DE4";
shapes = (
{
closed = 1;
nodes = (
(57,0,l),
(303,678,l),
(303,678,l),
(544,0,l),
(566,0,l),
(315,700,l),
(291,700,l),
(36,0,l)
);
},
{
closed = 1;
nodes = (
(469,256,l),
(460,274,l),
(144,274,l),
(135,256,l)
);
}
);
width = 601;
},
{
anchors = (
{
name = ogonek;
pos = (635,0);
},
{
name = top;
pos = (334,700);
}
);
layerId = "A6F5E7A4-47EF-4F55-BF18-0ACACB57A720";
shapes = (
{
closed = 1;
nodes = (
(119,0,l),
(333,595,l),
(333,595,l),
(545,0,l),
(635,0,l),
(378,700,l),
(289,700,l),
(31,0,l)
);
},
{
closed = 1;
nodes = (
(514,180,l),
(490,248,l),
(173,248,l),
(149,180,l)
);
}
);
width = 665;
},
{
anchors = (
{
name = ogonek;
pos = (726,0);
},
{
name = top;
pos = (373,700);
}
);
layerId = "1615C59E-33DE-4B88-B2CC-A48C7D56A125";
shapes = (
{
closed = 1;
nodes = (
(199,0,l),
(372,511,l),
(372,511,l),
(545,0,l),
(726,0,l),
(472,700,l),
(274,700,l),
(20,0,l)
);
},
{
closed = 1;
nodes = (
(600,144,l),
(557,276,l),
(173,276,l),
(129,144,l)
);
}
);
width = 746;
},
{
anchors = (
{
name = ogonek;
pos = (623,0);
},
{
name = top;
pos = (330,700);
}
);
layerId = "2D111E5E-352D-4630-9162-BCEF010D26CF";
shapes = (
{
closed = 1;
nodes = (
(108,0,l),
(329,612,l),
(329,612,l),
(549,0,l),
(623,0,l),
(367,700,l),
(292,700,l),
(35,0,l)
);
},
{
closed = 1;
nodes = (
(507,197,l),
(486,254,l),
(169,254,l),
(149,197,l)
);
}
);
width = 658;
},
{
anchors = (
{
name = ogonek;
pos = (535,0);
},
{
name = top;
pos = (271,700);
}
);
layerId = "5D382461-81E1-4DF2-8677-8A6F02AD5363";
shapes = (
{
closed = 1;
nodes = (
(26,0,l),
(270,670,l),
(274,670,l),
(514,0,l),
(535,0,l),
(284,700,l),
(260,700,l),
(5,0,l)
);
},
{
closed = 1;
nodes = (
(438,256,l),
(429,274,l),
(113,274,l),
(104,256,l)
);
}
);
width = 540;
},
{
anchors = (
{
name = ogonek;
pos = (593,0);
},
{
name = top;
pos = (299,700);
}
);
layerId = "3B8883BF-F483-4B97-AC7C-CABF8B821093";
shapes = (
{
closed = 1;
nodes = (
(79,0,l),
(299,654,l),
(303,654,l),
(519,0,l),
(593,0,l),
(356,700,l),
(247,700,l),
(5,0,l)
);
},
{
closed = 1;
nodes = (
(473,224,l),
(452,282,l),
(146,282,l),
(125,224,l)
);
}
);
width = 598;
},
{
anchors = (
{
name = ogonek;
pos = (609,0);
},
{
name = top;
pos = (307,700);
}
);
layerId = "F5F01D5B-AEA3-4AC3-B3D8-92550D1582D7";
shapes = (
{
closed = 1;
nodes = (
(93,0,l),
(307,638,l),
(311,638,l),
(520,0,l),
(609,0,l),
(374,700,l),
(244,700,l),
(5,0,l)
);
},
{
closed = 1;
nodes = (
(488,219,l),
(464,287,l),
(147,287,l),
(123,219,l)
);
}
);
width = 614;
},
{
anchors = (
{
name = ogonek;
pos = (711,0);
},
{
name = top;
pos = (358,700);
}
);
layerId = "A390C1A2-E540-434D-BB9E-4BCEE875BA63";
shapes = (
{
closed = 1;
nodes = (
(184,0,l),
(356,609,l),
(360,609,l),
(530,0,l),
(711,0,l),
(501,700,l),
(215,700,l),
(5,0,l)
);
},
{
closed = 1;
nodes = (
(585,188,l),
(542,320,l),
(158,320,l),
(114,188,l)
);
}
);
width = 716;
},
{
anchors = (
{
name = ogonek;
pos = (620,0);
},
{
name = top;
pos = (327,700);
}
);
layerId = "12552169-0282-4A31-82CC-880002E60A2C";
shapes = (
{
closed = 1;
nodes = (
(106,0,l),
(326,607,l),
(326,607,l),
(546,0,l),
(620,0,l),
(362,700,l),
(291,700,l),
(32,0,l)
);
},
{
closed = 1;
nodes = (
(500,186,l),
(479,244,l),
(173,244,l),
(152,186,l)
);
}
);
width = 652;
},
{
anchors = (
{
name = ogonek;
pos = (634,0);
},
{
name = top;
pos = (333,700);
}
);
layerId = "44982FF8-7820-4F75-948C-97259056F879";
shapes = (
{
closed = 1;
nodes = (
(118,0,l),
(332,595,l),
(332,595,l),
(545,0,l),
(634,0,l),
(377,700,l),
(288,700,l),
(30,0,l)
);
},
{
closed = 1;
nodes = (
(513,180,l),
(489,248,l),
(172,248,l),
(148,180,l)
);
}
);
width = 664;
},
{
anchors = (
{
name = ogonek;
pos = (722,0);
},
{
name = top;
pos = (369,700);
}
);
layerId = "84B0614D-4B2F-419D-B7F2-5B7DD4CAD23C";
shapes = (
{
closed = 1;
nodes = (
(195,0,l),
(368,511,l),
(368,511,l),
(541,0,l),
(722,0,l),
(468,700,l),
(270,700,l),
(16,0,l)
);
},
{
closed = 1;
nodes = (
(596,144,l),
(553,276,l),
(169,276,l),
(125,144,l)
);
}
);
width = 738;
},
{
anchors = (
{
name = ogonek;
pos = (562,0);
},
{
name = top;
pos = (298,700);
}
);
layerId = "90D50F69-F6F7-4633-9462-ED0440D3064F";
shapes = (
{
closed = 1;
nodes = (
(53,0,l),
(299,676,l),
(299,676,l),
(541,0,l),
(562,0,l),
(311,700,l),
(287,700,l),
(32,0,l)
);
},
{
closed = 1;
nodes = (
(465,256,l),
(456,274,l),
(140,274,l),
(131,256,l)
);
}
);
width = 594;
}
);
unicode = 65;
userData = {
com.schriftgestaltung.Glyphs.ColorIndex = 4;
com.typesupply.AccentFactory.yCoordinates = {
bottom = {
name = origin;
type = glyphMetric;
};
top = {
name = capHeight;
type = fontInfo;
};
};
};
},
{
glyphname = AE;
kernLeft = AE;
kernRight = E;
lastChange = "2023-05-19 14:07:26 +0000";
layers = (
{
anchors = (
{
name = bottom;
pos = (546,0);
},
{
name = top;
pos = (546,700);
}
);
layerId = "EB62C368-BB48-47C0-A466-DA94204A0DE4";
shapes = (
{
closed = 1;
nodes = (
(57,0,l),
(469,670,l),
(469,670,l),
(469,0,l),
(804,0,l),
(804,18,l),
(489,18,l),
(489,340,l),
(774,340,l),
(774,358,l),
(489,358,l),
(489,682,l),
(804,682,l),
(804,700,l),
(465,700,l),
(36,0,l)
);
},
{
closed = 1;
nodes = (
(476,189,l),
(476,207,l),
(171,207,l),
(163,189,l)
);
}
);
width = 861;
},
{
anchors = (
{
name = bottom;
pos = (546,0);
},
{
name = top;
pos = (546,700);
}
);
layerId = "A6F5E7A4-47EF-4F55-BF18-0ACACB57A720";
shapes = (
{
closed = 1;
nodes = (
(123,0,l),
(482,631,l),
(482,631,l),
(482,0,l),
(855,0,l),
(855,67,l),
(566,67,l),
(566,320,l),
(825,320,l),
(825,386,l),
(566,386,l),
(566,633,l),
(855,633,l),
(855,700,l),
(430,700,l),
(31,0,l)
);
},
{
closed = 1;
nodes = (
(521,159,l),
(521,226,l),
(202,226,l),
(167,159,l)
);
}
);
width = 914;
},
{
anchors = (
{
name = bottom;
pos = (546,0);
},
{
name = top;
pos = (546,700);
}
);
layerId = "1615C59E-33DE-4B88-B2CC-A48C7D56A125";
shapes = (
{
closed = 1;
nodes = (
(205,0,l),
(496,573,l),
(496,573,l),
(496,0,l),
(920,0,l),
(920,135,l),
(667,135,l),
(667,293,l),
(890,293,l),
(890,423,l),
(667,423,l),
(667,565,l),
(920,565,l),
(920,700,l),
(379,700,l),
(20,0,l)
);
},
{
closed = 1;
nodes = (
(578,118,l),
(578,248,l),
(240,248,l),
(168,118,l)
);
}
);
width = 975;
},
{
anchors = (
{
name = bottom;
pos = (546,0);
},
{
name = top;
pos = (546,700);
}
);
layerId = "2D111E5E-352D-4630-9162-BCEF010D26CF";
shapes = (
{
closed = 1;
nodes = (
(112,0,l),
(482,640,l),
(482,640,l),
(482,0,l),
(847,0,l),
(847,56,l),
(552,56,l),
(552,324,l),
(817,324,l),
(817,380,l),
(552,380,l),
(552,644,l),
(847,644,l),
(847,700,l),
(441,700,l),
(35,0,l)
);
},
{
closed = 1;
nodes = (
(514,166,l),
(514,223,l),
(198,223,l),
(169,166,l)
);
}
);
width = 908;
},
{
anchors = (
{
name = bottom;
pos = (546,0);
},
{
name = top;
pos = (546,700);
}
);
layerId = "5D382461-81E1-4DF2-8677-8A6F02AD5363";
shapes = (
{
closed = 1;
nodes = (
(26,0,l),
(434,682,l),
(438,682,l),
(438,0,l),
(773,0,l),
(773,18,l),
(458,18,l),
(458,340,l),
(743,340,l),
(743,358,l),
(458,358,l),
(458,682,l),
(773,682,l),
(773,700,l),
(422,700,l),
(5,0,l)
);
},
{
closed = 1;
nodes = (
(446,256,l),
(446,274,l),
(180,274,l),
(171,256,l)
);
}
);
width = 803;
},
{
anchors = (
{
name = bottom;
pos = (546,0);
},
{
name = top;
pos = (546,700);
}
);
layerId = "3B8883BF-F483-4B97-AC7C-CABF8B821093";
shapes = (
{
closed = 1;
nodes = (
(82,0,l),
(448,644,l),
(452,644,l),
(452,0,l),
(817,0,l),
(817,56,l),
(522,56,l),
(522,324,l),
(787,324,l),
(787,380,l),
(522,380,l),
(522,644,l),
(817,644,l),
(817,700,l),
(411,700,l),
(5,0,l)
);
},
{
closed = 1;
nodes = (
(513,224,l),
(492,282,l),
(186,282,l),
(165,224,l)
);
}
);
width = 847;
},
{
anchors = (
{
name = bottom;
pos = (546,0);
},
{
name = top;
pos = (546,700);
}
);
layerId = "F5F01D5B-AEA3-4AC3-B3D8-92550D1582D7";
shapes = (
{
closed = 1;
nodes = (
(97,0,l),
(452,633,l),
(456,633,l),
(456,0,l),
(829,0,l),
(829,67,l),
(540,67,l),
(540,320,l),
(799,320,l),
(799,386,l),
(540,386,l),
(540,633,l),
(829,633,l),
(829,700,l),
(404,700,l),
(5,0,l)
);
},
{
closed = 1;
nodes = (
(528,219,l),
(504,287,l),
(187,287,l),
(163,219,l)
);
}
);
width = 859;
},
{
anchors = (
{
name = bottom;
pos = (546,0);
},
{
name = top;
pos = (546,700);
}
);
layerId = "A390C1A2-E540-434D-BB9E-4BCEE875BA63";
shapes = (
{
closed = 1;
nodes = (
(190,0,l),
(477,573,l),
(481,573,l),
(481,0,l),
(905,0,l),
(905,135,l),
(652,135,l),
(652,293,l),
(875,293,l),
(875,423,l),
(652,423,l),
(652,565,l),
(905,565,l),
(905,700,l),
(364,700,l),
(5,0,l)
);
},
{
closed = 1;
nodes = (
(585,144,l),
(542,276,l),
(158,276,l),
(114,144,l)
);
}
);
width = 935;
},
{
anchors = (
{
name = bottom;
pos = (462,0);
},
{
name = top;
pos = (562,700);
}
);
layerId = "12552169-0282-4A31-82CC-880002E60A2C";
shapes = (
{
closed = 1;
nodes = (
(109,0,l),
(479,640,l),
(479,640,l),
(479,0,l),
(844,0,l),
(844,56,l),
(549,56,l),
(549,324,l),
(814,324,l),
(814,380,l),
(549,380,l),
(549,644,l),
(844,644,l),
(844,700,l),
(438,700,l),
(32,0,l)
);
},
{
closed = 1;
nodes = (
(511,166,l),
(511,222,l),
(195,222,l),
(166,166,l)
);
}
);
width = 902;
},
{
anchors = (
{
name = bottom;
pos = (466,0);
},
{
name = top;
pos = (566,700);
}
);
layerId = "44982FF8-7820-4F75-948C-97259056F879";
shapes = (
{
closed = 1;
nodes = (
(122,0,l),
(481,631,l),
(481,631,l),
(481,0,l),
(854,0,l),
(854,67,l),
(565,67,l),
(565,320,l),
(824,320,l),
(824,386,l),
(565,386,l),
(565,633,l),
(854,633,l),
(854,700,l),
(429,700,l),
(30,0,l)
);
},
{
closed = 1;
nodes = (
(520,159,l),
(520,226,l),
(201,226,l),
(166,159,l)
);
}
);
width = 911;
},
{
anchors = (
{
name = bottom;
pos = (488,0);
},
{
name = top;
pos = (588,700);
}
);
layerId = "84B0614D-4B2F-419D-B7F2-5B7DD4CAD23C";
shapes = (
{
closed = 1;
nodes = (
(201,0,l),
(492,573,l),
(492,573,l),
(492,0,l),
(916,0,l),
(916,135,l),
(663,135,l),
(663,293,l),
(886,293,l),
(886,423,l),
(663,423,l),
(663,565,l),
(916,565,l),
(916,700,l),
(375,700,l),
(16,0,l)
);
},
{
closed = 1;
nodes = (
(574,118,l),
(574,248,l),
(236,248,l),
(164,118,l)
);
}
);
width = 966;
},
{
anchors = (
{
name = bottom;
pos = (573,0);
},
{
name = top;
pos = (573,700);
}
);
layerId = "90D50F69-F6F7-4633-9462-ED0440D3064F";
shapes = (
{
closed = 1;
nodes = (
(53,0,l),
(465,668,l),
(465,668,l),
(465,0,l),
(800,0,l),
(800,18,l),
(485,18,l),
(485,340,l),
(770,340,l),
(770,358,l),
(485,358,l),
(485,682,l),
(800,682,l),
(800,700,l),
(463,700,l),
(32,0,l)
);
},
{
closed = 1;
nodes = (
(473,256,l),
(473,274,l),
(207,274,l),
(198,256,l)
);
}
);
width = 858;
}
);
metricLeft = A;
metricRight = E;
unicode = 198;
userData = {
com.schriftgestaltung.Glyphs.ColorIndex = 4;
com.typemytype.robofont.layerData = {
b = {
anchors = (
);
components = (
);
contours = (
{
points = (
{
segmentType = line;
smooth = 0;
x = 138;
y = 183;
},
{
segmentType = line;
smooth = 0;
x = 449;
y = 183;
},
{
segmentType = line;
smooth = 0;
x = 449;
y = 202;
},
{
segmentType = line;
smooth = 0;
x = 149;
y = 202;
}
);
},
{
points = (
{
segmentType = line;
smooth = 0;
x = 757;
y = 663;
},
{
segmentType = line;
smooth = 0;
x = 757;
y = 683;
},
{
segmentType = line;
smooth = 0;
x = 442;
y = 683;
},
{
segmentType = line;
smooth = 0;
x = 11;
y = 0;
},
{
segmentType = line;
smooth = 0;
x = 32;
y = 0;
},
{
segmentType = line;
smooth = 0;
x = 443;
y = 658;
},
{
segmentType = line;
smooth = 0;
x = 443;
y = 0;
},
{
segmentType = line;
smooth = 0;
x = 757;
y = 0;
},
{
segmentType = line;
smooth = 0;
x = 757;
y = 19;
},
{
segmentType = line;
smooth = 0;
x = 463;
y = 19;
},
{
segmentType = line;
smooth = 0;
x = 463;
y = 332;
},
{
segmentType = line;
smooth = 0;
x = 727;
y = 332;
},
{
segmentType = line;
smooth = 0;
x = 727;
y = 351;
},
{
segmentType = line;
smooth = 0;
x = 463;
y = 351;
},
{
segmentType = line;
smooth = 0;
x = 463;
y = 663;
}
);
}
);
lib = {
};
name = AE;
unicodes = (
);
width = 837;
};
};
com.typesupply.AccentFactory.yCoordinates = {
bottom = {
name = origin;
type = glyphMetric;
};
top = {
name = capHeight;
type = fontInfo;
};
};
};
},
{
glyphname = B;
kernLeft = H;
lastChange = "2023-05-24 14:50:50 +0000";
layers = (
{
layerId = "EB62C368-BB48-47C0-A466-DA94204A0DE4";
shapes = (
{
closed = 1;
nodes = (
(278,0,ls),
(446,0,o),
(499,93,o),
(499,191,cs),
(499,291,o),
(410,362,o),
(324,364,c),
(324,355,l),
(401,367,o),
(483,414,o),
(483,528,cs),
(483,618,o),
(422,700,o),
(273,700,cs),
(78,700,l),
(78,0,l)
);
},
{
closed = 1;
nodes = (
(98,352,l),
(282,352,ls),
(401,352,o),
(476,285,o),
(476,190,cs),
(476,83,o),
(406,20,o),
(287,20,cs),
(98,20,l)
);
},
{
closed = 1;
nodes = (
(98,682,l),
(283,682,ls),
(393,682,o),
(461,616,o),
(461,528,cs),
(461,435,o),
(398,372,o),
(286,372,cs),
(98,372,l)
);
}
);
width = 550;
},
{
layerId = "A6F5E7A4-47EF-4F55-BF18-0ACACB57A720";
shapes = (
{
closed = 1;
nodes = (
(331,0,ls),
(478,0,o),
(558,84,o),
(558,191,cs),
(558,287,o),
(482,362,o),
(392,364,c),
(378,354,l),
(462,362,o),
(542,414,o),
(542,522,cs),
(542,622,o),
(470,700,o),
(323,700,cs),
(77,700,l),
(77,0,l)
);
},
{
closed = 1;
nodes = (
(161,327,l),
(320,327,ls),
(414,327,o),
(472,276,o),
(472,197,cs),
(472,117,o),
(417,70,o),
(322,70,cs),
(161,70,l)
);
},
{
closed = 1;
nodes = (
(161,630,l),
(314,630,ls),
(409,630,o),
(456,584,o),
(456,513,cs),
(456,439,o),
(407,394,o),
(317,394,cs),
(161,394,l)
);
}
);
width = 606;
},
{
layerId = "1615C59E-33DE-4B88-B2CC-A48C7D56A125";
shapes = (
{
closed = 1;
nodes = (
(399,0,ls),
(547,0,o),
(632,75,o),
(632,191,cs),
(632,281,o),
(565,360,o),
(466,364,c),
(449,352,l),
(541,358,o),
(616,414,o),
(616,518,cs),
(616,629,o),
(531,700,o),
(388,700,cs),
(72,700,l),
(72,0,l)
);
},
{
closed = 1;
nodes = (
(243,293,l),
(367,293,ls),
(424,293,o),
(459,264,o),
(459,214,cs),
(459,164,o),
(426,138,o),
(369,138,cs),
(243,138,l)
);
},
{
closed = 1;
nodes = (
(243,565,l),
(355,565,ls),
(411,565,o),
(442,539,o),
(442,491,cs),
(442,443,o),
(411,418,o),
(355,418,cs),
(243,418,l)
);
}
);
width = 673;
},
{
layerId = "2D111E5E-352D-4630-9162-BCEF010D26CF";
shapes = (
{
closed = 1;
nodes = (
(326,0,ls),
(478,0,o),
(552,86,o),
(552,191,cs),
(552,288,o),
(473,362,o),
(384,364,c),
(373,354,l),
(455,363,o),
(536,414,o),
(536,523,cs),
(536,621,o),
(466,700,o),
(319,700,cs),
(84,700,l),
(84,0,l)
);
},
{
closed = 1;
nodes = (
(154,332,l),
(318,332,ls),
(418,332,o),
(480,278,o),
(480,195,cs),
(480,110,o),
(421,59,o),
(321,59,cs),
(154,59,l)
);
},
{
closed = 1;
nodes = (
(154,641,l),
(314,641,ls),
(412,641,o),
(464,591,o),
(464,516,cs),
(464,438,o),
(412,389,o),
(317,389,cs),
(154,389,l)
);
}
);
width = 603;
},
{
layerId = "5D382461-81E1-4DF2-8677-8A6F02AD5363";
shapes = (
{
closed = 1;
nodes = (
(245,0,ls),
(413,0,o),
(466,93,o),
(466,191,cs),
(466,291,o),
(377,362,o),
(291,364,c),
(291,355,l),
(368,367,o),
(450,414,o),
(450,528,cs),
(450,618,o),
(389,700,o),
(240,700,cs),
(45,700,l),
(45,0,l)
);
},
{
closed = 1;
nodes = (
(65,352,l),
(249,352,ls),
(368,352,o),
(444,285,o),
(444,190,cs),
(444,83,o),
(374,20,o),
(254,20,cs),
(65,20,l)
);
},
{
closed = 1;
nodes = (
(65,682,l),
(250,682,ls),
(361,682,o),
(428,616,o),
(428,528,cs),
(428,435,o),
(365,372,o),
(253,372,cs),
(65,372,l)
);
}
);
width = 496;
},
{
layerId = "3B8883BF-F483-4B97-AC7C-CABF8B821093";
shapes = (
{
closed = 1;
nodes = (
(287,0,ls),
(434,0,o),
(513,86,o),
(513,191,cs),
(513,288,o),
(436,362,o),
(347,364,c),
(334,354,l),
(416,363,o),
(497,414,o),
(497,523,cs),
(497,621,o),
(427,700,o),
(280,700,cs),
(45,700,l),
(45,0,l)
);
},
{
closed = 1;
nodes = (
(115,332,l),
(279,332,ls),
(379,332,o),
(441,278,o),
(441,194,cs),
(441,110,o),
(383,59,o),
(282,59,cs),
(115,59,l)
);
},
{
closed = 1;
nodes = (
(115,641,l),
(275,641,ls),
(376,641,o),
(425,591,o),
(425,516,cs),
(425,438,o),
(373,390,o),
(278,390,cs),
(115,390,l)
);
}
);
width = 543;
},
{
layerId = "F5F01D5B-AEA3-4AC3-B3D8-92550D1582D7";
shapes = (
{
closed = 1;
nodes = (
(299,0,ls),
(446,0,o),
(526,84,o),
(526,191,cs),
(526,287,o),
(450,362,o),
(360,364,c),
(346,354,l),
(430,362,o),
(510,414,o),
(510,522,cs),
(510,622,o),
(438,700,o),
(291,700,cs),
(45,700,l),
(45,0,l)
);
},
{
closed = 1;
nodes = (
(129,327,l),
(288,327,ls),
(382,327,o),
(440,276,o),
(440,197,cs),
(440,117,o),
(385,70,o),
(290,70,cs),
(129,70,l)
);
},
{
closed = 1;
nodes = (
(129,630,l),
(282,630,ls),
(377,630,o),
(424,584,o),
(424,513,cs),
(424,439,o),
(375,394,o),
(285,394,cs),
(129,394,l)
);
}
);
width = 556;
},
{
layerId = "A390C1A2-E540-434D-BB9E-4BCEE875BA63";
shapes = (
{
closed = 1;
nodes = (
(372,0,ls),
(520,0,o),
(605,75,o),
(605,191,cs),
(605,281,o),
(538,360,o),
(439,364,c),
(422,352,l),
(514,358,o),
(589,414,o),
(589,518,cs),
(589,629,o),
(504,700,o),
(361,700,cs),
(45,700,l),
(45,0,l)
);
},
{
closed = 1;
nodes = (
(216,293,l),
(340,293,ls),
(397,293,o),
(432,264,o),
(432,214,cs),
(432,164,o),
(399,138,o),
(342,138,cs),
(216,138,l)
);
},
{
closed = 1;
nodes = (
(216,565,l),
(328,565,ls),
(384,565,o),
(415,539,o),
(415,491,cs),
(415,443,o),
(384,418,o),
(328,418,cs),
(216,418,l)
);
}
);
width = 635;
},
{
layerId = "12552169-0282-4A31-82CC-880002E60A2C";
shapes = (
{
closed = 1;
nodes = (
(318,0,ls),
(465,0,o),
(544,86,o),
(544,191,cs),
(544,288,o),
(467,362,o),
(378,364,c),
(365,354,l),
(447,363,o),
(528,414,o),
(528,523,cs),
(528,621,o),
(458,700,o),
(311,700,cs),
(76,700,l),
(76,0,l)
);
},
{
closed = 1;
nodes = (
(146,332,l),
(310,332,ls),
(410,332,o),
(472,278,o),
(472,194,cs),
(472,110,o),
(414,59,o),
(313,59,cs),
(146,59,l)
);
},
{
closed = 1;
nodes = (
(146,641,l),
(306,641,ls),
(407,641,o),
(456,591,o),
(456,516,cs),
(456,438,o),
(404,390,o),
(309,390,cs),
(146,390,l)
);
}
);
width = 593;
},
{
layerId = "44982FF8-7820-4F75-948C-97259056F879";
shapes = (
{
closed = 1;
nodes = (
(328,0,ls),
(475,0,o),
(555,84,o),
(555,191,cs),
(555,287,o),
(479,362,o),
(389,364,c),
(375,354,l),
(459,362,o),
(539,414,o),
(539,522,cs),
(539,622,o),
(467,700,o),
(320,700,cs),
(74,700,l),
(74,0,l)
);
},
{
closed = 1;
nodes = (
(158,327,l),
(317,327,ls),
(411,327,o),
(469,276,o),
(469,197,cs),
(469,117,o),
(414,70,o),
(319,70,cs),
(158,70,l)
);
},
{
closed = 1;
nodes = (
(158,630,l),
(311,630,ls),
(406,630,o),
(453,584,o),
(453,513,cs),
(453,439,o),
(404,394,o),
(314,394,cs),
(158,394,l)
);
}
);
width = 602;
},
{
layerId = "84B0614D-4B2F-419D-B7F2-5B7DD4CAD23C";
shapes = (
{
closed = 1;
nodes = (
(389,0,ls),
(537,0,o),
(622,75,o),
(622,191,cs),
(622,281,o),
(555,360,o),
(456,364,c),
(439,352,l),
(531,358,o),
(606,414,o),
(606,518,cs),
(606,629,o),
(521,700,o),
(378,700,cs),
(62,700,l),
(62,0,l)
);
},
{
closed = 1;
nodes = (
(233,293,l),
(357,293,ls),
(414,293,o),
(449,264,o),
(449,214,cs),
(449,164,o),
(416,138,o),
(359,138,cs),
(233,138,l)
);
},
{
closed = 1;
nodes = (
(233,565,l),
(345,565,ls),
(401,565,o),
(432,539,o),
(432,491,cs),
(432,443,o),
(401,418,o),
(345,418,cs),
(233,418,l)
);
}
);
width = 659;
},
{
layerId = "90D50F69-F6F7-4633-9462-ED0440D3064F";
shapes = (
{
closed = 1;
nodes = (
(276,0,ls),
(444,0,o),
(497,93,o),
(497,191,cs),
(497,291,o),
(408,362,o),
(322,364,c),
(322,355,l),
(399,367,o),
(481,414,o),
(481,528,cs),
(481,618,o),
(420,700,o),
(271,700,cs),
(76,700,l),
(76,0,l)
);
},
{
closed = 1;
nodes = (
(96,352,l),
(280,352,ls),
(399,352,o),
(475,285,o),
(475,190,cs),
(475,83,o),
(405,20,o),
(285,20,cs),
(96,20,l)
);
},
{
closed = 1;
nodes = (
(96,682,l),
(281,682,ls),
(392,682,o),
(459,616,o),
(459,528,cs),
(459,435,o),
(396,372,o),
(284,372,cs),
(96,372,l)
);
}
);
width = 546;
}
);
metricLeft = H;
unicode = 66;
userData = {
com.schriftgestaltung.Glyphs.ColorIndex = 4;
com.typesupply.AccentFactory.yCoordinates = {
bottom = {
name = origin;
type = glyphMetric;
};
top = {
name = capHeight;
type = fontInfo;
};
};
};
},
{
glyphname = C;
kernLeft = O;
kernRight = C;
lastChange = "2023-05-19 14:07:26 +0000";
layers = (
{
anchors = (
{
name = bottom;
pos = (337,0);
},
{
name = top;
pos = (337,700);
}
);
layerId = "EB62C368-BB48-47C0-A466-DA94204A0DE4";
shapes = (
{
closed = 1;
nodes = (
(507,-12,o),
(595,58,o),
(626,181,c),
(604,181,l),
(577,79,o),
(499,8,o),
(362,8,cs),
(190,8,o),
(69,135,o),
(69,351,cs),
(69,567,o),
(190,692,o),
(362,692,cs),
(502,692,o),
(575,622,o),
(604,523,c),
(626,523,l),
(595,642,o),
(507,712,o),
(361,712,cs),
(171,712,o),
(47,567,o),
(47,351,cs),
(47,134,o),
(171,-12,o),
(361,-12,cs)
);
}
);
width = 673;
},
{
anchors = (
{
name = bottom;
pos = (355,0);
},
{
name = top;
pos = (355,700);
}
);
layerId = "A6F5E7A4-47EF-4F55-BF18-0ACACB57A720";
shapes = (
{
closed = 1;
nodes = (
(531,-12,o),
(632,68,o),
(660,203,c),
(569,203,l),
(546,118,o),
(483,62,o),
(372,62,cs),
(228,62,o),
(135,170,o),
(135,350,cs),
(135,529,o),
(228,638,o),
(372,638,cs),
(483,638,o),
(546,580,o),
(569,494,c),
(660,494,l),
(632,632,o),
(531,712,o),
(372,712,cs),
(173,712,o),
(49,565,o),
(49,350,cs),
(49,134,o),
(173,-12,o),
(372,-12,cs)
);
}
);
width = 709;
},
{
anchors = (
{
name = bottom;
pos = (374,0);
},
{
name = top;
pos = (374,700);
}
);
layerId = "1615C59E-33DE-4B88-B2CC-A48C7D56A125";
shapes = (
{
closed = 1;
nodes = (
(556,-12,o),
(675,81,o),
(700,233,c),
(516,233,l),
(500,173,o),
(451,143,o),
(380,143,cs),
(277,143,o),
(222,221,o),
(222,348,cs),
(222,476,o),
(277,556,o),
(380,556,cs),
(451,556,o),
(501,520,o),
(516,454,c),
(700,454,l),
(675,618,o),
(556,712,o),
(382,712,cs),
(173,712,o),
(48,562,o),
(48,348,cs),
(48,135,o),
(173,-12,o),
(382,-12,cs)
);
}
);
width = 748;
},
{
anchors = (
{
name = bottom;
pos = (354,0);
},
{
name = top;
pos = (354,700);
}
);
layerId = "2D111E5E-352D-4630-9162-BCEF010D26CF";
shapes = (
{
closed = 1;
nodes = (
(529,-12,o),
(627,66,o),
(655,198,c),
(580,198,l),
(557,109,o),
(489,50,o),
(373,50,cs),
(223,50,o),
(124,162,o),
(124,350,cs),
(124,537,o),
(223,650,o),
(373,650,cs),
(490,650,o),
(556,590,o),
(580,500,c),
(655,500,l),
(627,634,o),
(529,712,o),
(373,712,cs),
(176,712,o),
(52,565,o),
(52,350,cs),
(52,134,o),
(176,-12,o),
(373,-12,cs)
);
}
);
width = 707;
},
{
anchors = (
{
name = bottom;
pos = (332,0);
},
{
name = top;
pos = (332,700);
}
);
layerId = "5D382461-81E1-4DF2-8677-8A6F02AD5363";
shapes = (
{
closed = 1;
nodes = (
(508,-12,o),
(598,58,o),
(629,181,c),
(607,181,l),
(582,80,o),
(500,8,o),
(360,8,cs),
(182,8,o),
(57,136,o),
(57,350,cs),
(57,566,o),
(182,692,o),
(360,692,cs),
(503,692,o),
(580,624,o),
(607,522,c),
(629,522,l),
(598,642,o),
(508,712,o),
(360,712,cs),
(163,712,o),
(35,567,o),
(35,350,cs),
(35,134,o),
(163,-12,o),
(360,-12,cs)
);
}
);
width = 664;
},
{
anchors = (
{
name = bottom;
pos = (345,0);
},
{
name = top;
pos = (345,700);
}
);
layerId = "3B8883BF-F483-4B97-AC7C-CABF8B821093";
shapes = (
{
closed = 1;
nodes = (
(525,-12,o),
(625,66,o),
(654,198,c),
(576,198,l),
(554,109,o),
(486,49,o),
(367,49,cs),
(210,49,o),
(107,162,o),
(107,350,cs),
(107,538,o),
(210,651,o),
(367,651,cs),
(486,651,o),
(554,591,o),
(576,500,c),
(654,500,l),
(625,634,o),
(525,712,o),
(367,712,cs),
(163,712,o),
(35,565,o),
(35,350,cs),
(35,134,o),
(163,-12,o),
(367,-12,cs)
);
}
);
width = 689;
},
{
anchors = (
{
name = bottom;
pos = (348,0);
},
{
name = top;
pos = (348,700);
}
);
layerId = "F5F01D5B-AEA3-4AC3-B3D8-92550D1582D7";
shapes = (
{
closed = 1;
nodes = (
(530,-12,o),
(633,68,o),
(661,203,c),
(571,203,l),
(550,119,o),
(482,63,o),
(369,63,cs),
(218,63,o),
(121,171,o),
(121,350,cs),
(121,528,o),
(218,637,o),
(369,637,cs),
(482,637,o),
(547,580,o),
(568,494,c),
(661,494,l),
(633,632,o),
(530,712,o),
(369,712,cs),
(163,712,o),
(35,565,o),
(35,350,cs),
(35,134,o),
(163,-12,o),
(369,-12,cs)
);
}
);
width = 696;
},
{
anchors = (
{
name = bottom;
pos = (369,0);
},
{
name = top;
pos = (369,700);
}
);
layerId = "A390C1A2-E540-434D-BB9E-4BCEE875BA63";
shapes = (
{
closed = 1;
nodes = (
(556,-12,o),
(677,81,o),
(703,233,c),
(515,233,l),
(500,173,o),
(452,143,o),
(378,143,cs),
(268,143,o),
(209,221,o),
(209,348,cs),
(209,476,o),
(268,556,o),
(378,556,cs),
(452,556,o),
(501,520,o),
(515,454,c),
(703,454,l),
(677,618,o),
(556,712,o),
(380,712,cs),
(164,712,o),
(35,562,o),
(35,348,cs),
(35,135,o),
(164,-12,o),
(380,-12,cs)
);
}
);
width = 738;
},
{
anchors = (
{
name = bottom;
pos = (358,0);
},
{
name = top;
pos = (358,700);
}
);
layerId = "12552169-0282-4A31-82CC-880002E60A2C";
shapes = (
{
closed = 1;
nodes = (
(538,-12,o),
(638,66,o),
(667,198,c),
(589,198,l),
(567,109,o),
(499,49,o),
(380,49,cs),
(223,49,o),
(120,162,o),
(120,350,cs),
(120,538,o),
(223,651,o),
(380,651,cs),
(499,651,o),
(567,591,o),
(589,500,c),
(667,500,l),
(638,634,o),
(538,712,o),
(380,712,cs),
(176,712,o),
(48,565,o),
(48,350,cs),
(48,134,o),
(176,-12,o),
(380,-12,cs)
);
}
);
width = 715;
},
{
anchors = (
{
name = bottom;
pos = (360,0);
},
{
name = top;
pos = (360,700);
}
);
layerId = "44982FF8-7820-4F75-948C-97259056F879";
shapes = (
{
closed = 1;
nodes = (
(542,-12,o),
(645,68,o),
(673,203,c),
(580,203,l),
(559,118,o),
(494,62,o),
(381,62,cs),
(230,62,o),
(133,170,o),
(133,350,cs),
(133,529,o),
(230,638,o),
(381,638,cs),
(494,638,o),
(559,581,o),
(580,494,c),
(673,494,l),
(645,632,o),
(542,712,o),
(381,712,cs),
(175,712,o),
(47,565,o),
(47,350,cs),
(47,134,o),
(175,-12,o),
(381,-12,cs)
);
}
);
width = 720;
},
{
anchors = (
{
name = bottom;
pos = (377,0);
},
{
name = top;
pos = (377,700);
}
);
layerId = "84B0614D-4B2F-419D-B7F2-5B7DD4CAD23C";
shapes = (
{
closed = 1;
nodes = (
(564,-12,o),
(685,81,o),
(711,233,c),
(523,233,l),
(508,173,o),
(460,143,o),
(386,143,cs),
(276,143,o),
(217,221,o),
(217,348,cs),
(217,476,o),
(276,556,o),
(386,556,cs),
(460,556,o),
(509,520,o),
(523,454,c),
(711,454,l),
(685,618,o),
(564,712,o),
(388,712,cs),
(172,712,o),
(43,562,o),
(43,348,cs),
(43,135,o),
(172,-12,o),
(388,-12,cs)
);
}
);
width = 754;
},
{
anchors = (
{
name = bottom;
pos = (345,0);
},
{
name = top;
pos = (345,700);
}
);
layerId = "90D50F69-F6F7-4633-9462-ED0440D3064F";
shapes = (
{
closed = 1;
nodes = (
(521,-12,o),
(611,58,o),
(642,181,c),
(620,181,l),
(595,80,o),
(513,8,o),
(373,8,cs),
(195,8,o),
(70,136,o),
(70,350,cs),
(70,566,o),
(195,692,o),
(373,692,cs),
(516,692,o),
(593,624,o),
(620,522,c),
(642,522,l),
(611,642,o),
(521,712,o),
(373,712,cs),
(176,712,o),
(48,567,o),
(48,350,cs),
(48,134,o),
(176,-12,o),
(373,-12,cs)
);
}
);
width = 690;
}
);
metricLeft = O;
metricRight = O;
unicode = 67;
userData = {
com.schriftgestaltung.Glyphs.ColorIndex = 4;
com.typesupply.AccentFactory.yCoordinates = {
bottom = {
name = origin;
type = glyphMetric;
};
top = {
name = capHeight;
type = fontInfo;
};
};
};
},
{
glyphname = D;
kernLeft = H;
kernRight = O;
lastChange = "2023-05-19 14:07:26 +0000";
layers = (
{
anchors = (
{
name = top;
pos = (253,700);
}
);
layerId = "EB62C368-BB48-47C0-A466-DA94204A0DE4";
shapes = (
{
closed = 1;
nodes = (
(227,0,ls),
(486,0,o),
(580,148,o),
(580,346,cs),
(580,573,o),
(469,700,o),
(219,700,cs),
(78,700,l),
(78,0,l)
);
},
{
closed = 1;
nodes = (
(98,682,l),
(225,682,ls),
(460,682,o),
(558,552,o),
(558,346,cs),
(558,141,o),
(452,18,o),
(225,18,cs),
(98,18,l)
);
}
);
width = 627;
},
{
anchors = (
{
name = top;
pos = (253,700);
}
);
layerId = "A6F5E7A4-47EF-4F55-BF18-0ACACB57A720";
shapes = (
{
closed = 1;
nodes = (
(257,0,ls),
(501,0,o),
(615,133,o),
(615,348,cs),
(615,567,o),
(501,700,o),
(257,700,cs),
(77,700,l),
(77,0,l)
);
},
{
closed = 1;
nodes = (
(161,630,l),
(255,630,ls),
(457,630,o),
(528,523,o),
(528,348,cs),
(528,175,o),
(457,70,o),
(255,70,cs),
(161,70,l)
);
}
);
width = 664;
},
{
anchors = (
{
name = top;
pos = (301,700);
}
);
layerId = "1615C59E-33DE-4B88-B2CC-A48C7D56A125";
shapes = (
{
closed = 1;
nodes = (
(301,0,ls),
(543,0,o),
(656,143,o),
(656,351,cs),
(656,558,o),
(543,700,o),
(301,700,cs),
(72,700,l),
(72,0,l)
);
},
{
closed = 1;
nodes = (
(243,554,l),
(290,554,ls),
(437,554,o),
(482,478,o),
(482,351,cs),
(482,222,o),
(437,148,o),
(290,148,cs),
(243,148,l)
);
}
);
width = 704;
},
{
anchors = (
{
name = top;
pos = (253,700);
}
);
layerId = "2D111E5E-352D-4630-9162-BCEF010D26CF";
shapes = (
{
closed = 1;
nodes = (
(256,0,ls),
(501,0,o),
(614,131,o),
(614,348,cs),
(614,568,o),
(501,700,o),
(256,700,cs),
(84,700,l),
(84,0,l)
);
},
{
closed = 1;
nodes = (
(154,641,l),
(255,641,ls),
(466,641,o),
(542,529,o),
(542,348,cs),
(542,168,o),
(466,59,o),
(255,59,cs),
(154,59,l)
);
}
);
width = 666;
},
{
anchors = (
{
name = top;
pos = (223,700);
}
);
layerId = "5D382461-81E1-4DF2-8677-8A6F02AD5363";
shapes = (
{
closed = 1;
nodes = (
(231,0,ls),
(490,0,o),
(584,148,o),
(584,346,cs),
(584,573,o),
(473,700,o),
(223,700,cs),
(45,700,l),
(45,0,l)
);
},
{
closed = 1;
nodes = (
(65,682,l),
(229,682,ls),
(464,682,o),
(562,552,o),
(562,346,cs),
(562,141,o),
(456,18,o),
(229,18,cs),
(65,18,l)
);
}
);
width = 619;
},
{
anchors = (
{
name = top;
pos = (252,700);
}
);
layerId = "3B8883BF-F483-4B97-AC7C-CABF8B821093";
shapes = (
{
closed = 1;
nodes = (
(252,0,ls),
(499,0,o),
(612,131,o),
(612,348,cs),
(612,568,o),
(499,700,o),
(252,700,cs),
(45,700,l),
(45,0,l)
);
},
{
closed = 1;
nodes = (
(115,642,l),
(252,642,ls),
(464,642,o),
(540,530,o),
(540,348,cs),
(540,168,o),
(464,58,o),
(252,58,cs),
(115,58,l)
);
}
);
width = 647;
},
{
anchors = (
{
name = top;
pos = (260,700);
}
);
layerId = "F5F01D5B-AEA3-4AC3-B3D8-92550D1582D7";
shapes = (
{
closed = 1;
nodes = (
(260,0,ls),
(506,0,o),
(620,133,o),
(620,348,cs),
(620,567,o),
(506,700,o),
(260,700,cs),
(45,700,l),
(45,0,l)
);
},
{
closed = 1;
nodes = (
(129,630,l),
(258,630,ls),
(462,630,o),
(533,523,o),
(533,348,cs),
(533,175,o),
(462,70,o),
(258,70,cs),
(129,70,l)
);
}
);
width = 655;
},
{
anchors = (
{
name = top;
pos = (308,700);
}
);
layerId = "A390C1A2-E540-434D-BB9E-4BCEE875BA63";
shapes = (
{
closed = 1;
nodes = (
(308,0,ls),
(552,0,o),
(666,143,o),
(666,351,cs),
(666,558,o),
(552,700,o),
(308,700,cs),
(45,700,l),
(45,0,l)
);
},
{
closed = 1;
nodes = (
(216,554,l),
(297,554,ls),
(446,554,o),
(492,478,o),
(492,351,cs),
(492,222,o),
(446,148,o),
(297,148,cs),
(216,148,l)
);
}
);
width = 701;
},
{
anchors = (
{
name = top;
pos = (284,700);
}
);
layerId = "12552169-0282-4A31-82CC-880002E60A2C";
shapes = (
{
closed = 1;
nodes = (
(283,0,ls),
(530,0,o),
(643,131,o),
(643,348,cs),
(643,568,o),
(530,700,o),
(283,700,cs),
(76,700,l),
(76,0,l)
);
},
{
closed = 1;
nodes = (
(146,642,l),
(283,642,ls),
(495,642,o),
(571,530,o),
(571,348,cs),
(571,168,o),
(495,58,o),
(283,58,cs),
(146,58,l)
);
}
);
width = 691;
},
{
anchors = (
{
name = top;
pos = (286,700);
}
);
layerId = "44982FF8-7820-4F75-948C-97259056F879";
shapes = (
{
closed = 1;
nodes = (
(289,0,ls),
(535,0,o),
(649,133,o),
(649,348,cs),
(649,567,o),
(535,700,o),
(289,700,cs),
(74,700,l),
(74,0,l)
);
},
{
closed = 1;
nodes = (
(158,630,l),
(287,630,ls),
(491,630,o),
(562,523,o),
(562,348,cs),
(562,175,o),
(491,70,o),
(287,70,cs),
(158,70,l)
);
}
);
width = 696;
},
{
anchors = (
{
name = top;
pos = (297,700);
}
);
layerId = "84B0614D-4B2F-419D-B7F2-5B7DD4CAD23C";
shapes = (
{
closed = 1;
nodes = (
(325,0,ls),
(569,0,o),
(683,143,o),
(683,351,cs),
(683,558,o),
(569,700,o),
(325,700,cs),
(62,700,l),
(62,0,l)
);
},
{
closed = 1;
nodes = (
(233,554,l),
(314,554,ls),
(463,554,o),
(509,478,o),
(509,351,cs),
(509,222,o),
(463,148,o),
(314,148,cs),
(233,148,l)
);
}
);
width = 726;
},
{
anchors = (
{
name = top;
pos = (254,700);
}
);
layerId = "90D50F69-F6F7-4633-9462-ED0440D3064F";
shapes = (
{
closed = 1;
nodes = (
(262,0,ls),
(521,0,o),
(615,148,o),
(615,346,cs),
(615,573,o),
(504,700,o),
(254,700,cs),
(76,700,l),
(76,0,l)
);
},
{
closed = 1;
nodes = (
(96,682,l),
(260,682,ls),
(495,682,o),
(593,552,o),
(593,346,cs),
(593,141,o),
(487,18,o),
(260,18,cs),
(96,18,l)
);
}
);
width = 663;
}
);
metricLeft = H;
metricRight = O;
unicode = 68;
userData = {
com.schriftgestaltung.Glyphs.ColorIndex = 4;
com.typemytype.robofont.guides = (
{
angle = 0;
isGlobal = 0;
magnetic = 5;
x = 122;
y = 684;
}
);
com.typesupply.AccentFactory.yCoordinates = {
bottom = {
name = origin;
type = glyphMetric;
};
top = {
name = capHeight;
type = fontInfo;
};
};
};
},
{
glyphname = Eth;
kernLeft = Eth;
kernRight = O;
lastChange = "2023-05-19 14:07:26 +0000";
layers = (
{
guides = (
{
angle = 270;
pos = (13,343);
},
{
angle = 270;
pos = (111,343);
}
);
layerId = "EB62C368-BB48-47C0-A466-DA94204A0DE4";
shapes = (
{
closed = 1;
nodes = (
(374,343,l),
(374,361,l),
(13,361,l),
(13,343,l)
);
},
{
alignment = -1;
pos = (33,0);
ref = D;
}
);
width = 660;
},
{
layerId = "A6F5E7A4-47EF-4F55-BF18-0ACACB57A720";
shapes = (
{
closed = 1;
nodes = (
(381,311,l),
(381,387,l),
(8,387,l),
(8,311,l)
);
},
{
alignment = -1;
pos = (21,0);
ref = D;
}
);
width = 685;
},
{
layerId = "1615C59E-33DE-4B88-B2CC-A48C7D56A125";
shapes = (
{
closed = 1;
nodes = (
(391,280,l),
(391,422,l),
(4,422,l),
(4,280,l)
);
},
{
alignment = -1;
pos = (5,0);
ref = D;
}
);
width = 709;
},
{
layerId = "2D111E5E-352D-4630-9162-BCEF010D26CF";
shapes = (
{
closed = 1;
nodes = (
(379,316,l),
(379,381,l),
(9,381,l),
(9,316,l)
);
},
{
alignment = -1;
pos = (24,0);
ref = D;
}
);
width = 690;
},
{
guides = (
{
angle = 270;
pos = (9,343);
},
{
angle = 270;
pos = (107,343);
}
);
layerId = "5D382461-81E1-4DF2-8677-8A6F02AD5363";
shapes = (
{
closed = 1;
nodes = (
(351,343,l),
(351,361,l),
(10,361,l),
(10,343,l)
);
},
{
alignment = -1;
pos = (32,0);
ref = D;
}
);
width = 651;
},
{
layerId = "3B8883BF-F483-4B97-AC7C-CABF8B821093";
shapes = (
{
closed = 1;
nodes = (
(363,316,l),
(363,381,l),
(10,381,l),
(10,316,l)
);
},
{
alignment = -1;
pos = (25,0);
ref = D;
}
);
width = 672;
},
{
layerId = "F5F01D5B-AEA3-4AC3-B3D8-92550D1582D7";
shapes = (
{
closed = 1;
nodes = (
(370,311,l),
(370,387,l),
(10,387,l),
(10,311,l)
);
},
{
alignment = -1;
pos = (23,0);
ref = D;
}
);
width = 678;
},
{
layerId = "A390C1A2-E540-434D-BB9E-4BCEE875BA63";
shapes = (
{
closed = 1;
nodes = (
(387,280,l),
(387,422,l),
(10,422,l),
(10,280,l)
);
},
{
alignment = -1;
pos = (11,0);
ref = D;
}
);
width = 712;
},
{
layerId = "12552169-0282-4A31-82CC-880002E60A2C";
shapes = (
{
closed = 1;
nodes = (
(379,316,l),
(379,381,l),
(9,381,l),
(9,316,l)
);
},
{
pos = (24,0);
ref = D;
}
);
width = 715;
},
{
layerId = "44982FF8-7820-4F75-948C-97259056F879";
shapes = (
{
closed = 1;
nodes = (
(381,311,l),
(381,387,l),
(8,387,l),
(8,311,l)
);
},
{
alignment = -1;
pos = (21,0);
ref = D;
}
);
width = 717;
},
{
layerId = "84B0614D-4B2F-419D-B7F2-5B7DD4CAD23C";
shapes = (
{
closed = 1;
nodes = (
(391,280,l),
(391,422,l),
(4,422,l),
(4,280,l)
);
},
{
pos = (5,0);
ref = D;
}
);
width = 731;
},
{
guides = (
{
angle = 270;
pos = (9,343);
},
{
angle = 270;
pos = (107,343);
}
);
layerId = "90D50F69-F6F7-4633-9462-ED0440D3064F";
shapes = (
{
closed = 1;
nodes = (
(372,343,l),
(372,361,l),
(9,361,l),
(9,343,l)
);
},
{
alignment = -1;
pos = (31,0);
ref = D;
}
);
width = 694;
}
);
metricRight = O;
unicode = 208;
userData = {
com.schriftgestaltung.Glyphs.ColorIndex = 4;
};
},
{
glyphname = E;
kernLeft = H;
kernRight = E;
lastChange = "2023-05-19 14:07:26 +0000";
layers = (
{
anchors = (
{
name = bottom;
pos = (276,0);
},
{
name = ogonek;
pos = (475,0);
},
{
name = top;
pos = (276,700);
}
);
layerId = "EB62C368-BB48-47C0-A466-DA94204A0DE4";
shapes = (
{
closed = 1;
nodes = (
(475,0,l),
(475,18,l),
(98,18,l),
(98,339,l),
(445,339,l),
(445,358,l),
(98,358,l),
(98,682,l),
(475,682,l),
(475,700,l),
(78,700,l),
(78,0,l)
);
}
);
width = 532;
},
{
anchors = (
{
name = bottom;
pos = (294,0);
},
{
name = ogonek;
pos = (510,0);
},
{
name = top;
pos = (294,700);
}
);
layerId = "A6F5E7A4-47EF-4F55-BF18-0ACACB57A720";
shapes = (
{
closed = 1;
nodes = (
(510,0,l),
(510,69,l),
(161,69,l),
(161,319,l),
(480,319,l),
(480,387,l),
(161,387,l),
(161,631,l),
(510,631,l),
(510,700,l),
(77,700,l),
(77,0,l)
);
}
);
width = 569;
},
{
anchors = (
{
name = bottom;
pos = (312,0);
},
{
name = ogonek;
pos = (552,0);
},
{
name = top;
pos = (312,700);
}
);
layerId = "1615C59E-33DE-4B88-B2CC-A48C7D56A125";
shapes = (
{
closed = 1;
nodes = (
(552,0,l),
(552,137,l),
(243,137,l),
(243,291,l),
(522,291,l),
(522,423,l),
(243,423,l),
(243,563,l),
(552,563,l),
(552,700,l),
(72,700,l),
(72,0,l)
);
}
);
width = 607;
},
{
anchors = (
{
name = bottom;
pos = (296,0);
},
{
name = ogonek;
pos = (509,0);
},
{
name = top;
pos = (296,700);
}
);
layerId = "2D111E5E-352D-4630-9162-BCEF010D26CF";
shapes = (
{
closed = 1;
nodes = (
(509,0,l),
(509,58,l),
(154,58,l),
(154,323,l),
(479,323,l),
(479,381,l),
(154,381,l),
(154,642,l),
(509,642,l),
(509,700,l),
(84,700,l),
(84,0,l)
);
}
);
width = 570;
},
{
anchors = (
{
name = bottom;
pos = (244,0);
},
{
name = ogonek;
pos = (442,0);
},
{
name = top;
pos = (244,700);
}
);
layerId = "5D382461-81E1-4DF2-8677-8A6F02AD5363";
shapes = (
{
closed = 1;
nodes = (
(442,0,l),
(442,18,l),
(65,18,l),
(65,339,l),
(412,339,l),
(412,358,l),
(65,358,l),
(65,682,l),
(442,682,l),
(442,700,l),
(45,700,l),
(45,0,l)
);
}
);
width = 472;
},
{
anchors = (
{
name = bottom;
pos = (258,0);
},
{
name = ogonek;
pos = (470,0);
},
{
name = top;
pos = (258,700);
}
);
layerId = "3B8883BF-F483-4B97-AC7C-CABF8B821093";
shapes = (
{
closed = 1;
nodes = (
(470,0,l),
(470,58,l),
(115,58,l),
(115,323,l),
(440,323,l),
(440,381,l),
(115,381,l),
(115,642,l),
(470,642,l),
(470,700,l),
(45,700,l),
(45,0,l)
);
}
);
width = 500;
},
{
anchors = (
{
name = bottom;
pos = (262,0);
},
{
name = ogonek;
pos = (478,0);
},
{
name = top;
pos = (262,700);
}
);
layerId = "F5F01D5B-AEA3-4AC3-B3D8-92550D1582D7";
shapes = (
{
closed = 1;
nodes = (
(478,0,l),
(478,69,l),
(129,69,l),
(129,319,l),
(448,319,l),
(448,387,l),
(129,387,l),
(129,631,l),
(478,631,l),
(478,700,l),
(45,700,l),
(45,0,l)
);
}
);
width = 508;
},
{
anchors = (
{
name = bottom;
pos = (286,0);
},
{
name = ogonek;
pos = (525,0);
},
{
name = top;
pos = (286,700);
}
);
layerId = "A390C1A2-E540-434D-BB9E-4BCEE875BA63";
shapes = (
{
closed = 1;
nodes = (
(525,0,l),
(525,137,l),
(216,137,l),
(216,291,l),
(495,291,l),
(495,423,l),
(216,423,l),
(216,563,l),
(525,563,l),
(525,700,l),
(45,700,l),
(45,0,l)
);
}
);
width = 555;
},
{
anchors = (
{
name = bottom;
pos = (288,0);
},
{
name = ogonek;
pos = (501,0);
},
{
name = top;
pos = (288,700);
}
);
layerId = "12552169-0282-4A31-82CC-880002E60A2C";
shapes = (
{
closed = 1;
nodes = (
(501,0,l),
(501,58,l),
(146,58,l),
(146,323,l),
(471,323,l),
(471,381,l),
(146,381,l),
(146,642,l),
(501,642,l),
(501,700,l),
(76,700,l),
(76,0,l)
);
}
);
width = 559;
},
{
anchors = (
{
name = bottom;
pos = (291,0);
},
{
name = ogonek;
pos = (507,0);
},
{
name = top;
pos = (291,700);
}
);
layerId = "44982FF8-7820-4F75-948C-97259056F879";
shapes = (
{
closed = 1;
nodes = (
(507,0,l),
(507,69,l),
(158,69,l),
(158,319,l),
(477,319,l),
(477,387,l),
(158,387,l),
(158,631,l),
(507,631,l),
(507,700,l),
(74,700,l),
(74,0,l)
);
}
);
width = 564;
},
{
anchors = (
{
name = bottom;
pos = (302,0);
},
{
name = ogonek;
pos = (542,0);
},
{
name = top;
pos = (302,700);
}
);
layerId = "84B0614D-4B2F-419D-B7F2-5B7DD4CAD23C";
shapes = (
{
closed = 1;
nodes = (
(542,0,l),
(542,137,l),
(233,137,l),
(233,291,l),
(512,291,l),
(512,423,l),
(233,423,l),
(233,563,l),
(542,563,l),
(542,700,l),
(62,700,l),
(62,0,l)
);
}
);
width = 592;
},
{
anchors = (
{
name = bottom;
pos = (274,0);
},
{
name = ogonek;
pos = (473,0);
},
{
name = top;
pos = (274,700);
}
);
layerId = "90D50F69-F6F7-4633-9462-ED0440D3064F";
shapes = (
{
closed = 1;
nodes = (
(473,0,l),
(473,18,l),
(96,18,l),
(96,339,l),
(443,339,l),
(443,358,l),
(96,358,l),
(96,682,l),
(473,682,l),
(473,700,l),
(76,700,l),
(76,0,l)
);
}
);
width = 531;
}
);
metricLeft = H;
unicode = 69;
userData = {
com.schriftgestaltung.Glyphs.ColorIndex = 4;
com.typesupply.AccentFactory.yCoordinates = {
bottom = {
name = origin;
type = glyphMetric;
};
top = {
name = capHeight;
type = fontInfo;
};
};
};
},
{
glyphname = Schwa;
kernRight = O;
lastChange = "2023-05-19 14:07:26 +0000";
layers = (
{
layerId = "EB62C368-BB48-47C0-A466-DA94204A0DE4";
shapes = (
{
closed = 1;
nodes = (
(503,-12,o),
(622,110,o),
(622,348,cs),
(622,561,o),
(516,711,o),
(338,711,cs),
(180,711,o),
(101,630,o),
(65,514,c),
(89,514,l),
(126,632,o),
(205,690,o),
(338,690,cs),
(473,690,o),
(598,582,o),
(598,353,cs),
(598,341,ls),
(598,101,o),
(468,9,o),
(338,9,cs),
(177,9,o),
(69,105,o),
(69,335,c),
(607,335,l),
(607,356,l),
(48,356,l),
(47,341,o),
(47,338,o),
(47,323,cs),
(47,125,o),
(138,-12,o),
(338,-12,cs)
);
}
);
width = 669;
},
{
layerId = "A6F5E7A4-47EF-4F55-BF18-0ACACB57A720";
shapes = (
{
closed = 1;
nodes = (
(530,-12,o),
(655,126,o),
(655,350,cs),
(655,565,o),
(533,712,o),
(349,712,cs),
(194,712,o),
(100,627,o),
(66,513,c),
(158,513,l),
(186,603,o),
(242,646,o),
(349,646,cs),
(466,646,o),
(566,553,o),
(566,356,cs),
(566,325,ls),
(566,135,o),
(465,54,o),
(350,54,cs),
(227,54,o),
(140,131,o),
(138,303,c),
(588,303,l),
(588,372,l),
(50,372,l),
(49,350,o),
(49,334,o),
(49,318,cs),
(49,135,o),
(146,-12,o),
(348,-12,cs)
);
}
);
width = 704;
},
{
layerId = "1615C59E-33DE-4B88-B2CC-A48C7D56A125";
shapes = (
{
closed = 1;
nodes = (
(597,-12,o),
(732,147,o),
(732,360,cs),
(732,567,o),
(594,712,o),
(385,712,cs),
(228,712,o),
(107,616,o),
(66,493,c),
(298,493,l),
(316,514,o),
(342,530,o),
(387,530,cs),
(477,530,o),
(510,466,o),
(510,387,cs),
(510,347,ls),
(510,225,o),
(459,167,o),
(384,167,cs),
(322,167,o),
(278,212,o),
(276,281,c),
(574,281,l),
(574,406,l),
(52,406,l),
(49,384,o),
(48,360,o),
(48,342,cs),
(48,133,o),
(178,-12,o),
(386,-12,cs)
);
}
);
width = 780;
},
{
layerId = "2D111E5E-352D-4630-9162-BCEF010D26CF";
shapes = (
{
closed = 1;
nodes = (
(534,-12,o),
(659,126,o),
(659,350,cs),
(659,566,o),
(537,712,o),
(352,712,cs),
(197,712,o),
(103,628,o),
(69,513,c),
(146,513,l),
(176,606,o),
(248,648,o),
(352,648,cs),
(484,648,o),
(583,556,o),
(583,357,cs),
(583,325,ls),
(583,149,o),
(475,51,o),
(354,51,cs),
(230,51,o),
(127,129,o),
(126,306,c),
(592,306,l),
(592,372,l),
(53,372,l),
(52,349,o),
(52,340,o),
(52,319,cs),
(52,135,o),
(149,-12,o),
(351,-12,cs)
);
}
);
width = 711;
},
{
layerId = "5D382461-81E1-4DF2-8677-8A6F02AD5363";
shapes = (
{
closed = 1;
nodes = (
(517,-12,o),
(646,118,o),
(646,342,cs),
(646,567,o),
(535,712,o),
(336,712,cs),
(183,712,o),
(95,626,o),
(53,503,c),
(77,503,l),
(120,624,o),
(209,691,o),
(336,691,cs),
(489,691,o),
(622,587,o),
(622,344,cs),
(622,335,ls),
(622,109,o),
(476,10,o),
(333,10,cs),
(175,10,o),
(58,114,o),
(58,328,c),
(631,328,l),
(631,350,l),
(36,350,l),
(35,334,o),
(35,327,o),
(35,311,cs),
(35,142,o),
(128,-12,o),
(332,-12,cs)
);
}
);
width = 681;
},
{
layerId = "3B8883BF-F483-4B97-AC7C-CABF8B821093";
shapes = (
{
closed = 1;
nodes = (
(555,-12,o),
(691,132,o),
(691,345,cs),
(691,566,o),
(556,712,o),
(360,712,cs),
(201,712,o),
(80,622,o),
(39,481,c),
(119,481,l),
(150,586,o),
(245,648,o),
(360,648,cs),
(507,648,o),
(615,539,o),
(615,357,cs),
(615,320,ls),
(615,148,o),
(503,51,o),
(357,51,cs),
(205,51,o),
(106,152,o),
(108,306,c),
(630,306,l),
(630,372,l),
(37,372,l),
(35,351,o),
(35,332,o),
(35,313,cs),
(35,107,o),
(166,-12,o),
(355,-12,cs)
);
}
);
width = 726;
},
{
layerId = "F5F01D5B-AEA3-4AC3-B3D8-92550D1582D7";
shapes = (
{
closed = 1;
nodes = (
(561,-12,o),
(696,132,o),
(696,346,cs),
(696,566,o),
(560,712,o),
(363,712,cs),
(202,712,o),
(81,620,o),
(40,479,c),
(135,479,l),
(165,577,o),
(254,636,o),
(363,636,cs),
(503,636,o),
(606,533,o),
(606,360,cs),
(606,318,ls),
(606,156,o),
(499,64,o),
(360,64,cs),
(216,64,o),
(121,159,o),
(123,303,c),
(622,303,l),
(622,375,l),
(38,375,l),
(36,354,o),
(35,335,o),
(35,316,cs),
(35,109,o),
(169,-12,o),
(360,-12,cs)
);
}
);
width = 731;
},
{
layerId = "A390C1A2-E540-434D-BB9E-4BCEE875BA63";
shapes = (
{
closed = 1;
nodes = (
(587,-12,o),
(725,132,o),
(725,350,cs),
(725,569,o),
(585,712,o),
(378,712,cs),
(208,712,o),
(84,611,o),
(46,468,c),
(232,468,l),
(253,524,o),
(310,558,o),
(380,558,cs),
(474,558,o),
(548,493,o),
(548,381,cs),
(548,306,ls),
(548,203,o),
(469,145,o),
(376,145,cs),
(283,145,o),
(215,200,o),
(211,282,c),
(571,282,l),
(571,397,l),
(39,397,l),
(37,376,o),
(35,354,o),
(35,335,cs),
(35,118,o),
(173,-12,o),
(379,-12,cs)
);
}
);
width = 760;
},
{
layerId = "12552169-0282-4A31-82CC-880002E60A2C";
shapes = (
{
closed = 1;
nodes = (
(570,-12,o),
(704,132,o),
(704,345,cs),
(704,565,o),
(569,712,o),
(373,712,cs),
(214,712,o),
(93,621,o),
(52,481,c),
(132,481,l),
(164,586,o),
(258,648,o),
(373,648,cs),
(520,648,o),
(628,539,o),
(628,357,cs),
(628,320,ls),
(628,149,o),
(516,51,o),
(370,51,cs),
(218,51,o),
(118,152,o),
(121,306,c),
(643,306,l),
(643,371,l),
(51,371,l),
(49,351,o),
(48,332,o),
(48,313,cs),
(48,107,o),
(181,-12,o),
(370,-12,cs)
);
}
);
width = 752;
},
{
layerId = "44982FF8-7820-4F75-948C-97259056F879";
shapes = (
{
closed = 1;
nodes = (
(573,-12,o),
(708,132,o),
(708,346,cs),
(708,566,o),
(572,712,o),
(375,712,cs),
(214,712,o),
(93,620,o),
(52,479,c),
(147,479,l),
(177,577,o),
(266,636,o),
(375,636,cs),
(515,636,o),
(618,533,o),
(618,360,cs),
(618,318,ls),
(618,156,o),
(511,64,o),
(372,64,cs),
(228,64,o),
(133,159,o),
(135,303,c),
(634,303,l),
(634,375,l),
(50,375,l),
(48,354,o),
(47,335,o),
(47,316,cs),
(47,109,o),
(181,-12,o),
(372,-12,cs)
);
}
);
width = 755;
},
{
layerId = "84B0614D-4B2F-419D-B7F2-5B7DD4CAD23C";
shapes = (
{
closed = 1;
nodes = (
(595,-12,o),
(733,132,o),
(733,350,cs),
(733,569,o),
(593,712,o),
(386,712,cs),
(216,712,o),
(92,611,o),
(54,468,c),
(240,468,l),
(261,524,o),
(318,558,o),
(388,558,cs),
(482,558,o),
(556,493,o),
(556,381,cs),
(556,306,ls),
(556,203,o),
(477,145,o),
(384,145,cs),
(291,145,o),
(223,200,o),
(219,282,c),
(579,282,l),
(579,397,l),
(47,397,l),
(45,376,o),
(43,354,o),
(43,335,cs),
(43,118,o),
(181,-12,o),
(387,-12,cs)
);
}
);
width = 776;
},
{
layerId = "90D50F69-F6F7-4633-9462-ED0440D3064F";
shapes = (
{
closed = 1;
nodes = (
(530,-12,o),
(659,118,o),
(659,342,cs),
(659,567,o),
(548,712,o),
(349,712,cs),
(196,712,o),
(108,626,o),
(66,503,c),
(90,503,l),
(133,624,o),
(222,691,o),
(349,691,cs),
(502,691,o),
(635,587,o),
(635,344,cs),
(635,335,ls),
(635,109,o),
(489,10,o),
(346,10,cs),
(188,10,o),
(71,114,o),
(71,328,c),
(644,328,l),
(644,350,l),
(49,350,l),
(48,334,o),
(48,327,o),
(48,311,cs),
(48,142,o),
(141,-12,o),
(345,-12,cs)
);
}
);
width = 707;
}
);
metricLeft = O;
metricRight = O;
unicode = 399;
},
{
glyphname = F;
kernLeft = H;
lastChange = "2023-05-19 14:07:26 +0000";
layers = (
{
layerId = "EB62C368-BB48-47C0-A466-DA94204A0DE4";
shapes = (
{
closed = 1;
nodes = (
(98,0,l),
(98,344,l),
(431,344,l),
(431,362,l),
(98,362,l),
(98,682,l),
(468,682,l),
(468,700,l),
(78,700,l),
(78,0,l)
);
}
);
width = 503;
},
{
layerId = "A6F5E7A4-47EF-4F55-BF18-0ACACB57A720";
shapes = (
{
closed = 1;
nodes = (
(161,0,l),
(161,317,l),
(452,317,l),
(452,385,l),
(161,385,l),
(161,631,l),
(503,631,l),
(503,700,l),
(77,700,l),
(77,0,l)
);
}
);
width = 539;
},
{
layerId = "1615C59E-33DE-4B88-B2CC-A48C7D56A125";
shapes = (
{
closed = 1;
nodes = (
(243,0,l),
(243,284,l),
(477,284,l),
(477,417,l),
(243,417,l),
(243,563,l),
(549,563,l),
(549,700,l),
(72,700,l),
(72,0,l)
);
}
);
width = 584;
},
{
layerId = "2D111E5E-352D-4630-9162-BCEF010D26CF";
shapes = (
{
closed = 1;
nodes = (
(154,0,l),
(154,323,l),
(454,323,l),
(454,380,l),
(154,380,l),
(154,642,l),
(502,642,l),
(502,700,l),
(84,700,l),
(84,0,l)
);
}
);
width = 542;
},
{
layerId = "5D382461-81E1-4DF2-8677-8A6F02AD5363";
shapes = (
{
closed = 1;
nodes = (
(65,0,l),
(65,344,l),
(398,344,l),
(398,362,l),
(65,362,l),
(65,682,l),
(435,682,l),
(435,700,l),
(45,700,l),
(45,0,l)
);
}
);
width = 450;
},
{
layerId = "3B8883BF-F483-4B97-AC7C-CABF8B821093";
shapes = (
{
closed = 1;
nodes = (
(115,0,l),
(115,322,l),
(415,322,l),
(415,380,l),
(115,380,l),
(115,642,l),
(463,642,l),
(463,700,l),
(45,700,l),
(45,0,l)
);
}
);
width = 478;
},
{
layerId = "F5F01D5B-AEA3-4AC3-B3D8-92550D1582D7";
shapes = (
{
closed = 1;
nodes = (
(129,0,l),
(129,317,l),
(420,317,l),
(420,385,l),
(129,385,l),
(129,631,l),
(471,631,l),
(471,700,l),
(45,700,l),
(45,0,l)
);
}
);
width = 486;
},
{
layerId = "A390C1A2-E540-434D-BB9E-4BCEE875BA63";
shapes = (
{
closed = 1;
nodes = (
(216,0,l),
(216,284,l),
(450,284,l),
(450,417,l),
(216,417,l),
(216,563,l),
(522,563,l),
(522,700,l),
(45,700,l),
(45,0,l)
);
}
);
width = 537;
},
{
layerId = "12552169-0282-4A31-82CC-880002E60A2C";
shapes = (
{
closed = 1;
nodes = (
(146,0,l),
(146,322,l),
(446,322,l),
(446,380,l),
(146,380,l),
(146,642,l),
(494,642,l),
(494,700,l),
(76,700,l),
(76,0,l)
);
}
);
width = 529;
},
{
layerId = "44982FF8-7820-4F75-948C-97259056F879";
shapes = (
{
closed = 1;
nodes = (
(158,0,l),
(158,317,l),
(449,317,l),
(449,385,l),
(158,385,l),
(158,631,l),
(500,631,l),
(500,700,l),
(74,700,l),
(74,0,l)
);
}
);
width = 534;
},
{
layerId = "84B0614D-4B2F-419D-B7F2-5B7DD4CAD23C";
shapes = (
{
closed = 1;
nodes = (
(233,0,l),
(233,284,l),
(467,284,l),
(467,417,l),
(233,417,l),
(233,563,l),
(539,563,l),
(539,700,l),
(62,700,l),
(62,0,l)
);
}
);
width = 567;
},
{
layerId = "90D50F69-F6F7-4633-9462-ED0440D3064F";
shapes = (
{
closed = 1;
nodes = (
(96,0,l),
(96,344,l),
(429,344,l),
(429,362,l),
(96,362,l),
(96,682,l),
(466,682,l),
(466,700,l),
(76,700,l),
(76,0,l)
);
}
);
width = 501;
}
);
metricLeft = H;
unicode = 70;
userData = {
com.schriftgestaltung.Glyphs.ColorIndex = 4;
com.typesupply.AccentFactory.yCoordinates = {
bottom = {
name = origin;
type = glyphMetric;
};
top = {
name = capHeight;
type = fontInfo;
};
};
};
},
{
glyphname = G;
kernLeft = O;
kernRight = G;
lastChange = "2023-05-19 14:07:26 +0000";
layers = (
{
anchors = (
{
name = bottom;
pos = (363,0);
},
{
name = top;
pos = (363,700);
}
);
layerId = "EB62C368-BB48-47C0-A466-DA94204A0DE4";
shapes = (
{
closed = 1;
nodes = (
(499,-12,o),
(593,54,o),
(638,188,c),
(638,188,l),
(650,0,l),
(666,0,l),
(666,359,l),
(403,359,l),
(403,341,l),
(644,341,l),
(633,120,o),
(540,8,o),
(361,8,cs),
(188,8,o),
(69,142,o),
(69,353,cs),
(69,566,o),
(196,692,o),
(372,692,cs),
(517,692,o),
(600,618,o),
(631,508,c),
(653,508,l),
(617,640,o),
(518,712,o),
(372,712,cs),
(176,712,o),
(47,567,o),
(47,353,cs),
(47,138,o),
(170,-12,o),
(361,-12,cs)
);
}
);
width = 725;
},
{
anchors = (
{
name = bottom;
pos = (381,0);
},
{
name = top;
pos = (381,700);
}
);
layerId = "A6F5E7A4-47EF-4F55-BF18-0ACACB57A720";
shapes = (
{
closed = 1;
nodes = (
(498,-12,o),
(566,33,o),
(616,115,c),
(616,115,l),
(623,0,l),
(700,0,l),
(700,374,l),
(412,374,l),
(412,308,l),
(614,308,l),
(603,157,o),
(529,63,o),
(380,63,cs),
(235,63,o),
(135,170,o),
(135,349,cs),
(135,527,o),
(234,635,o),
(389,635,cs),
(499,635,o),
(571,582,o),
(590,498,c),
(687,498,l),
(657,632,o),
(546,712,o),
(389,712,cs),
(181,712,o),
(49,563,o),
(49,349,cs),
(49,134,o),
(180,-12,o),
(377,-12,cs)
);
}
);
width = 762;
},
{
anchors = (
{
name = bottom;
pos = (401,0);
},
{
name = top;
pos = (401,700);
}
);
layerId = "1615C59E-33DE-4B88-B2CC-A48C7D56A125";
shapes = (
{
closed = 1;
nodes = (
(470,-12,o),
(530,17,o),
(570,70,c),
(570,70,l),
(583,0,l),
(741,0,l),
(741,396,l),
(419,396,l),
(419,270,l),
(570,270,l),
(556,198,o),
(505,139,o),
(401,139,cs),
(287,139,o),
(222,209,o),
(222,342,cs),
(222,472,o),
(284,554,o),
(408,554,cs),
(476,554,o),
(518,529,o),
(540,482,c),
(728,482,l),
(695,626,o),
(579,712,o),
(409,712,cs),
(183,712,o),
(48,559,o),
(48,343,cs),
(48,129,o),
(180,-12,o),
(380,-12,cs)
);
}
);
width = 802;
},
{
anchors = (
{
name = bottom;
pos = (382,0);
},
{
name = top;
pos = (382,700);
}
);
layerId = "2D111E5E-352D-4630-9162-BCEF010D26CF";
shapes = (
{
closed = 1;
nodes = (
(502,-12,o),
(575,38,o),
(624,131,c),
(624,131,l),
(632,0,l),
(696,0,l),
(696,371,l),
(413,371,l),
(413,315,l),
(624,315,l),
(613,149,o),
(535,51,o),
(379,51,cs),
(228,51,o),
(124,164,o),
(124,350,cs),
(124,536,o),
(229,647,o),
(389,647,cs),
(506,647,o),
(581,590,o),
(602,500,c),
(683,500,l),
(652,634,o),
(543,712,o),
(389,712,cs),
(183,712,o),
(52,564,o),
(52,350,cs),
(52,135,o),
(181,-12,o),
(377,-12,cs)
);
}
);
width = 763;
},
{
anchors = (
{
name = bottom;
pos = (350,0);
},
{
name = top;
pos = (350,700);
}
);
layerId = "5D382461-81E1-4DF2-8677-8A6F02AD5363";
shapes = (
{
closed = 1;
nodes = (
(487,-12,o),
(579,54,o),
(624,188,c),
(628,188,l),
(638,0,l),
(654,0,l),
(654,359,l),
(391,359,l),
(391,341,l),
(632,341,l),
(621,127,o),
(528,8,o),
(349,8,cs),
(176,8,o),
(57,142,o),
(57,353,cs),
(57,566,o),
(184,692,o),
(360,692,cs),
(505,692,o),
(588,618,o),
(619,508,c),
(641,508,l),
(605,640,o),
(506,712,o),
(360,712,cs),
(164,712,o),
(35,567,o),
(35,353,cs),
(35,138,o),
(158,-12,o),
(349,-12,cs)
);
}
);
width = 699;
},
{
anchors = (
{
name = bottom;
pos = (362,0);
},
{
name = top;
pos = (362,700);
}
);
layerId = "3B8883BF-F483-4B97-AC7C-CABF8B821093";
shapes = (
{
closed = 1;
nodes = (
(485,-12,o),
(551,52,o),
(602,137,c),
(606,137,l),
(615,0,l),
(679,0,l),
(679,371,l),
(396,371,l),
(396,314,l),
(607,314,l),
(596,150,o),
(519,51,o),
(362,51,cs),
(212,51,o),
(107,164,o),
(107,350,cs),
(107,536,o),
(212,648,o),
(372,648,cs),
(488,648,o),
(565,590,o),
(584,500,c),
(666,500,l),
(636,633,o),
(526,712,o),
(372,712,cs),
(166,712,o),
(35,564,o),
(35,350,cs),
(35,135,o),
(166,-12,o),
(362,-12,cs)
);
}
);
width = 724;
},
{
anchors = (
{
name = bottom;
pos = (366,0);
},
{
name = top;
pos = (366,700);
}
);
layerId = "F5F01D5B-AEA3-4AC3-B3D8-92550D1582D7";
shapes = (
{
closed = 1;
nodes = (
(465,-12,o),
(543,42,o),
(598,143,c),
(602,143,l),
(612,0,l),
(686,0,l),
(686,374,l),
(398,374,l),
(398,308,l),
(600,308,l),
(589,157,o),
(515,63,o),
(366,63,cs),
(221,63,o),
(121,170,o),
(121,349,cs),
(121,527,o),
(220,635,o),
(375,635,cs),
(485,635,o),
(557,582,o),
(576,498,c),
(673,498,l),
(643,632,o),
(532,712,o),
(375,712,cs),
(167,712,o),
(35,563,o),
(35,349,cs),
(35,134,o),
(161,-12,o),
(355,-12,cs)
);
}
);
width = 731;
},
{
anchors = (
{
name = bottom;
pos = (386,0);
},
{
name = top;
pos = (386,700);
}
);
layerId = "A390C1A2-E540-434D-BB9E-4BCEE875BA63";
shapes = (
{
closed = 1;
nodes = (
(437,-12,o),
(513,28,o),
(553,101,c),
(557,101,l),
(569,0,l),
(727,0,l),
(727,396,l),
(405,396,l),
(405,270,l),
(556,270,l),
(542,198,o),
(491,139,o),
(387,139,cs),
(273,139,o),
(209,209,o),
(209,342,cs),
(209,472,o),
(270,554,o),
(394,554,cs),
(462,554,o),
(504,529,o),
(526,482,c),
(715,482,l),
(682,626,o),
(565,712,o),
(395,712,cs),
(169,712,o),
(35,559,o),
(35,343,cs),
(35,129,o),
(166,-12,o),
(343,-12,cs)
);
}
);
width = 772;
},
{
anchors = (
{
name = bottom;
pos = (376,0);
},
{
name = top;
pos = (376,700);
}
);
layerId = "12552169-0282-4A31-82CC-880002E60A2C";
shapes = (
{
closed = 1;
nodes = (
(501,-12,o),
(570,36,o),
(622,122,c),
(622,122,l),
(628,0,l),
(692,0,l),
(692,371,l),
(409,371,l),
(409,314,l),
(620,314,l),
(609,150,o),
(532,51,o),
(375,51,cs),
(225,51,o),
(120,164,o),
(120,350,cs),
(120,536,o),
(225,648,o),
(385,648,cs),
(501,648,o),
(578,590,o),
(597,500,c),
(679,500,l),
(649,633,o),
(539,712,o),
(385,712,cs),
(179,712,o),
(48,564,o),
(48,350,cs),
(48,135,o),
(179,-12,o),
(375,-12,cs)
);
}
);
width = 752;
},
{
anchors = (
{
name = bottom;
pos = (379,0);
},
{
name = top;
pos = (379,700);
}
);
layerId = "44982FF8-7820-4F75-948C-97259056F879";
shapes = (
{
closed = 1;
nodes = (
(496,-12,o),
(564,33,o),
(614,115,c),
(614,115,l),
(621,0,l),
(698,0,l),
(698,374,l),
(410,374,l),
(410,308,l),
(612,308,l),
(601,157,o),
(527,63,o),
(378,63,cs),
(233,63,o),
(133,170,o),
(133,349,cs),
(133,527,o),
(232,635,o),
(387,635,cs),
(497,635,o),
(569,582,o),
(588,498,c),
(685,498,l),
(655,632,o),
(544,712,o),
(387,712,cs),
(179,712,o),
(47,563,o),
(47,349,cs),
(47,134,o),
(178,-12,o),
(375,-12,cs)
);
}
);
width = 757;
},
{
anchors = (
{
name = bottom;
pos = (394,0);
},
{
name = top;
pos = (394,700);
}
);
layerId = "84B0614D-4B2F-419D-B7F2-5B7DD4CAD23C";
shapes = (
{
closed = 1;
nodes = (
(464,-12,o),
(524,17,o),
(564,70,c),
(564,70,l),
(577,0,l),
(735,0,l),
(735,396,l),
(413,396,l),
(413,270,l),
(564,270,l),
(550,198,o),
(499,139,o),
(395,139,cs),
(281,139,o),
(217,209,o),
(217,342,cs),
(217,472,o),
(278,554,o),
(402,554,cs),
(470,554,o),
(512,529,o),
(534,482,c),
(723,482,l),
(690,626,o),
(573,712,o),
(403,712,cs),
(177,712,o),
(43,559,o),
(43,343,cs),
(43,129,o),
(174,-12,o),
(374,-12,cs)
);
}
);
width = 788;
},
{
anchors = (
{
name = bottom;
pos = (364,0);
},
{
name = top;
pos = (364,700);
}
);
layerId = "90D50F69-F6F7-4633-9462-ED0440D3064F";
shapes = (
{
closed = 1;
nodes = (
(501,-12,o),
(598,60,o),
(643,194,c),
(643,194,l),
(651,0,l),
(667,0,l),
(667,359,l),
(404,359,l),
(404,341,l),
(645,341,l),
(634,127,o),
(541,8,o),
(362,8,cs),
(189,8,o),
(70,142,o),
(70,353,cs),
(70,566,o),
(197,692,o),
(373,692,cs),
(518,692,o),
(601,618,o),
(632,508,c),
(654,508,l),
(618,640,o),
(519,712,o),
(373,712,cs),
(177,712,o),
(48,567,o),
(48,353,cs),
(48,138,o),
(171,-12,o),
(362,-12,cs)
);
}
);
width = 727;
}
);
metricLeft = O;
unicode = 71;
userData = {
com.schriftgestaltung.Glyphs.ColorIndex = 4;
com.typemytype.robofont.layerData = {
b = {
anchors = (
{
name = top;
x = 411;
y = 683;
},
{
name = bottom;
x = 411;
y = 0;
}
);
components = (
);
contours = (
{
points = (
{
segmentType = curve;
smooth = 1;
x = 60;
y = 341;
},
{
smooth = 0;
x = 60;
y = 138;
},
{
smooth = 0;
x = 214;
y = -6;
},
{
segmentType = curve;
smooth = 1;
x = 407;
y = -6;
},
{
smooth = 0;
x = 590;
y = -6;
},
{
smooth = 0;
x = 747;
y = 110;
},
{
segmentType = curve;
smooth = 0;
x = 764;
y = 341;
},
{
segmentType = line;
smooth = 0;
x = 764;
y = 360;
},
{
segmentType = line;
smooth = 0;
x = 381;
y = 360;
},
{
segmentType = line;
smooth = 0;
x = 381;
y = 341;
},
{
segmentType = line;
smooth = 0;
x = 747;
y = 341;
},
{
smooth = 0;
x = 733;
y = 132;
},
{
smooth = 0;
x = 600;
y = 6;
},
{
segmentType = curve;
smooth = 1;
x = 407;
y = 6;
},
{
smooth = 0;
x = 226;
y = 6;
},
{
smooth = 0;
x = 80;
y = 137;
},
{
segmentType = curve;
smooth = 1;
x = 80;
y = 341;
},
{
smooth = 0;
x = 80;
y = 547;
},
{
smooth = 0;
x = 226;
y = 677;
},
{
segmentType = curve;
smooth = 1;
x = 407;
y = 677;
},
{
smooth = 0;
x = 528;
y = 677;
},
{
smooth = 0;
x = 633;
y = 618;
},
{
segmentType = curve;
smooth = 0;
x = 683;
y = 525;
},
{
segmentType = line;
smooth = 0;
x = 709;
y = 525;
},
{
smooth = 0;
x = 648;
y = 637;
},
{
smooth = 0;
x = 537;
y = 690;
},
{
segmentType = curve;
smooth = 1;
x = 407;
y = 690;
},
{
smooth = 0;
x = 214;
y = 690;
},
{
smooth = 0;
x = 60;
y = 546;
}
);
}
);
lib = {
};
name = G;
unicodes = (
);
width = 792;
};
};
com.typesupply.AccentFactory.yCoordinates = {
bottom = {
name = origin;
type = glyphMetric;
};
top = {
name = capHeight;
type = fontInfo;
};
};
};
},
{
glyphname = H;
kernLeft = H;
kernRight = H;
lastChange = "2023-05-19 14:07:26 +0000";
layers = (
{
layerId = "EB62C368-BB48-47C0-A466-DA94204A0DE4";
shapes = (
{
closed = 1;
nodes = (
(554,0,l),
(554,700,l),
(534,700,l),
(534,0,l)
);
},
{
closed = 1;
nodes = (
(98,0,l),
(98,700,l),
(78,700,l),
(78,0,l)
);
},
{
closed = 1;
nodes = (
(550,348,l),
(550,366,l),
(84,366,l),
(84,348,l)
);
}
);
width = 631;
},
{
layerId = "A6F5E7A4-47EF-4F55-BF18-0ACACB57A720";
shapes = (
{
closed = 1;
nodes = (
(608,0,l),
(608,700,l),
(524,700,l),
(524,0,l)
);
},
{
closed = 1;
nodes = (
(161,0,l),
(161,700,l),
(77,700,l),
(77,0,l)
);
},
{
closed = 1;
nodes = (
(545,322,l),
(545,391,l),
(145,391,l),
(145,322,l)
);
}
);
width = 685;
},
{
layerId = "1615C59E-33DE-4B88-B2CC-A48C7D56A125";
shapes = (
{
closed = 1;
nodes = (
(680,0,l),
(680,700,l),
(509,700,l),
(509,0,l)
);
},
{
closed = 1;
nodes = (
(243,0,l),
(243,700,l),
(72,700,l),
(72,0,l)
);
},
{
closed = 1;
nodes = (
(533,289,l),
(533,427,l),
(223,427,l),
(223,289,l)
);
}
);
width = 752;
},
{
layerId = "2D111E5E-352D-4630-9162-BCEF010D26CF";
shapes = (
{
closed = 1;
nodes = (
(603,0,l),
(603,700,l),
(533,700,l),
(533,0,l)
);
},
{
closed = 1;
nodes = (
(154,0,l),
(154,700,l),
(84,700,l),
(84,0,l)
);
},
{
closed = 1;
nodes = (
(553,328,l),
(553,386,l),
(138,386,l),
(138,328,l)
);
}
);
width = 687;
},
{
layerId = "5D382461-81E1-4DF2-8677-8A6F02AD5363";
shapes = (
{
closed = 1;
nodes = (
(521,0,l),
(521,700,l),
(501,700,l),
(501,0,l)
);
},
{
closed = 1;
nodes = (
(65,0,l),
(65,700,l),
(45,700,l),
(45,0,l)
);
},
{
closed = 1;
nodes = (
(517,348,l),
(517,366,l),
(51,366,l),
(51,348,l)
);
}
);
width = 566;
},
{
layerId = "3B8883BF-F483-4B97-AC7C-CABF8B821093";
shapes = (
{
closed = 1;
nodes = (
(564,0,l),
(564,700,l),
(494,700,l),
(494,0,l)
);
},
{
closed = 1;
nodes = (
(115,0,l),
(115,700,l),
(45,700,l),
(45,0,l)
);
},
{
closed = 1;
nodes = (
(514,328,l),
(514,386,l),
(99,386,l),
(99,328,l)
);
}
);
width = 609;
},
{
layerId = "F5F01D5B-AEA3-4AC3-B3D8-92550D1582D7";
shapes = (
{
closed = 1;
nodes = (
(576,0,l),
(576,700,l),
(492,700,l),
(492,0,l)
);
},
{
closed = 1;
nodes = (
(129,0,l),
(129,700,l),
(45,700,l),
(45,0,l)
);
},
{
closed = 1;
nodes = (
(513,322,l),
(513,391,l),
(113,391,l),
(113,322,l)
);
}
);
width = 621;
},
{
layerId = "A390C1A2-E540-434D-BB9E-4BCEE875BA63";
shapes = (
{
closed = 1;
nodes = (
(653,0,l),
(653,700,l),
(482,700,l),
(482,0,l)
);
},
{
closed = 1;
nodes = (
(216,0,l),
(216,700,l),
(45,700,l),
(45,0,l)
);
},
{
closed = 1;
nodes = (
(506,289,l),
(506,427,l),
(196,427,l),
(196,289,l)
);
}
);
width = 698;
},
{
layerId = "12552169-0282-4A31-82CC-880002E60A2C";
shapes = (
{
closed = 1;
nodes = (
(595,0,l),
(595,700,l),
(525,700,l),
(525,0,l)
);
},
{
closed = 1;
nodes = (
(146,0,l),
(146,700,l),
(76,700,l),
(76,0,l)
);
},
{
closed = 1;
nodes = (
(545,327,l),
(545,385,l),
(130,385,l),
(130,327,l)
);
}
);
width = 671;
},
{
layerId = "44982FF8-7820-4F75-948C-97259056F879";
shapes = (
{
closed = 1;
nodes = (
(605,0,l),
(605,700,l),
(521,700,l),
(521,0,l)
);
},
{
closed = 1;
nodes = (
(158,0,l),
(158,700,l),
(74,700,l),
(74,0,l)
);
},
{
closed = 1;
nodes = (
(542,322,l),
(542,391,l),
(142,391,l),
(142,322,l)
);
}
);
width = 679;
},
{
layerId = "84B0614D-4B2F-419D-B7F2-5B7DD4CAD23C";
shapes = (
{
closed = 1;
nodes = (
(670,0,l),
(670,700,l),
(499,700,l),
(499,0,l)
);
},
{
closed = 1;
nodes = (
(233,0,l),
(233,700,l),
(62,700,l),
(62,0,l)
);
},
{
closed = 1;
nodes = (
(523,289,l),
(523,427,l),
(213,427,l),
(213,289,l)
);
}
);
width = 732;
},
{
layerId = "90D50F69-F6F7-4633-9462-ED0440D3064F";
shapes = (
{
closed = 1;
nodes = (
(552,0,l),
(552,700,l),
(532,700,l),
(532,0,l)
);
},
{
closed = 1;
nodes = (
(96,0,l),
(96,700,l),
(76,700,l),
(76,0,l)
);
},
{
closed = 1;
nodes = (
(548,348,l),
(548,366,l),
(82,366,l),
(82,348,l)
);
}
);
width = 628;
}
);
unicode = 72;
userData = {
com.schriftgestaltung.Glyphs.ColorIndex = 4;
com.typesupply.AccentFactory.yCoordinates = {
bottom = {
name = origin;
type = glyphMetric;
};
top = {
name = capHeight;
type = fontInfo;
};
};
};
},
{
glyphname = Hbar;
lastChange = "2023-05-19 14:07:26 +0000";
layers = (
{
layerId = "EB62C368-BB48-47C0-A466-DA94204A0DE4";
shapes = (
{
closed = 1;
nodes = (
(651,524,l),
(651,542,l),
(50,542,l),
(50,524,l)
);
},
{
pos = (34,0);
ref = H;
}
);
width = 701;
},
{
layerId = "2D111E5E-352D-4630-9162-BCEF010D26CF";
shapes = (
{
closed = 1;
nodes = (
(694,500,l),
(694,565,l),
(35,565,l),
(35,500,l)
);
},
{
pos = (21,0);
ref = H;
}
);
width = 729;
},
{
layerId = "A6F5E7A4-47EF-4F55-BF18-0ACACB57A720";
shapes = (
{
closed = 1;
nodes = (
(709,495,l),
(709,571,l),
(40,571,l),
(40,495,l)
);
},
{
pos = (32,0);
ref = H;
}
);
width = 749;
},
{
layerId = "1615C59E-33DE-4B88-B2CC-A48C7D56A125";
shapes = (
{
closed = 1;
nodes = (
(769,492,l),
(769,622,l),
(20,622,l),
(20,492,l)
);
},
{
pos = (19,0);
ref = H;
}
);
width = 789;
},
{
layerId = "90D50F69-F6F7-4633-9462-ED0440D3064F";
shapes = (
{
closed = 1;
nodes = (
(651,524,l),
(651,542,l),
(50,542,l),
(50,524,l)
);
},
{
pos = (37,0);
ref = H;
}
);
width = 701;
},
{
layerId = "12552169-0282-4A31-82CC-880002E60A2C";
shapes = (
{
closed = 1;
nodes = (
(694,500,l),
(694,565,l),
(35,565,l),
(35,500,l)
);
},
{
pos = (29,0);
ref = H;
}
);
width = 729;
},
{
layerId = "44982FF8-7820-4F75-948C-97259056F879";
shapes = (
{
closed = 1;
nodes = (
(709,495,l),
(709,571,l),
(40,571,l),
(40,495,l)
);
},
{
pos = (35,0);
ref = H;
}
);
width = 749;
},
{
layerId = "84B0614D-4B2F-419D-B7F2-5B7DD4CAD23C";
shapes = (
{
closed = 1;
nodes = (
(769,492,l),
(769,622,l),
(20,622,l),
(20,492,l)
);
},
{
pos = (29,0);
ref = H;
}
);
width = 789;
},
{
layerId = "5D382461-81E1-4DF2-8677-8A6F02AD5363";
shapes = (
{
closed = 1;
nodes = (
(611,524,l),
(611,542,l),
(10,542,l),
(10,524,l)
);
},
{
pos = (28,0);
ref = H;
}
);
width = 621;
},
{
layerId = "3B8883BF-F483-4B97-AC7C-CABF8B821093";
shapes = (
{
closed = 1;
nodes = (
(669,500,l),
(669,565,l),
(10,565,l),
(10,500,l)
);
},
{
pos = (35,0);
ref = H;
}
);
width = 679;
},
{
layerId = "F5F01D5B-AEA3-4AC3-B3D8-92550D1582D7";
shapes = (
{
closed = 1;
nodes = (
(709,495,l),
(709,571,l),
(40,571,l),
(40,495,l)
);
},
{
pos = (64,0);
ref = H;
}
);
width = 749;
},
{
layerId = "A390C1A2-E540-434D-BB9E-4BCEE875BA63";
shapes = (
{
closed = 1;
nodes = (
(749,492,l),
(749,622,l),
(20,622,l),
(20,492,l)
);
},
{
pos = (36,0);
ref = H;
}
);
width = 769;
}
);
unicode = 294;
},
{
glyphname = I;
kernLeft = H;
kernRight = H;
lastChange = "2023-05-19 14:07:26 +0000";
layers = (
{
anchors = (
{
name = ogonek;
pos = (98,0);
},
{
name = top;
pos = (88,700);
}
);
layerId = "EB62C368-BB48-47C0-A466-DA94204A0DE4";
shapes = (
{
closed = 1;
nodes = (
(98,0,l),
(98,700,l),
(78,700,l),
(78,0,l)
);
}
);
width = 175;
},
{
anchors = (
{
name = ogonek;
pos = (161,1);
},
{
name = top;
pos = (119,700);
}
);
layerId = "A6F5E7A4-47EF-4F55-BF18-0ACACB57A720";
shapes = (
{
closed = 1;
nodes = (
(161,0,l),
(161,700,l),
(77,700,l),
(77,0,l)
);
}
);
width = 238;
},
{
anchors = (
{
name = ogonek;
pos = (243,0);
},
{
name = top;
pos = (158,700);
}
);
layerId = "1615C59E-33DE-4B88-B2CC-A48C7D56A125";
shapes = (
{
closed = 1;
nodes = (
(243,0,l),
(243,700,l),
(72,700,l),
(72,0,l)
);
}
);
width = 315;
},
{
anchors = (
{
name = ogonek;
pos = (154,1);
},
{
name = top;
pos = (119,700);
}
);
layerId = "2D111E5E-352D-4630-9162-BCEF010D26CF";
shapes = (
{
closed = 1;
nodes = (
(154,0,l),
(154,700,l),
(84,700,l),
(84,0,l)
);
}
);
width = 238;
},
{
anchors = (
{
name = ogonek;
pos = (65,0);
},
{
name = top;
pos = (55,700);
}
);
layerId = "5D382461-81E1-4DF2-8677-8A6F02AD5363";
shapes = (
{
closed = 1;
nodes = (
(65,0,l),
(65,700,l),
(45,700,l),
(45,0,l)
);
}
);
width = 110;
},
{
anchors = (
{
name = ogonek;
pos = (115,0);
},
{
name = top;
pos = (80,700);
}
);
layerId = "3B8883BF-F483-4B97-AC7C-CABF8B821093";
shapes = (
{
closed = 1;
nodes = (
(115,0,l),
(115,700,l),
(45,700,l),
(45,0,l)
);
}
);
width = 160;
},
{
anchors = (
{
name = ogonek;
pos = (129,0);
},
{
name = top;
pos = (87,700);
}
);
layerId = "F5F01D5B-AEA3-4AC3-B3D8-92550D1582D7";
shapes = (
{
closed = 1;
nodes = (
(129,0,l),
(129,700,l),
(45,700,l),
(45,0,l)
);
}
);
width = 174;
},
{
anchors = (
{
name = ogonek;
pos = (216,0);
},
{
name = top;
pos = (131,700);
}
);
layerId = "A390C1A2-E540-434D-BB9E-4BCEE875BA63";
shapes = (
{
closed = 1;
nodes = (
(216,0,l),
(216,700,l),
(45,700,l),
(45,0,l)
);
}
);
width = 261;
},
{
anchors = (
{
name = ogonek;
pos = (146,1);
},
{
name = top;
pos = (111,700);
}
);
layerId = "12552169-0282-4A31-82CC-880002E60A2C";
shapes = (
{
closed = 1;
nodes = (
(146,0,l),
(146,700,l),
(76,700,l),
(76,0,l)
);
}
);
width = 222;
},
{
anchors = (
{
name = ogonek;
pos = (158,1);
},
{
name = top;
pos = (116,700);
}
);
layerId = "44982FF8-7820-4F75-948C-97259056F879";
shapes = (
{
closed = 1;
nodes = (
(158,0,l),
(158,700,l),
(74,700,l),
(74,0,l)
);
}
);
width = 232;
},
{
anchors = (
{
name = ogonek;
pos = (233,0);
},
{
name = top;
pos = (148,700);
}
);
layerId = "84B0614D-4B2F-419D-B7F2-5B7DD4CAD23C";
shapes = (
{
closed = 1;
nodes = (
(233,0,l),
(233,700,l),
(62,700,l),
(62,0,l)
);
}
);
width = 295;
},
{
anchors = (
{
name = ogonek;
pos = (96,0);
},
{
name = top;
pos = (86,700);
}
);
layerId = "90D50F69-F6F7-4633-9462-ED0440D3064F";
shapes = (
{
closed = 1;
nodes = (
(96,0,l),
(96,700,l),
(76,700,l),
(76,0,l)
);
}
);
width = 172;
}
);
metricLeft = H;
metricRight = H;
unicode = 73;
userData = {
com.schriftgestaltung.Glyphs.ColorIndex = 4;
com.typemytype.robofont.guides = (
{
angle = 0;
isGlobal = 0;
magnetic = 5;
x = 83;
y = 684;
}
);
com.typesupply.AccentFactory.yCoordinates = {
bottom = {
name = origin;
type = glyphMetric;
};
top = {
name = capHeight;
type = fontInfo;
};
};
};
},
{
glyphname = J;
lastChange = "2023-05-24 14:50:53 +0000";
layers = (
{
layerId = "EB62C368-BB48-47C0-A466-DA94204A0DE4";
shapes = (
{
closed = 1;
nodes = (
(307,-12,o),
(367,46,o),
(367,162,cs),
(367,700,l),
(347,700,l),
(347,162,ls),
(347,79,o),
(314,8,o),
(198,8,cs),
(80,8,o),
(48,79,o),
(45,156,c),
(24,156,l),
(24,54,o),
(84,-12,o),
(195,-12,cs)
);
}
);
width = 444;
},
{
layerId = "A6F5E7A4-47EF-4F55-BF18-0ACACB57A720";
shapes = (
{
closed = 1;
nodes = (
(357,-12,o),
(430,60,o),
(430,185,cs),
(430,700,l),
(346,700,l),
(346,185,ls),
(346,115,o),
(318,63,o),
(234,63,cs),
(148,63,o),
(117,117,o),
(117,188,c),
(32,188,l),
(32,63,o),
(109,-12,o),
(235,-12,cs)
);
}
);
width = 507;
},
{
layerId = "1615C59E-33DE-4B88-B2CC-A48C7D56A125";
shapes = (
{
closed = 1;
nodes = (
(422,-12,o),
(514,68,o),
(514,219,cs),
(514,700,l),
(343,700,l),
(343,219,ls),
(343,167,o),
(319,141,o),
(278,141,cs),
(234,141,o),
(208,170,o),
(208,230,c),
(38,230,l),
(38,72,o),
(139,-12,o),
(283,-12,cs)
);
}
);
width = 586;
},
{
layerId = "2D111E5E-352D-4630-9162-BCEF010D26CF";
shapes = (
{
closed = 1;
nodes = (
(353,-12,o),
(423,57,o),
(423,180,cs),
(423,700,l),
(353,700,l),
(353,180,ls),
(353,107,o),
(324,51,o),
(233,51,cs),
(140,51,o),
(109,109,o),
(108,181,c),
(37,181,l),
(37,61,o),
(110,-12,o),
(233,-12,cs)
);
}
);
width = 507;
},
{
layerId = "5D382461-81E1-4DF2-8677-8A6F02AD5363";
shapes = (
{
closed = 1;
nodes = (
(303,-12,o),
(363,46,o),
(363,162,cs),
(363,700,l),
(343,700,l),
(343,162,ls),
(343,79,o),
(310,8,o),
(194,8,cs),
(76,8,o),
(44,79,o),
(41,156,c),
(20,156,l),
(20,54,o),
(80,-12,o),
(191,-12,cs)
);
}
);
width = 408;
},
{
layerId = "3B8883BF-F483-4B97-AC7C-CABF8B821093";
shapes = (
{
closed = 1;
nodes = (
(336,-12,o),
(406,59,o),
(406,180,cs),
(406,700,l),
(336,700,l),
(336,180,ls),
(336,107,o),
(307,50,o),
(216,50,cs),
(123,50,o),
(92,109,o),
(91,181,c),
(20,181,l),
(20,61,o),
(93,-12,o),
(216,-12,cs)
);
}
);
width = 451;
},
{
layerId = "F5F01D5B-AEA3-4AC3-B3D8-92550D1582D7";
shapes = (
{
closed = 1;
nodes = (
(345,-12,o),
(418,60,o),
(418,185,cs),
(418,700,l),
(334,700,l),
(334,185,ls),
(334,115,o),
(306,63,o),
(222,63,cs),
(136,63,o),
(105,117,o),
(105,188,c),
(20,188,l),
(20,63,o),
(97,-12,o),
(223,-12,cs)
);
}
);
width = 463;
},
{
layerId = "A390C1A2-E540-434D-BB9E-4BCEE875BA63";
shapes = (
{
closed = 1;
nodes = (
(404,-12,o),
(496,68,o),
(496,219,cs),
(496,700,l),
(325,700,l),
(325,219,ls),
(325,167,o),
(301,141,o),
(260,141,cs),
(216,141,o),
(190,170,o),
(190,230,c),
(20,230,l),
(20,72,o),
(121,-12,o),
(265,-12,cs)
);
}
);
width = 541;
},
{
layerId = "12552169-0282-4A31-82CC-880002E60A2C";
shapes = (
{
closed = 1;
nodes = (
(343,-12,o),
(413,59,o),
(413,180,cs),
(413,700,l),
(343,700,l),
(343,180,ls),
(343,107,o),
(314,50,o),
(223,50,cs),
(130,50,o),
(99,109,o),
(98,181,c),
(27,181,l),
(27,61,o),
(100,-12,o),
(223,-12,cs)
);
}
);
width = 489;
},
{
layerId = "44982FF8-7820-4F75-948C-97259056F879";
shapes = (
{
closed = 1;
nodes = (
(352,-12,o),
(425,60,o),
(425,185,cs),
(425,700,l),
(341,700,l),
(341,185,ls),
(341,115,o),
(313,63,o),
(229,63,cs),
(143,63,o),
(112,117,o),
(112,188,c),
(27,188,l),
(27,63,o),
(104,-12,o),
(230,-12,cs)
);
}
);
width = 499;
},
{
layerId = "84B0614D-4B2F-419D-B7F2-5B7DD4CAD23C";
shapes = (
{
closed = 1;
nodes = (
(410,-12,o),
(502,68,o),
(502,219,cs),
(502,700,l),
(331,700,l),
(331,219,ls),
(331,167,o),
(307,141,o),
(266,141,cs),
(222,141,o),
(196,170,o),
(196,230,c),
(26,230,l),
(26,72,o),
(127,-12,o),
(271,-12,cs)
);
}
);
width = 564;
},
{
layerId = "90D50F69-F6F7-4633-9462-ED0440D3064F";
shapes = (
{
closed = 1;
nodes = (
(310,-12,o),
(370,46,o),
(370,162,cs),
(370,700,l),
(350,700,l),
(350,162,ls),
(350,79,o),
(317,8,o),
(201,8,cs),
(83,8,o),
(51,79,o),
(48,156,c),
(27,156,l),
(27,54,o),
(87,-12,o),
(198,-12,cs)
);
}
);
width = 446;
}
);
metricRight = H;
unicode = 74;
userData = {
com.schriftgestaltung.Glyphs.ColorIndex = 4;
com.typesupply.AccentFactory.yCoordinates = {
bottom = {
name = origin;
type = glyphMetric;
};
top = {
name = capHeight;
type = fontInfo;
};
};
};
},
{
glyphname = K;
kernLeft = H;
kernRight = K;
lastChange = "2023-05-19 14:07:26 +0000";
layers = (
{
anchors = (
{
name = bottom;
pos = (248,0);
},
{
name = top;
pos = (248,700);
}
);
layerId = "EB62C368-BB48-47C0-A466-DA94204A0DE4";
shapes = (
{
closed = 1;
nodes = (
(98,0,l),
(98,305,l),
(190,403,l),
(445,0,l),
(468,0,l),
(205,419,l),
(469,700,l),
(438,700,l),
(98,333,l),
(98,700,l),
(78,700,l),
(78,0,l)
);
}
);
width = 489;
},
{
anchors = (
{
name = bottom;
pos = (296,0);
},
{
name = top;
pos = (296,700);
}
);
layerId = "A6F5E7A4-47EF-4F55-BF18-0ACACB57A720";
shapes = (
{
closed = 1;
nodes = (
(161,0,l),
(161,273,l),
(239,356,l),
(461,0,l),
(563,0,l),
(299,421,l),
(559,700,l),
(453,700,l),
(161,383,l),
(161,700,l),
(77,700,l),
(77,0,l)
);
}
);
width = 590;
},
{
anchors = (
{
name = bottom;
pos = (357,0);
},
{
name = top;
pos = (357,700);
}
);
layerId = "1615C59E-33DE-4B88-B2CC-A48C7D56A125";
shapes = (
{
closed = 1;
nodes = (
(243,0,l),
(243,230,l),
(300,292,l),
(479,0,l),
(688,0,l),
(422,424,l),
(678,700,l),
(469,700,l),
(243,451,l),
(243,700,l),
(72,700,l),
(72,0,l)
);
}
);
width = 717;
},
{
anchors = (
{
name = bottom;
pos = (292,0);
},
{
name = top;
pos = (292,700);
}
);
layerId = "2D111E5E-352D-4630-9162-BCEF010D26CF";
shapes = (
{
closed = 1;
nodes = (
(154,0,l),
(154,280,l),
(235,366,l),
(464,0,l),
(549,0,l),
(285,421,l),
(546,700,l),
(456,700,l),
(154,372,l),
(154,700,l),
(84,700,l),
(84,0,l)
);
}
);
width = 579;
},
{
anchors = (
{
name = bottom;
pos = (221,0);
},
{
name = top;
pos = (221,700);
}
);
layerId = "5D382461-81E1-4DF2-8677-8A6F02AD5363";
shapes = (
{
closed = 1;
nodes = (
(65,0,l),
(65,339,l),
(65,339,l),
(405,0,l),
(436,0,l),
(81,351,l),
(432,700,l),
(404,700,l),
(65,362,l),
(65,700,l),
(45,700,l),
(45,0,l)
);
}
);
width = 441;
},
{
anchors = (
{
name = bottom;
pos = (258,0);
},
{
name = top;
pos = (258,700);
}
);
layerId = "3B8883BF-F483-4B97-AC7C-CABF8B821093";
shapes = (
{
closed = 1;
nodes = (
(115,0,l),
(115,339,l),
(115,339,l),
(421,0,l),
(511,0,l),
(186,361,l),
(503,700,l),
(418,700,l),
(115,372,l),
(115,700,l),
(45,700,l),
(45,0,l)
);
}
);
width = 516;
},
{
anchors = (
{
name = bottom;
pos = (268,0);
},
{
name = top;
pos = (268,700);
}
);
layerId = "F5F01D5B-AEA3-4AC3-B3D8-92550D1582D7";
shapes = (
{
closed = 1;
nodes = (
(129,0,l),
(129,324,l),
(129,324,l),
(424,0,l),
(531,0,l),
(204,361,l),
(527,700,l),
(421,700,l),
(129,390,l),
(129,700,l),
(45,700,l),
(45,0,l)
);
}
);
width = 536;
},
{
anchors = (
{
name = bottom;
pos = (333,0);
},
{
name = top;
pos = (333,700);
}
);
layerId = "A390C1A2-E540-434D-BB9E-4BCEE875BA63";
shapes = (
{
closed = 1;
nodes = (
(216,0,l),
(216,314,l),
(216,314,l),
(452,0,l),
(661,0,l),
(367,394,l),
(651,700,l),
(442,700,l),
(216,451,l),
(216,700,l),
(45,700,l),
(45,0,l)
);
}
);
width = 666;
},
{
anchors = (
{
name = bottom;
pos = (284,0);
},
{
name = top;
pos = (284,700);
}
);
layerId = "12552169-0282-4A31-82CC-880002E60A2C";
shapes = (
{
closed = 1;
nodes = (
(146,0,l),
(146,280,l),
(227,366,l),
(456,0,l),
(541,0,l),
(277,420,l),
(538,700,l),
(449,700,l),
(146,372,l),
(146,700,l),
(76,700,l),
(76,0,l)
);
}
);
width = 564;
},
{
anchors = (
{
name = bottom;
pos = (293,0);
},
{
name = top;
pos = (293,700);
}
);
layerId = "44982FF8-7820-4F75-948C-97259056F879";
shapes = (
{
closed = 1;
nodes = (
(158,0,l),
(158,273,l),
(236,356,l),
(458,0,l),
(560,0,l),
(296,421,l),
(556,700,l),
(450,700,l),
(158,383,l),
(158,700,l),
(74,700,l),
(74,0,l)
);
}
);
width = 582;
},
{
anchors = (
{
name = bottom;
pos = (347,0);
},
{
name = top;
pos = (347,700);
}
);
layerId = "84B0614D-4B2F-419D-B7F2-5B7DD4CAD23C";
shapes = (
{
closed = 1;
nodes = (
(233,0,l),
(233,230,l),
(290,292,l),
(469,0,l),
(678,0,l),
(412,424,l),
(668,700,l),
(459,700,l),
(233,451,l),
(233,700,l),
(62,700,l),
(62,0,l)
);
}
);
width = 697;
},
{
anchors = (
{
name = bottom;
pos = (252,0);
},
{
name = top;
pos = (252,700);
}
);
layerId = "90D50F69-F6F7-4633-9462-ED0440D3064F";
shapes = (
{
closed = 1;
nodes = (
(96,0,l),
(96,339,l),
(96,339,l),
(436,0,l),
(467,0,l),
(112,351,l),
(463,700,l),
(435,700,l),
(96,362,l),
(96,700,l),
(76,700,l),
(76,0,l)
);
}
);
width = 490;
}
);
metricLeft = H;
unicode = 75;
userData = {
com.schriftgestaltung.Glyphs.ColorIndex = 4;
com.typesupply.AccentFactory.yCoordinates = {
bottom = {
name = origin;
type = glyphMetric;
};
top = {
name = capHeight;
type = fontInfo;
};
};
};
},
{
glyphname = L;
kernLeft = H;
kernRight = L;
lastChange = "2023-05-19 14:07:26 +0000";
layers = (
{
anchors = (
{
name = bottom;
pos = (267,0);
},
{
name = center;
pos = (267,350);
},
{
name = commaaccent;
pos = (267,-6);
},
{
name = top;
pos = (88,700);
},
{
name = topright;
pos = (180,518);
}
);
layerId = "EB62C368-BB48-47C0-A466-DA94204A0DE4";
shapes = (
{
closed = 1;
nodes = (
(447,0,l),
(447,18,l),
(98,18,l),
(98,700,l),
(78,700,l),
(78,0,l)
);
}
);
width = 480;
},
{
anchors = (
{
name = bottom;
pos = (299,0);
},
{
name = center;
pos = (286,350);
},
{
name = commaaccent;
pos = (299,1);
},
{
name = top;
pos = (121,700);
},
{
name = topright;
pos = (243,518);
}
);
layerId = "A6F5E7A4-47EF-4F55-BF18-0ACACB57A720";
shapes = (
{
closed = 1;
nodes = (
(487,0,l),
(487,67,l),
(161,67,l),
(161,700,l),
(77,700,l),
(77,0,l)
);
}
);
width = 531;
},
{
anchors = (
{
name = bottom;
pos = (337.005,0);
},
{
name = center;
pos = (299,350);
},
{
name = commaaccent;
pos = (337,10);
},
{
name = top;
pos = (168,700);
},
{
name = topright;
pos = (325,518);
}
);
layerId = "1615C59E-33DE-4B88-B2CC-A48C7D56A125";
shapes = (
{
closed = 1;
nodes = (
(537,0,l),
(537,132,l),
(243,132,l),
(243,700,l),
(72,700,l),
(72,0,l)
);
}
);
width = 593;
},
{
anchors = (
{
name = bottom;
pos = (299,0);
},
{
name = center;
pos = (288,350);
},
{
name = commaaccent;
pos = (299,-1);
},
{
name = top;
pos = (124,700);
},
{
name = topright;
pos = (236,518);
}
);
layerId = "2D111E5E-352D-4630-9162-BCEF010D26CF";
shapes = (
{
closed = 1;
nodes = (
(485,0,l),
(485,56,l),
(154,56,l),
(154,700,l),
(84,700,l),
(84,0,l)
);
}
);
width = 530;
},
{
anchors = (
{
name = bottom;
pos = (233,0);
},
{
name = center;
pos = (233,350);
},
{
name = commaaccent;
pos = (233,-6);
},
{
name = top;
pos = (55,700);
},
{
name = topright;
pos = (147,518);
}
);
layerId = "5D382461-81E1-4DF2-8677-8A6F02AD5363";
shapes = (
{
closed = 1;
nodes = (
(414,0,l),
(414,18,l),
(65,18,l),
(65,700,l),
(45,700,l),
(45,0,l)
);
}
);
width = 429;
},
{
anchors = (
{
name = bottom;
pos = (260,0);
},
{
name = center;
pos = (260,350);
},
{
name = commaaccent;
pos = (260,-6);
},
{
name = top;
pos = (81,700);
},
{
name = topright;
pos = (197,518);
}
);
layerId = "3B8883BF-F483-4B97-AC7C-CABF8B821093";
shapes = (
{
closed = 1;
nodes = (
(446,0,l),
(446,57,l),
(115,57,l),
(115,700,l),
(45,700,l),
(45,0,l)
);
}
);
width = 461;
},
{
anchors = (
{
name = bottom;
pos = (267,0);
},
{
name = center;
pos = (267,350);
},
{
name = commaaccent;
pos = (267,-6);
},
{
name = top;
pos = (88,700);
},
{
name = topright;
pos = (211,518);
}
);
layerId = "F5F01D5B-AEA3-4AC3-B3D8-92550D1582D7";
shapes = (
{
closed = 1;
nodes = (
(455,0,l),
(455,67,l),
(129,67,l),
(129,700,l),
(45,700,l),
(45,0,l)
);
}
);
width = 470;
},
{
anchors = (
{
name = bottom;
pos = (311,0);
},
{
name = center;
pos = (311,350);
},
{
name = commaaccent;
pos = (311,-6);
},
{
name = top;
pos = (132,700);
},
{
name = topright;
pos = (298,518);
}
);
guides = (
{
pos = (183,350);
}
);
layerId = "A390C1A2-E540-434D-BB9E-4BCEE875BA63";
shapes = (
{
closed = 1;
nodes = (
(510,0,l),
(510,132,l),
(216,132,l),
(216,700,l),
(45,700,l),
(45,0,l)
);
}
);
width = 525;
},
{
anchors = (
{
name = bottom;
pos = (291,0);
},
{
name = center;
pos = (282,350);
},
{
name = commaaccent;
pos = (291,0);
},
{
name = top;
pos = (113,700);
},
{
name = topright;
pos = (228,518);
}
);
layerId = "12552169-0282-4A31-82CC-880002E60A2C";
shapes = (
{
closed = 1;
nodes = (
(477,0,l),
(477,57,l),
(146,57,l),
(146,700,l),
(76,700,l),
(76,0,l)
);
}
);
width = 517;
},
{
anchors = (
{
name = bottom;
pos = (295.99,0);
},
{
name = center;
pos = (283,350);
},
{
name = commaaccent;
pos = (296,1);
},
{
name = top;
pos = (123,700);
},
{
name = topright;
pos = (240,518);
}
);
layerId = "44982FF8-7820-4F75-948C-97259056F879";
shapes = (
{
closed = 1;
nodes = (
(484,0,l),
(484,67,l),
(158,67,l),
(158,700,l),
(74,700,l),
(74,0,l)
);
}
);
width = 525;
},
{
anchors = (
{
name = bottom;
pos = (327,0);
},
{
name = center;
pos = (289,350);
},
{
name = commaaccent;
pos = (327,10);
},
{
name = top;
pos = (152,700);
},
{
name = topright;
pos = (315,518);
}
);
guides = (
{
pos = (200,350);
}
);
layerId = "84B0614D-4B2F-419D-B7F2-5B7DD4CAD23C";
shapes = (
{
closed = 1;
nodes = (
(527,0,l),
(527,132,l),
(233,132,l),
(233,700,l),
(62,700,l),
(62,0,l)
);
}
);
width = 577;
},
{
anchors = (
{
name = bottom;
pos = (264,0);
},
{
name = center;
pos = (264,350);
},
{
name = commaaccent;
pos = (264,-6);
},
{
name = top;
pos = (86,700);
},
{
name = topright;
pos = (178,518);
}
);
layerId = "90D50F69-F6F7-4633-9462-ED0440D3064F";
shapes = (
{
closed = 1;
nodes = (
(445,0,l),
(445,18,l),
(96,18,l),
(96,700,l),
(76,700,l),
(76,0,l)
);
}
);
width = 485;
}
);
metricLeft = H;
unicode = 76;
userData = {
com.schriftgestaltung.Glyphs.ColorIndex = 4;
com.typesupply.AccentFactory.yCoordinates = {
bottom = {
name = origin;
type = glyphMetric;
};
top = {
name = capHeight;
type = fontInfo;
};
};
};
},
{
glyphname = Lslash;
kernRight = L;
lastChange = "2023-05-19 14:07:26 +0000";
layers = (
{
layerId = "EB62C368-BB48-47C0-A466-DA94204A0DE4";
shapes = (
{
closed = 1;
nodes = (
(282,415,l),
(282,435,l),
(20,317,l),
(20,298,l)
);
},
{
alignment = -1;
pos = (28,0);
ref = L;
}
);
width = 508;
},
{
layerId = "A6F5E7A4-47EF-4F55-BF18-0ACACB57A720";
shapes = (
{
closed = 1;
nodes = (
(306,392,l),
(306,459,l),
(20,351,l),
(20,284,l)
);
},
{
alignment = -1;
pos = (26,0);
ref = L;
}
);
width = 557;
},
{
layerId = "1615C59E-33DE-4B88-B2CC-A48C7D56A125";
shapes = (
{
closed = 1;
nodes = (
(357,348,l),
(357,492,l),
(38,397,l),
(38,253,l)
);
},
{
alignment = -1;
pos = (23,0);
ref = L;
}
);
width = 616;
},
{
layerId = "2D111E5E-352D-4630-9162-BCEF010D26CF";
shapes = (
{
closed = 1;
nodes = (
(301,399,l),
(301,454,l),
(20,344,l),
(20,289,l)
);
},
{
alignment = -1;
pos = (26,0);
ref = L;
}
);
width = 556;
},
{
layerId = "5D382461-81E1-4DF2-8677-8A6F02AD5363";
shapes = (
{
closed = 1;
nodes = (
(282,415,l),
(282,435,l),
(20,317,l),
(20,298,l)
);
},
{
alignment = -1;
pos = (28,0);
ref = L;
}
);
width = 457;
},
{
layerId = "3B8883BF-F483-4B97-AC7C-CABF8B821093";
shapes = (
{
closed = 1;
nodes = (
(301,399,l),
(301,454,l),
(20,344,l),
(20,289,l)
);
},
{
alignment = -1;
pos = (26,0);
ref = L;
}
);
width = 487;
},
{
layerId = "F5F01D5B-AEA3-4AC3-B3D8-92550D1582D7";
shapes = (
{
closed = 1;
nodes = (
(306,392,l),
(306,459,l),
(20,351,l),
(20,284,l)
);
},
{
alignment = -1;
pos = (26,0);
ref = L;
}
);
width = 496;
},
{
layerId = "A390C1A2-E540-434D-BB9E-4BCEE875BA63";
shapes = (
{
closed = 1;
nodes = (
(339,348,l),
(339,492,l),
(20,397,l),
(20,253,l)
);
},
{
alignment = -1;
pos = (23,0);
ref = L;
}
);
width = 548;
},
{
layerId = "12552169-0282-4A31-82CC-880002E60A2C";
shapes = (
{
closed = 1;
nodes = (
(301,399,l),
(301,454,l),
(20,344,l),
(20,289,l)
);
},
{
pos = (26,0);
ref = L;
}
);
width = 543;
},
{
layerId = "44982FF8-7820-4F75-948C-97259056F879";
shapes = (
{
closed = 1;
nodes = (
(306,392,l),
(306,459,l),
(20,351,l),
(20,284,l)
);
},
{
alignment = -1;
pos = (26,0);
ref = L;
}
);
width = 551;
},
{
layerId = "84B0614D-4B2F-419D-B7F2-5B7DD4CAD23C";
shapes = (
{
closed = 1;
nodes = (
(339,348,l),
(339,492,l),
(20,397,l),
(20,253,l)
);
},
{
pos = (23,0);
ref = L;
}
);
width = 600;
},
{
layerId = "90D50F69-F6F7-4633-9462-ED0440D3064F";
shapes = (
{
closed = 1;
nodes = (
(282,415,l),
(282,435,l),
(20,317,l),
(20,298,l)
);
},
{
alignment = -1;
pos = (28,0);
ref = L;
}
);
width = 513;
}
);
metricRight = L;
unicode = 321;
userData = {
com.schriftgestaltung.Glyphs.ColorIndex = 4;
};
},
{
glyphname = M;
kernLeft = H;
kernRight = H;
lastChange = "2023-05-19 14:07:26 +0000";
layers = (
{
layerId = "EB62C368-BB48-47C0-A466-DA94204A0DE4";
shapes = (
{
closed = 1;
nodes = (
(98,0,l),
(98,656,l),
(98,656,l),
(365,92,l),
(389,92,l),
(658,660,l),
(658,660,l),
(658,0,l),
(678,0,l),
(678,700,l),
(655,700,l),
(377,113,l),
(377,113,l),
(99,700,l),
(78,700,l),
(78,0,l)
);
}
);
width = 755;
},
{
layerId = "A6F5E7A4-47EF-4F55-BF18-0ACACB57A720";
shapes = (
{
closed = 1;
nodes = (
(161,0,l),
(161,545,l),
(161,545,l),
(381,92,l),
(444,92,l),
(664,549,l),
(664,549,l),
(664,0,l),
(748,0,l),
(748,700,l),
(649,700,l),
(413,207,l),
(413,207,l),
(175,700,l),
(77,700,l),
(77,0,l)
);
}
);
width = 825;
},
{
layerId = "1615C59E-33DE-4B88-B2CC-A48C7D56A125";
shapes = (
{
closed = 1;
nodes = (
(243,0,l),
(243,410,l),
(243,410,l),
(387,92,l),
(525,92,l),
(668,410,l),
(668,410,l),
(668,0,l),
(839,0,l),
(839,700,l),
(634,700,l),
(458,299,l),
(458,299,l),
(278,700,l),
(72,700,l),
(72,0,l)
);
}
);
width = 911;
},
{
layerId = "2D111E5E-352D-4630-9162-BCEF010D26CF";
shapes = (
{
closed = 1;
nodes = (
(154,0,l),
(154,572,l),
(154,572,l),
(384,92,l),
(439,92,l),
(669,574,l),
(669,574,l),
(669,0,l),
(739,0,l),
(739,700,l),
(657,700,l),
(411,185,l),
(411,185,l),
(165,700,l),
(84,700,l),
(84,0,l)
);
}
);
width = 823;
},
{
guides = (
{
angle = 180;
pos = (69,686);
}
);
layerId = "5D382461-81E1-4DF2-8677-8A6F02AD5363";
shapes = (
{
closed = 1;
nodes = (
(65,0,l),
(65,653,l),
(69,653,l),
(347,100,l),
(371,100,l),
(649,652,l),
(653,652,l),
(653,0,l),
(673,0,l),
(673,700,l),
(649,700,l),
(361,125,l),
(357,125,l),
(68,700,l),
(45,700,l),
(45,0,l)
);
}
);
width = 718;
},
{
layerId = "3B8883BF-F483-4B97-AC7C-CABF8B821093";
shapes = (
{
closed = 1;
nodes = (
(115,0,l),
(115,620,l),
(119,620,l),
(337,100,l),
(427,100,l),
(654,620,l),
(658,620,l),
(658,0,l),
(728,0,l),
(728,700,l),
(612,700,l),
(386,164,l),
(382,164,l),
(156,700,l),
(45,700,l),
(45,0,l)
);
}
);
width = 773;
},
{
guides = (
{
angle = 180;
pos = (133,573);
}
);
layerId = "F5F01D5B-AEA3-4AC3-B3D8-92550D1582D7";
shapes = (
{
closed = 1;
nodes = (
(129,0,l),
(129,573,l),
(133,573,l),
(336,100,l),
(454,100,l),
(656,573,l),
(660,573,l),
(660,0,l),
(744,0,l),
(744,700,l),
(620,700,l),
(397,170,l),
(393,170,l),
(169,700,l),
(45,700,l),
(45,0,l)
);
}
);
width = 789;
},
{
guides = (
{
angle = 180;
pos = (218,408);
}
);
layerId = "A390C1A2-E540-434D-BB9E-4BCEE875BA63";
shapes = (
{
closed = 1;
nodes = (
(216,0,l),
(216,428,l),
(220,428,l),
(364,100,l),
(517,100,l),
(665,428,l),
(669,428,l),
(669,0,l),
(840,0,l),
(840,700,l),
(625,700,l),
(447,283,l),
(443,283,l),
(261,700,l),
(45,700,l),
(45,0,l)
);
}
);
width = 885;
},
{
layerId = "12552169-0282-4A31-82CC-880002E60A2C";
shapes = (
{
closed = 1;
nodes = (
(146,0,l),
(146,569,l),
(146,569,l),
(392,100,l),
(443,100,l),
(689,571,l),
(689,571,l),
(689,0,l),
(759,0,l),
(759,700,l),
(678,700,l),
(417,198,l),
(417,198,l),
(156,700,l),
(76,700,l),
(76,0,l)
);
}
);
width = 835;
},
{
layerId = "44982FF8-7820-4F75-948C-97259056F879";
shapes = (
{
closed = 1;
nodes = (
(158,0,l),
(158,549,l),
(158,549,l),
(392,100,l),
(455,100,l),
(689,550,l),
(689,550,l),
(689,0,l),
(773,0,l),
(773,700,l),
(674,700,l),
(423,212,l),
(423,212,l),
(172,700,l),
(74,700,l),
(74,0,l)
);
}
);
width = 847;
},
{
layerId = "84B0614D-4B2F-419D-B7F2-5B7DD4CAD23C";
shapes = (
{
closed = 1;
nodes = (
(233,0,l),
(233,417,l),
(233,417,l),
(391,100,l),
(529,100,l),
(686,416,l),
(686,416,l),
(686,0,l),
(857,0,l),
(857,700,l),
(652,700,l),
(462,301,l),
(462,301,l),
(268,700,l),
(62,700,l),
(62,0,l)
);
}
);
width = 919;
},
{
guides = (
{
angle = 180;
pos = (100,686);
}
);
layerId = "90D50F69-F6F7-4633-9462-ED0440D3064F";
shapes = (
{
closed = 1;
nodes = (
(96,0,l),
(96,660,l),
(96,660,l),
(378,100,l),
(402,100,l),
(684,660,l),
(684,660,l),
(684,0,l),
(704,0,l),
(704,700,l),
(680,700,l),
(391,120,l),
(391,120,l),
(99,700,l),
(76,700,l),
(76,0,l)
);
}
);
width = 780;
}
);
metricLeft = H;
metricRight = H;
unicode = 77;
userData = {
com.schriftgestaltung.Glyphs.ColorIndex = 4;
com.typesupply.AccentFactory.yCoordinates = {
bottom = {
name = origin;
type = glyphMetric;
};
top = {
name = capHeight;
type = fontInfo;
};
};
};
},
{
glyphname = N;
kernLeft = H;
kernRight = H;
lastChange = "2023-05-19 14:07:26 +0000";
layers = (
{
anchors = (
{
name = bottom;
pos = (317,0);
},
{
name = top;
pos = (317,700);
}
);
layerId = "EB62C368-BB48-47C0-A466-DA94204A0DE4";
shapes = (
{
closed = 1;
nodes = (
(98,0,l),
(98,673,l),
(98,673,l),
(531,0,l),
(555,0,l),
(555,700,l),
(535,700,l),
(535,30,l),
(535,30,l),
(104,700,l),
(78,700,l),
(78,0,l)
);
}
);
width = 632;
},
{
anchors = (
{
name = bottom;
pos = (348,0);
},
{
name = top;
pos = (348,700);
}
);
layerId = "A6F5E7A4-47EF-4F55-BF18-0ACACB57A720";
shapes = (
{
closed = 1;
nodes = (
(161,0,l),
(161,562,l),
(161,562,l),
(534,0,l),
(618,0,l),
(618,700,l),
(534,700,l),
(534,138,l),
(534,138,l),
(161,700,l),
(77,700,l),
(77,0,l)
);
}
);
width = 695;
},
{
anchors = (
{
name = bottom;
pos = (386.005,0);
},
{
name = top;
pos = (386.005,700);
}
);
layerId = "1615C59E-33DE-4B88-B2CC-A48C7D56A125";
shapes = (
{
closed = 1;
nodes = (
(243,0,l),
(243,427,l),
(243,427,l),
(529,0,l),
(700,0,l),
(700,700,l),
(529,700,l),
(529,271,l),
(529,271,l),
(243,700,l),
(72,700,l),
(72,0,l)
);
}
);
width = 772;
},
{
anchors = (
{
name = bottom;
pos = (348,0);
},
{
name = top;
pos = (348,700);
}
);
layerId = "2D111E5E-352D-4630-9162-BCEF010D26CF";
shapes = (
{
closed = 1;
nodes = (
(154,0,l),
(154,586,l),
(154,586,l),
(540,0,l),
(611,0,l),
(611,700,l),
(541,700,l),
(541,114,l),
(541,114,l),
(155,700,l),
(84,700,l),
(84,0,l)
);
}
);
width = 695;
},
{
anchors = (
{
name = bottom;
pos = (284,0);
},
{
name = top;
pos = (284,700);
}
);
layerId = "5D382461-81E1-4DF2-8677-8A6F02AD5363";
shapes = (
{
closed = 1;
nodes = (
(65,0,l),
(65,667,l),
(69,667,l),
(498,0,l),
(522,0,l),
(522,700,l),
(502,700,l),
(502,35,l),
(498,35,l),
(71,700,l),
(45,700,l),
(45,0,l)
);
}
);
width = 567;
},
{
anchors = (
{
name = bottom;
pos = (309,0);
},
{
name = top;
pos = (309,700);
}
);
layerId = "3B8883BF-F483-4B97-AC7C-CABF8B821093";
shapes = (
{
closed = 1;
nodes = (
(115,0,l),
(115,632,l),
(119,632,l),
(466,0,l),
(572,0,l),
(572,700,l),
(502,700,l),
(502,73,l),
(498,73,l),
(155,700,l),
(45,700,l),
(45,0,l)
);
}
);
width = 617;
},
{
anchors = (
{
name = bottom;
pos = (316,0);
},
{
name = top;
pos = (316,700);
}
);
guides = (
{
pos = (631,121);
}
);
layerId = "F5F01D5B-AEA3-4AC3-B3D8-92550D1582D7";
shapes = (
{
closed = 1;
nodes = (
(129,0,l),
(129,606,l),
(133,606,l),
(466,0,l),
(586,0,l),
(586,700,l),
(502,700,l),
(502,94,l),
(498,94,l),
(165,700,l),
(45,700,l),
(45,0,l)
);
}
);
width = 631;
},
{
anchors = (
{
name = bottom;
pos = (359,0);
},
{
name = top;
pos = (359,700);
}
);
layerId = "A390C1A2-E540-434D-BB9E-4BCEE875BA63";
shapes = (
{
closed = 1;
nodes = (
(216,0,l),
(216,456,l),
(220,456,l),
(472,0,l),
(673,0,l),
(673,700,l),
(502,700,l),
(502,243,l),
(498,243,l),
(246,700,l),
(45,700,l),
(45,0,l)
);
}
);
width = 718;
},
{
anchors = (
{
name = bottom;
pos = (340,0);
},
{
name = top;
pos = (340,700);
}
);
layerId = "12552169-0282-4A31-82CC-880002E60A2C";
shapes = (
{
closed = 1;
nodes = (
(146,0,l),
(146,583,l),
(146,583,l),
(533,0,l),
(603,0,l),
(603,700,l),
(533,700,l),
(533,118,l),
(533,118,l),
(146,700,l),
(76,700,l),
(76,0,l)
);
}
);
width = 679;
},
{
anchors = (
{
name = bottom;
pos = (344.99,0);
},
{
name = top;
pos = (344.99,700);
}
);
layerId = "44982FF8-7820-4F75-948C-97259056F879";
shapes = (
{
closed = 1;
nodes = (
(158,0,l),
(158,561,l),
(158,561,l),
(531,0,l),
(615,0,l),
(615,700,l),
(531,700,l),
(531,139,l),
(531,139,l),
(158,700,l),
(74,700,l),
(74,0,l)
);
}
);
width = 689;
},
{
anchors = (
{
name = bottom;
pos = (376,0);
},
{
name = top;
pos = (376,700);
}
);
layerId = "84B0614D-4B2F-419D-B7F2-5B7DD4CAD23C";
shapes = (
{
closed = 1;
nodes = (
(233,0,l),
(233,425,l),
(233,425,l),
(519,0,l),
(690,0,l),
(690,700,l),
(519,700,l),
(519,273,l),
(519,273,l),
(233,700,l),
(62,700,l),
(62,0,l)
);
}
);
width = 752;
},
{
anchors = (
{
name = bottom;
pos = (315,0);
},
{
name = top;
pos = (315,700);
}
);
layerId = "90D50F69-F6F7-4633-9462-ED0440D3064F";
shapes = (
{
closed = 1;
nodes = (
(96,0,l),
(96,673,l),
(96,673,l),
(529,0,l),
(553,0,l),
(553,700,l),
(533,700,l),
(533,32,l),
(533,32,l),
(102,700,l),
(76,700,l),
(76,0,l)
);
}
);
width = 629;
}
);
metricLeft = H;
metricRight = H;
unicode = 78;
userData = {
com.schriftgestaltung.Glyphs.ColorIndex = 4;
com.typesupply.AccentFactory.yCoordinates = {
bottom = {
name = origin;
type = glyphMetric;
};
top = {
name = capHeight;
type = fontInfo;
};
};
};
},
{
glyphname = Eng;
lastChange = "2023-05-19 14:07:26 +0000";
layers = (
{
anchors = (
{
name = bottom;
pos = (317,0);
},
{
name = top;
pos = (317,700);
}
);
layerId = "EB62C368-BB48-47C0-A466-DA94204A0DE4";
shapes = (
{
closed = 1;
nodes = (
(98,0,l),
(98,673,l),
(98,673,l),
(535,0,l),
(535,-118,ls),
(535,-178,o),
(513,-201,o),
(452,-201,cs),
(415,-201,l),
(415,-220,l),
(456,-220,ls),
(530,-220,o),
(555,-183,o),
(555,-123,cs),
(555,700,l),
(535,700,l),
(535,37,l),
(535,37,l),
(104,700,l),
(78,700,l),
(78,0,l)
);
}
);
width = 632;
},
{
anchors = (
{
name = bottom;
pos = (348,0);
},
{
name = top;
pos = (348,700);
}
);
layerId = "2D111E5E-352D-4630-9162-BCEF010D26CF";
shapes = (
{
closed = 1;
nodes = (
(154,0,l),
(154,586,l),
(154,586,l),
(541,0,l),
(541,-89,ls),
(541,-141,o),
(520,-160,o),
(468,-160,cs),
(429,-160,l),
(429,-220,l),
(479,-220,ls),
(567,-220,o),
(611,-179,o),
(611,-91,cs),
(611,700,l),
(541,700,l),
(541,114,l),
(541,114,l),
(155,700,l),
(84,700,l),
(84,0,l)
);
}
);
width = 695;
},
{
anchors = (
{
name = bottom;
pos = (348,0);
},
{
name = top;
pos = (348,700);
}
);
layerId = "A6F5E7A4-47EF-4F55-BF18-0ACACB57A720";
shapes = (
{
closed = 1;
nodes = (
(161,0,l),
(161,562,l),
(161,562,l),
(534,0,l),
(534,-80,ls),
(534,-130,o),
(514,-148,o),
(464,-148,cs),
(425,-148,l),
(425,-220,l),
(477,-220,ls),
(569,-220,o),
(618,-178,o),
(618,-82,cs),
(618,700,l),
(534,700,l),
(534,138,l),
(534,138,l),
(161,700,l),
(77,700,l),
(77,0,l)
);
}
);
width = 695;
},
{
anchors = (
{
name = bottom;
pos = (386.005,0);
},
{
name = top;
pos = (386.005,700);
}
);
layerId = "1615C59E-33DE-4B88-B2CC-A48C7D56A125";
shapes = (
{
closed = 1;
nodes = (
(243,0,l),
(243,427,l),
(243,427,l),
(530,0,l),
(530,-28,ls),
(530,-61,o),
(516,-75,o),
(478,-75,cs),
(436,-75,l),
(436,-220,l),
(504,-220,ls),
(620,-220,o),
(700,-171,o),
(700,-26,cs),
(700,700,l),
(529,700,l),
(529,271,l),
(529,271,l),
(243,700,l),
(72,700,l),
(72,0,l)
);
}
);
width = 772;
},
{
anchors = (
{
name = bottom;
pos = (315,0);
},
{
name = top;
pos = (315,700);
}
);
layerId = "90D50F69-F6F7-4633-9462-ED0440D3064F";
shapes = (
{
closed = 1;
nodes = (
(96,0,l),
(96,673,l),
(96,673,l),
(533,0,l),
(533,-116,ls),
(533,-173,o),
(515,-200,o),
(450,-200,cs),
(414,-200,l),
(414,-220,l),
(453,-220,ls),
(528,-220,o),
(553,-182,o),
(553,-123,cs),
(553,700,l),
(533,700,l),
(533,38,l),
(533,38,l),
(102,700,l),
(76,700,l),
(76,0,l)
);
}
);
width = 629;
},
{
anchors = (
{
name = bottom;
pos = (340,0);
},
{
name = top;
pos = (340,700);
}
);
layerId = "12552169-0282-4A31-82CC-880002E60A2C";
shapes = (
{
closed = 1;
nodes = (
(146,0,l),
(146,583,l),
(146,583,l),
(533,0,l),
(533,-88,ls),
(533,-141,o),
(512,-160,o),
(460,-160,cs),
(422,-160,l),
(422,-220,l),
(471,-220,ls),
(559,-220,o),
(603,-179,o),
(603,-91,cs),
(603,700,l),
(533,700,l),
(533,118,l),
(533,118,l),
(146,700,l),
(76,700,l),
(76,0,l)
);
}
);
width = 679;
},
{
anchors = (
{
name = bottom;
pos = (344.99,0);
},
{
name = top;
pos = (344.99,700);
}
);
layerId = "44982FF8-7820-4F75-948C-97259056F879";
shapes = (
{
closed = 1;
nodes = (
(158,0,l),
(158,561,l),
(158,561,l),
(531,0,l),
(531,-80,ls),
(531,-130,o),
(511,-148,o),
(461,-148,cs),
(422,-148,l),
(422,-220,l),
(474,-220,ls),
(566,-220,o),
(615,-178,o),
(615,-82,cs),
(615,700,l),
(531,700,l),
(531,139,l),
(531,139,l),
(158,700,l),
(74,700,l),
(74,0,l)
);
}
);
width = 689;
},
{
anchors = (
{
name = bottom;
pos = (376,0);
},
{
name = top;
pos = (376,700);
}
);
layerId = "84B0614D-4B2F-419D-B7F2-5B7DD4CAD23C";
shapes = (
{
closed = 1;
nodes = (
(233,0,l),
(233,425,l),
(233,425,l),
(519,0,l),
(519,-28,ls),
(519,-61,o),
(505,-75,o),
(467,-75,cs),
(426,-75,l),
(426,-220,l),
(493,-220,ls),
(609,-220,o),
(690,-171,o),
(690,-26,cs),
(690,700,l),
(519,700,l),
(519,273,l),
(519,273,l),
(233,700,l),
(62,700,l),
(62,0,l)
);
}
);
width = 752;
},
{
anchors = (
{
name = bottom;
pos = (284,0);
},
{
name = top;
pos = (284,700);
}
);
layerId = "5D382461-81E1-4DF2-8677-8A6F02AD5363";
shapes = (
{
closed = 1;
nodes = (
(65,0,l),
(65,667,l),
(69,667,l),
(502,0,l),
(502,-96,ls),
(502,-153,o),
(484,-180,o),
(419,-180,cs),
(383,-180,l),
(383,-200,l),
(422,-200,ls),
(497,-200,o),
(522,-162,o),
(522,-103,cs),
(522,700,l),
(502,700,l),
(502,39,l),
(498,39,l),
(71,700,l),
(45,700,l),
(45,0,l)
);
}
);
width = 567;
},
{
anchors = (
{
name = bottom;
pos = (309,0);
},
{
name = top;
pos = (309,700);
}
);
layerId = "3B8883BF-F483-4B97-AC7C-CABF8B821093";
shapes = (
{
closed = 1;
nodes = (
(115,0,l),
(115,632,l),
(119,632,l),
(502,0,l),
(502,-68,ls),
(502,-121,o),
(481,-140,o),
(429,-140,cs),
(391,-140,l),
(391,-200,l),
(440,-200,ls),
(528,-200,o),
(572,-159,o),
(572,-71,cs),
(572,700,l),
(502,700,l),
(502,133,l),
(498,133,l),
(155,700,l),
(45,700,l),
(45,0,l)
);
}
);
width = 617;
},
{
anchors = (
{
name = bottom;
pos = (316,0);
},
{
name = top;
pos = (316,700);
}
);
layerId = "F5F01D5B-AEA3-4AC3-B3D8-92550D1582D7";
shapes = (
{
closed = 1;
nodes = (
(129,0,l),
(129,606,l),
(133,606,l),
(502,0,l),
(502,-60,ls),
(502,-115,o),
(482,-133,o),
(432,-133,cs),
(393,-133,l),
(393,-200,l),
(445,-200,ls),
(537,-200,o),
(586,-158,o),
(586,-62,cs),
(586,700,l),
(502,700,l),
(502,151,l),
(498,151,l),
(165,700,l),
(45,700,l),
(45,0,l)
);
}
);
width = 631;
},
{
anchors = (
{
name = bottom;
pos = (359,0);
},
{
name = top;
pos = (359,700);
}
);
layerId = "A390C1A2-E540-434D-BB9E-4BCEE875BA63";
shapes = (
{
closed = 1;
nodes = (
(216,0,l),
(216,456,l),
(220,456,l),
(502,0,l),
(502,-8,ls),
(502,-41,o),
(488,-55,o),
(450,-55,cs),
(409,-55,l),
(409,-200,l),
(476,-200,ls),
(592,-200,o),
(673,-151,o),
(673,-6,cs),
(673,700,l),
(502,700,l),
(502,283,l),
(498,283,l),
(246,700,l),
(45,700,l),
(45,0,l)
);
}
);
width = 718;
}
);
metricLeft = N;
metricRight = N;
unicode = 330;
},
{
glyphname = O;
kernLeft = O;
kernRight = O;
lastChange = "2023-05-24 14:50:55 +0000";
layers = (
{
anchors = (
{
name = top;
pos = (362,700);
}
);
guides = (
{
angle = 270;
pos = (678,350);
},
{
angle = 270;
pos = (725,350);
}
);
layerId = "EB62C368-BB48-47C0-A466-DA94204A0DE4";
shapes = (
{
closed = 1;
nodes = (
(555,-12,o),
(678,135,o),
(678,350,cs),
(678,564,o),
(555,712,o),
(362,712,cs),
(171,712,o),
(47,564,o),
(47,350,cs),
(47,135,o),
(171,-12,o),
(362,-12,cs)
);
},
{
closed = 1;
nodes = (
(195,8,o),
(69,133,o),
(69,350,cs),
(69,568,o),
(195,692,o),
(362,692,cs),
(530,692,o),
(656,568,o),
(656,350,cs),
(656,133,o),
(530,8,o),
(362,8,cs)
);
}
);
width = 725;
},
{
anchors = (
{
name = top;
pos = (373,700);
}
);
layerId = "A6F5E7A4-47EF-4F55-BF18-0ACACB57A720";
shapes = (
{
closed = 1;
nodes = (
(569,-12,o),
(697,135,o),
(697,350,cs),
(697,564,o),
(569,712,o),
(373,712,cs),
(180,712,o),
(49,564,o),
(49,350,cs),
(49,135,o),
(180,-12,o),
(373,-12,cs)
);
},
{
closed = 1;
nodes = (
(231,62,o),
(135,170,o),
(135,350,cs),
(135,530,o),
(231,637,o),
(373,637,cs),
(516,637,o),
(611,530,o),
(611,350,cs),
(611,170,o),
(516,62,o),
(373,62,cs)
);
}
);
width = 746;
},
{
anchors = (
{
name = top;
pos = (385,700);
}
);
layerId = "1615C59E-33DE-4B88-B2CC-A48C7D56A125";
shapes = (
{
closed = 1;
nodes = (
(581,-12,o),
(719,136,o),
(719,350,cs),
(719,564,o),
(581,712,o),
(384,712,cs),
(186,712,o),
(48,564,o),
(48,350,cs),
(48,136,o),
(186,-12,o),
(384,-12,cs)
);
},
{
closed = 1;
nodes = (
(283,143,o),
(222,223,o),
(222,350,cs),
(222,477,o),
(283,557,o),
(384,557,cs),
(484,557,o),
(545,477,o),
(545,350,cs),
(545,223,o),
(484,143,o),
(384,143,cs)
);
}
);
width = 767;
},
{
anchors = (
{
name = top;
pos = (374,700);
}
);
layerId = "2D111E5E-352D-4630-9162-BCEF010D26CF";
shapes = (
{
closed = 1;
nodes = (
(569,-12,o),
(696,135,o),
(696,350,cs),
(696,564,o),
(569,712,o),
(374,712,cs),
(181,712,o),
(52,564,o),
(52,350,cs),
(52,135,o),
(181,-12,o),
(374,-12,cs)
);
},
{
closed = 1;
nodes = (
(227,50,o),
(124,162,o),
(124,350,cs),
(124,538,o),
(227,649,o),
(374,649,cs),
(522,649,o),
(624,538,o),
(624,350,cs),
(624,162,o),
(522,50,o),
(374,50,cs)
);
}
);
width = 748;
},
{
anchors = (
{
name = top;
pos = (372,700);
}
);
layerId = "5D382461-81E1-4DF2-8677-8A6F02AD5363";
shapes = (
{
closed = 1;
nodes = (
(575,-12,o),
(708,135,o),
(708,350,cs),
(708,564,o),
(575,712,o),
(371,712,cs),
(167,712,o),
(35,564,o),
(35,350,cs),
(35,135,o),
(167,-12,o),
(371,-12,cs)
);
},
{
closed = 1;
nodes = (
(194,8,o),
(57,132,o),
(57,350,cs),
(57,568,o),
(194,692,o),
(371,692,cs),
(548,692,o),
(686,568,o),
(686,350,cs),
(686,132,o),
(548,8,o),
(371,8,cs)
);
}
);
width = 743;
},
{
anchors = (
{
name = top;
pos = (378,700);
}
);
layerId = "3B8883BF-F483-4B97-AC7C-CABF8B821093";
shapes = (
{
closed = 1;
nodes = (
(585,-12,o),
(721,135,o),
(721,350,cs),
(721,564,o),
(585,712,o),
(378,712,cs),
(172,712,o),
(35,564,o),
(35,350,cs),
(35,135,o),
(172,-12,o),
(378,-12,cs)
);
},
{
closed = 1;
nodes = (
(217,49,o),
(107,162,o),
(107,350,cs),
(107,538,o),
(217,650,o),
(378,650,cs),
(539,650,o),
(649,538,o),
(649,350,cs),
(649,162,o),
(539,49,o),
(378,49,cs)
);
}
);
width = 756;
},
{
anchors = (
{
name = top;
pos = (380,700);
}
);
layerId = "F5F01D5B-AEA3-4AC3-B3D8-92550D1582D7";
shapes = (
{
closed = 1;
nodes = (
(588,-12,o),
(725,135,o),
(725,350,cs),
(725,564,o),
(588,712,o),
(380,712,cs),
(174,712,o),
(35,564,o),
(35,350,cs),
(35,135,o),
(174,-12,o),
(380,-12,cs)
);
},
{
closed = 1;
nodes = (
(226,62,o),
(121,170,o),
(121,350,cs),
(121,530,o),
(226,637,o),
(380,637,cs),
(534,637,o),
(639,530,o),
(639,350,cs),
(639,170,o),
(534,62,o),
(380,62,cs)
);
}
);
width = 760;
},
{
anchors = (
{
name = top;
pos = (391,700);
}
);
layerId = "A390C1A2-E540-434D-BB9E-4BCEE875BA63";
shapes = (
{
closed = 1;
nodes = (
(601,-12,o),
(747,136,o),
(747,350,cs),
(747,564,o),
(601,712,o),
(391,712,cs),
(181,712,o),
(35,564,o),
(35,350,cs),
(35,136,o),
(181,-12,o),
(391,-12,cs)
);
},
{
closed = 1;
nodes = (
(278,143,o),
(209,223,o),
(209,350,cs),
(209,477,o),
(278,557,o),
(391,557,cs),
(504,557,o),
(573,477,o),
(573,350,cs),
(573,223,o),
(504,143,o),
(391,143,cs)
);
}
);
width = 782;
},
{
anchors = (
{
name = top;
pos = (391,700);
}
);
layerId = "12552169-0282-4A31-82CC-880002E60A2C";
shapes = (
{
closed = 1;
nodes = (
(598,-12,o),
(734,135,o),
(734,350,cs),
(734,564,o),
(598,712,o),
(391,712,cs),
(185,712,o),
(48,564,o),
(48,350,cs),
(48,135,o),
(185,-12,o),
(391,-12,cs)
);
},
{
closed = 1;
nodes = (
(230,49,o),
(120,162,o),
(120,350,cs),
(120,538,o),
(230,650,o),
(391,650,cs),
(552,650,o),
(662,538,o),
(662,350,cs),
(662,162,o),
(552,49,o),
(391,49,cs)
);
}
);
width = 782;
},
{
anchors = (
{
name = top;
pos = (392,700);
}
);
layerId = "44982FF8-7820-4F75-948C-97259056F879";
shapes = (
{
closed = 1;
nodes = (
(600,-12,o),
(737,135,o),
(737,350,cs),
(737,564,o),
(600,712,o),
(392,712,cs),
(186,712,o),
(47,564,o),
(47,350,cs),
(47,135,o),
(186,-12,o),
(392,-12,cs)
);
},
{
closed = 1;
nodes = (
(238,62,o),
(133,170,o),
(133,350,cs),
(133,530,o),
(238,637,o),
(392,637,cs),
(546,637,o),
(651,530,o),
(651,350,cs),
(651,170,o),
(546,62,o),
(392,62,cs)
);
}
);
width = 784;
},
{
anchors = (
{
name = top;
pos = (400,700);
}
);
layerId = "84B0614D-4B2F-419D-B7F2-5B7DD4CAD23C";
shapes = (
{
closed = 1;
nodes = (
(609,-12,o),
(755,136,o),
(755,350,cs),
(755,564,o),
(609,712,o),
(399,712,cs),
(189,712,o),
(43,564,o),
(43,350,cs),
(43,136,o),
(189,-12,o),
(399,-12,cs)
);
},
{
closed = 1;
nodes = (
(286,143,o),
(217,223,o),
(217,350,cs),
(217,477,o),
(286,557,o),
(399,557,cs),
(512,557,o),
(581,477,o),
(581,350,cs),
(581,223,o),
(512,143,o),
(399,143,cs)
);
}
);
width = 798;
},
{
anchors = (
{
name = top;
pos = (385,700);
}
);
layerId = "90D50F69-F6F7-4633-9462-ED0440D3064F";
shapes = (
{
closed = 1;
nodes = (
(588,-12,o),
(721,135,o),
(721,350,cs),
(721,564,o),
(588,712,o),
(384,712,cs),
(180,712,o),
(48,564,o),
(48,350,cs),
(48,135,o),
(180,-12,o),
(384,-12,cs)
);
},
{
closed = 1;
nodes = (
(207,8,o),
(70,132,o),
(70,350,cs),
(70,568,o),
(207,692,o),
(384,692,cs),
(561,692,o),
(699,568,o),
(699,350,cs),
(699,132,o),
(561,8,o),
(384,8,cs)
);
}
);
width = 769;
}
);
unicode = 79;
userData = {
com.schriftgestaltung.Glyphs.ColorIndex = 4;
com.typemytype.robofont.layerData = {
b = {
anchors = (
{
name = top;
x = 407;
y = 683;
}
);
components = (
);
contours = (
{
points = (
{
segmentType = curve;
smooth = 1;
x = 60;
y = 341;
},
{
smooth = 0;
x = 60;
y = 138;
},
{
smooth = 0;
x = 214;
y = -7;
},
{
segmentType = curve;
smooth = 1;
x = 407;
y = -7;
},
{
smooth = 0;
x = 601;
y = -7;
},
{
smooth = 0;
x = 754;
y = 138;
},
{
segmentType = curve;
smooth = 1;
x = 754;
y = 341;
},
{
smooth = 0;
x = 754;
y = 546;
},
{
smooth = 0;
x = 601;
y = 690;
},
{
segmentType = curve;
smooth = 1;
x = 407;
y = 690;
},
{
smooth = 0;
x = 214;
y = 690;
},
{
smooth = 0;
x = 60;
y = 546;
}
);
},
{
points = (
{
segmentType = curve;
smooth = 1;
x = 733;
y = 341;
},
{
smooth = 0;
x = 733;
y = 137;
},
{
smooth = 0;
x = 588;
y = 4;
},
{
segmentType = curve;
smooth = 1;
x = 407;
y = 4;
},
{
smooth = 0;
x = 226;
y = 4;
},
{
smooth = 0;
x = 80;
y = 137;
},
{
segmentType = curve;
smooth = 1;
x = 80;
y = 341;
},
{
smooth = 0;
x = 80;
y = 547;
},
{
smooth = 0;
x = 226;
y = 677;
},
{
segmentType = curve;
smooth = 1;
x = 407;
y = 677;
},
{
smooth = 0;
x = 588;
y = 677;
},
{
smooth = 0;
x = 733;
y = 547;
}
);
}
);
lib = {
};
name = O;
unicodes = (
);
width = 792;
};
};
com.typesupply.AccentFactory.yCoordinates = {
bottom = {
name = origin;
type = glyphMetric;
};
top = {
name = capHeight;
type = fontInfo;
};
};
};
},
{
glyphname = Oslash;
lastChange = "2023-05-19 14:07:26 +0000";
layers = (
{
guides = (
{
angle = 270;
pos = (679,350);
},
{
angle = 270;
pos = (726,350);
}
);
layerId = "EB62C368-BB48-47C0-A466-DA94204A0DE4";
shapes = (
{
closed = 1;
nodes = (
(56,0,l),
(700,700,l),
(671,700,l),
(27,0,l)
);
},
{
alignment = -1;
pos = (1,0);
ref = O;
}
);
width = 726;
},
{
layerId = "A6F5E7A4-47EF-4F55-BF18-0ACACB57A720";
shapes = (
{
closed = 1;
nodes = (
(110,0,l),
(728,700,l),
(639,700,l),
(20,0,l)
);
},
{
alignment = -1;
ref = O;
}
);
width = 747;
},
{
layerId = "1615C59E-33DE-4B88-B2CC-A48C7D56A125";
shapes = (
{
closed = 1;
nodes = (
(169,0,l),
(753,700,l),
(599,700,l),
(15,0,l)
);
},
{
alignment = -1;
ref = O;
}
);
width = 767;
},
{
layerId = "2D111E5E-352D-4630-9162-BCEF010D26CF";
shapes = (
{
closed = 1;
nodes = (
(101,0,l),
(725,700,l),
(646,700,l),
(22,0,l)
);
},
{
alignment = -1;
ref = O;
}
);
width = 748;
},
{
layerId = "5D382461-81E1-4DF2-8677-8A6F02AD5363";
shapes = (
{
closed = 1;
nodes = (
(65,0,l),
(709,700,l),
(680,700,l),
(36,0,l)
);
},
{
alignment = -1;
ref = O;
}
);
width = 744;
},
{
layerId = "3B8883BF-F483-4B97-AC7C-CABF8B821093";
shapes = (
{
closed = 1;
nodes = (
(105,0,l),
(729,700,l),
(650,700,l),
(26,0,l)
);
},
{
alignment = -1;
ref = O;
}
);
width = 756;
},
{
layerId = "F5F01D5B-AEA3-4AC3-B3D8-92550D1582D7";
shapes = (
{
closed = 1;
nodes = (
(116,0,l),
(734,700,l),
(645,700,l),
(26,0,l)
);
},
{
alignment = -1;
ref = O;
}
);
width = 759;
},
{
layerId = "A390C1A2-E540-434D-BB9E-4BCEE875BA63";
shapes = (
{
closed = 1;
nodes = (
(175,0,l),
(759,700,l),
(605,700,l),
(21,0,l)
);
},
{
alignment = -1;
pos = (-1,0);
ref = O;
}
);
width = 782;
},
{
layerId = "12552169-0282-4A31-82CC-880002E60A2C";
shapes = (
{
closed = 1;
nodes = (
(122,0,l),
(745,700,l),
(666,700,l),
(42,0,l)
);
},
{
alignment = -1;
ref = O;
}
);
width = 787;
},
{
layerId = "44982FF8-7820-4F75-948C-97259056F879";
shapes = (
{
closed = 1;
nodes = (
(129,0,l),
(747,700,l),
(658,700,l),
(39,0,l)
);
},
{
alignment = -1;
ref = O;
}
);
width = 786;
},
{
layerId = "84B0614D-4B2F-419D-B7F2-5B7DD4CAD23C";
shapes = (
{
closed = 1;
nodes = (
(176,0,l),
(760,700,l),
(606,700,l),
(22,0,l)
);
},
{
alignment = -1;
pos = (-1,0);
ref = O;
}
);
width = 782;
},
{
layerId = "90D50F69-F6F7-4633-9462-ED0440D3064F";
shapes = (
{
closed = 1;
nodes = (
(71,0,l),
(715,700,l),
(686,700,l),
(42,0,l)
);
},
{
alignment = -1;
pos = (6,0);
ref = O;
}
);
width = 769;
}
);
unicode = 216;
userData = {
com.schriftgestaltung.Glyphs.ColorIndex = 4;
};
},
{
glyphname = OE;
kernLeft = O;
kernRight = E;
lastChange = "2023-05-19 14:07:26 +0000";
layers = (
{
anchors = (
{
name = bottom;
pos = (854,0);
},
{
name = top;
pos = (390,700);
}
);
layerId = "EB62C368-BB48-47C0-A466-DA94204A0DE4";
shapes = (
{
closed = 1;
nodes = (
(504,-12,o),
(612,66,o),
(656,215,c),
(656,0,l),
(1053,0,l),
(1053,18,l),
(676,18,l),
(676,339,l),
(1023,339,l),
(1023,358,l),
(676,358,l),
(676,682,l),
(1053,682,l),
(1053,700,l),
(656,700,l),
(656,490,l),
(615,630,o),
(505,712,o),
(362,712,cs),
(171,712,o),
(47,564,o),
(47,350,cs),
(47,135,o),
(171,-12,o),
(362,-12,cs)
);
},
{
closed = 1;
nodes = (
(195,8,o),
(69,133,o),
(69,350,cs),
(69,568,o),
(195,692,o),
(362,692,cs),
(530,692,o),
(654,573,o),
(654,350,cs),
(654,133,o),
(530,8,o),
(362,8,cs)
);
}
);
width = 1110;
},
{
anchors = (
{
name = bottom;
pos = (832,0);
},
{
name = top;
pos = (373,700);
}
);
layerId = "A6F5E7A4-47EF-4F55-BF18-0ACACB57A720";
shapes = (
{
closed = 1;
nodes = (
(473,-12,o),
(555,26,o),
(611,92,c),
(611,0,l),
(1044,0,l),
(1044,69,l),
(695,69,l),
(695,319,l),
(1014,319,l),
(1014,387,l),
(695,387,l),
(695,631,l),
(1044,631,l),
(1044,700,l),
(611,700,l),
(611,607,l),
(555,673,o),
(473,712,o),
(373,712,cs),
(180,712,o),
(49,564,o),
(49,350,cs),
(49,135,o),
(180,-12,o),
(373,-12,cs)
);
},
{
closed = 1;
nodes = (
(231,62,o),
(135,170,o),
(135,350,cs),
(135,530,o),
(231,637,o),
(373,637,cs),
(516,637,o),
(611,530,o),
(611,350,cs),
(611,170,o),
(516,62,o),
(373,62,cs)
);
}
);
width = 1103;
},
{
anchors = (
{
name = bottom;
pos = (786,0);
},
{
name = top;
pos = (385,700);
}
);
layerId = "1615C59E-33DE-4B88-B2CC-A48C7D56A125";
shapes = (
{
closed = 1;
nodes = (
(434,-12,o),
(509,-1,o),
(545,46,c),
(545,0,l),
(1025,0,l),
(1025,137,l),
(716,137,l),
(716,291,l),
(995,291,l),
(995,423,l),
(716,423,l),
(716,563,l),
(1025,563,l),
(1025,700,l),
(545,700,l),
(545,654,l),
(508,691,o),
(444,712,o),
(377,712,cs),
(186,712,o),
(48,564,o),
(48,350,cs),
(48,136,o),
(186,-12,o),
(384,-12,cs)
);
},
{
closed = 1;
nodes = (
(283,143,o),
(222,223,o),
(222,350,cs),
(222,477,o),
(283,557,o),
(384,557,cs),
(484,557,o),
(545,477,o),
(545,350,cs),
(545,223,o),
(484,143,o),
(384,143,cs)
);
}
);
width = 1080;
},
{
anchors = (
{
name = bottom;
pos = (841,0);
},
{
name = top;
pos = (374,700);
}
);
layerId = "2D111E5E-352D-4630-9162-BCEF010D26CF";
shapes = (
{
closed = 1;
nodes = (
(482,-12,o),
(569,33,o),
(625,109,c),
(625,0,l),
(1050,0,l),
(1050,58,l),
(695,58,l),
(695,323,l),
(1020,323,l),
(1020,381,l),
(695,381,l),
(695,642,l),
(1050,642,l),
(1050,700,l),
(625,700,l),
(625,590,l),
(569,667,o),
(482,712,o),
(374,712,cs),
(181,712,o),
(52,564,o),
(52,350,cs),
(52,135,o),
(181,-12,o),
(374,-12,cs)
);
},
{
closed = 1;
nodes = (
(227,50,o),
(124,162,o),
(124,350,cs),
(124,538,o),
(227,649,o),
(374,649,cs),
(522,649,o),
(624,538,o),
(624,350,cs),
(624,162,o),
(522,50,o),
(374,50,cs)
);
}
);
width = 1111;
},
{
anchors = (
{
name = bottom;
pos = (904,0);
},
{
name = top;
pos = (557,700);
}
);
layerId = "5D382461-81E1-4DF2-8677-8A6F02AD5363";
shapes = (
{
closed = 1;
nodes = (
(526,-12,o),
(648,76,o),
(687,225,c),
(687,0,l),
(1084,0,l),
(1084,18,l),
(707,18,l),
(707,339,l),
(1054,339,l),
(1054,358,l),
(707,358,l),
(707,682,l),
(1084,682,l),
(1084,700,l),
(687,700,l),
(687,485,l),
(643,623,o),
(527,712,o),
(371,712,cs),
(167,712,o),
(35,564,o),
(35,350,cs),
(35,135,o),
(167,-12,o),
(371,-12,cs)
);
},
{
closed = 1;
nodes = (
(194,8,o),
(57,132,o),
(57,350,cs),
(57,568,o),
(194,692,o),
(371,692,cs),
(548,692,o),
(686,568,o),
(686,350,cs),
(686,129,o),
(548,8,o),
(371,8,cs)
);
}
);
width = 1114;
},
{
anchors = (
{
name = bottom;
pos = (865,0);
},
{
name = top;
pos = (378,700);
}
);
layerId = "3B8883BF-F483-4B97-AC7C-CABF8B821093";
shapes = (
{
closed = 1;
nodes = (
(494,-12,o),
(597,38,o),
(651,122,c),
(651,0,l),
(1076,0,l),
(1076,58,l),
(721,58,l),
(721,323,l),
(1046,323,l),
(1046,381,l),
(721,381,l),
(721,642,l),
(1076,642,l),
(1076,700,l),
(651,700,l),
(651,578,l),
(597,662,o),
(494,712,o),
(378,712,cs),
(172,712,o),
(35,564,o),
(35,350,cs),
(35,135,o),
(172,-12,o),
(378,-12,cs)
);
},
{
closed = 1;
nodes = (
(217,49,o),
(107,162,o),
(107,350,cs),
(107,538,o),
(217,650,o),
(378,650,cs),
(542,650,o),
(652,538,o),
(652,350,cs),
(652,162,o),
(542,49,o),
(378,49,cs)
);
}
);
width = 1106;
},
{
anchors = (
{
name = bottom;
pos = (864,0);
},
{
name = top;
pos = (380,700);
}
);
layerId = "F5F01D5B-AEA3-4AC3-B3D8-92550D1582D7";
shapes = (
{
closed = 1;
nodes = (
(490,-12,o),
(580,28,o),
(641,105,c),
(641,0,l),
(1074,0,l),
(1074,69,l),
(725,69,l),
(725,319,l),
(1044,319,l),
(1044,387,l),
(725,387,l),
(725,631,l),
(1074,631,l),
(1074,700,l),
(641,700,l),
(641,593,l),
(580,673,o),
(490,712,o),
(380,712,cs),
(174,712,o),
(35,564,o),
(35,350,cs),
(35,135,o),
(174,-12,o),
(380,-12,cs)
);
},
{
closed = 1;
nodes = (
(226,62,o),
(121,170,o),
(121,350,cs),
(121,530,o),
(226,637,o),
(380,637,cs),
(534,637,o),
(639,530,o),
(639,350,cs),
(639,170,o),
(534,62,o),
(380,62,cs)
);
}
);
width = 1104;
},
{
anchors = (
{
name = bottom;
pos = (815,0);
},
{
name = top;
pos = (391,700);
}
);
layerId = "A390C1A2-E540-434D-BB9E-4BCEE875BA63";
shapes = (
{
closed = 1;
nodes = (
(458,-12,o),
(521,5,o),
(574,43,c),
(574,0,l),
(1054,0,l),
(1054,137,l),
(745,137,l),
(745,291,l),
(1024,291,l),
(1024,423,l),
(745,423,l),
(745,563,l),
(1054,563,l),
(1054,700,l),
(574,700,l),
(574,660,l),
(522,698,o),
(458,712,o),
(383,712,cs),
(181,712,o),
(35,564,o),
(35,350,cs),
(35,136,o),
(181,-12,o),
(382,-12,cs)
);
},
{
closed = 1;
nodes = (
(278,143,o),
(209,223,o),
(209,350,cs),
(209,477,o),
(278,557,o),
(391,557,cs),
(504,557,o),
(573,477,o),
(573,350,cs),
(573,223,o),
(504,143,o),
(391,143,cs)
);
}
);
width = 1084;
},
{
anchors = (
{
name = bottom;
pos = (562,0);
},
{
name = top;
pos = (562,700);
}
);
layerId = "12552169-0282-4A31-82CC-880002E60A2C";
shapes = (
{
closed = 1;
nodes = (
(509,-12,o),
(608,38,o),
(670,133,c),
(670,0,l),
(1065,0,l),
(1065,58,l),
(740,58,l),
(740,323,l),
(1035,323,l),
(1035,381,l),
(740,381,l),
(740,642,l),
(1065,642,l),
(1065,700,l),
(670,700,l),
(670,567,l),
(608,661,o),
(509,712,o),
(394,712,cs),
(198,712,o),
(48,564,o),
(48,350,cs),
(48,135,o),
(198,-12,o),
(394,-12,cs)
);
},
{
closed = 1;
nodes = (
(243,49,o),
(120,162,o),
(120,350,cs),
(120,538,o),
(243,650,o),
(394,650,cs),
(545,650,o),
(668,538,o),
(668,350,cs),
(668,162,o),
(545,49,o),
(394,49,cs)
);
}
);
width = 1123;
},
{
anchors = (
{
name = bottom;
pos = (559,0);
},
{
name = top;
pos = (559,700);
}
);
layerId = "44982FF8-7820-4F75-948C-97259056F879";
shapes = (
{
closed = 1;
nodes = (
(502,-12,o),
(599,35,o),
(659,124,c),
(659,0,l),
(1061,0,l),
(1061,69,l),
(743,69,l),
(743,319,l),
(1031,319,l),
(1031,387,l),
(743,387,l),
(743,631,l),
(1061,631,l),
(1061,700,l),
(659,700,l),
(659,575,l),
(599,664,o),
(502,712,o),
(393,712,cs),
(197,712,o),
(47,564,o),
(47,350,cs),
(47,135,o),
(197,-12,o),
(393,-12,cs)
);
},
{
closed = 1;
nodes = (
(251,62,o),
(133,170,o),
(133,350,cs),
(133,530,o),
(251,637,o),
(395,637,cs),
(540,637,o),
(657,530,o),
(657,350,cs),
(657,170,o),
(540,62,o),
(395,62,cs)
);
}
);
width = 1118;
},
{
anchors = (
{
name = bottom;
pos = (545,0);
},
{
name = top;
pos = (545,700);
}
);
layerId = "84B0614D-4B2F-419D-B7F2-5B7DD4CAD23C";
shapes = (
{
closed = 1;
nodes = (
(459,-12,o),
(545,19,o),
(589,69,c),
(589,0,l),
(1039,0,l),
(1039,137,l),
(760,137,l),
(760,291,l),
(1009,291,l),
(1009,423,l),
(760,423,l),
(760,563,l),
(1039,563,l),
(1039,700,l),
(589,700,l),
(589,627,l),
(544,681,o),
(459,712,o),
(385,712,cs),
(189,712,o),
(43,564,o),
(43,350,cs),
(43,136,o),
(189,-12,o),
(385,-12,cs)
);
},
{
closed = 1;
nodes = (
(300,143,o),
(217,223,o),
(217,350,cs),
(217,477,o),
(300,557,o),
(403,557,cs),
(506,557,o),
(589,477,o),
(589,350,cs),
(589,223,o),
(506,143,o),
(403,143,cs)
);
}
);
width = 1089;
},
{
anchors = (
{
name = bottom;
pos = (917,0);
},
{
name = top;
pos = (570,700);
}
);
layerId = "90D50F69-F6F7-4633-9462-ED0440D3064F";
shapes = (
{
closed = 1;
nodes = (
(539,-12,o),
(661,76,o),
(700,225,c),
(700,0,l),
(1097,0,l),
(1097,18,l),
(720,18,l),
(720,339,l),
(1067,339,l),
(1067,358,l),
(720,358,l),
(720,682,l),
(1097,682,l),
(1097,700,l),
(700,700,l),
(700,485,l),
(656,623,o),
(540,712,o),
(384,712,cs),
(180,712,o),
(48,564,o),
(48,350,cs),
(48,135,o),
(180,-12,o),
(384,-12,cs)
);
},
{
closed = 1;
nodes = (
(207,8,o),
(70,132,o),
(70,350,cs),
(70,568,o),
(207,692,o),
(384,692,cs),
(561,692,o),
(699,568,o),
(699,350,cs),
(699,129,o),
(561,8,o),
(384,8,cs)
);
}
);
width = 1155;
}
);
metricLeft = O;
metricRight = E;
unicode = 338;
userData = {
com.schriftgestaltung.Glyphs.ColorIndex = 4;
com.typesupply.AccentFactory.yCoordinates = {
bottom = {
name = origin;
type = glyphMetric;
};
top = {
name = capHeight;
type = fontInfo;
};
};
};
},
{
glyphname = P;
kernLeft = H;
lastChange = "2023-05-19 14:07:26 +0000";
layers = (
{
layerId = "EB62C368-BB48-47C0-A466-DA94204A0DE4";
shapes = (
{
closed = 1;
nodes = (
(98,0,l),
(98,309,l),
(261,309,ls),
(424,309,o),
(491,388,o),
(491,505,cs),
(491,618,o),
(425,700,o),
(261,700,cs),
(78,700,l),
(78,0,l)
);
},
{
closed = 1;
nodes = (
(98,681,l),
(264,681,ls),
(399,681,o),
(470,621,o),
(470,505,cs),
(470,389,o),
(402,328,o),
(264,328,cs),
(98,328,l)
);
}
);
width = 530;
},
{
layerId = "A6F5E7A4-47EF-4F55-BF18-0ACACB57A720";
shapes = (
{
closed = 1;
nodes = (
(161,0,l),
(161,278,l),
(302,278,ls),
(471,278,o),
(546,371,o),
(546,489,cs),
(546,608,o),
(469,700,o),
(302,700,cs),
(77,700,l),
(77,0,l)
);
},
{
closed = 1;
nodes = (
(161,630,l),
(301,630,ls),
(418,630,o),
(460,577,o),
(460,489,cs),
(460,405,o),
(418,349,o),
(301,349,cs),
(161,349,l)
);
}
);
width = 584;
},
{
layerId = "1615C59E-33DE-4B88-B2CC-A48C7D56A125";
shapes = (
{
closed = 1;
nodes = (
(243,0,l),
(243,236,l),
(354,236,ls),
(537,236,o),
(617,347,o),
(617,467,cs),
(617,600,o),
(530,700,o),
(354,700,cs),
(72,700,l),
(72,0,l)
);
},
{
closed = 1;
nodes = (
(243,562,l),
(341,562,ls),
(413,562,o),
(443,525,o),
(443,467,cs),
(443,409,o),
(413,372,o),
(341,372,cs),
(243,372,l)
);
}
);
width = 651;
},
{
layerId = "2D111E5E-352D-4630-9162-BCEF010D26CF";
shapes = (
{
closed = 1;
nodes = (
(154,0,l),
(154,285,l),
(300,285,ls),
(468,285,o),
(541,375,o),
(541,493,cs),
(541,611,o),
(466,700,o),
(300,700,cs),
(84,700,l),
(84,0,l)
);
},
{
closed = 1;
nodes = (
(154,641,l),
(299,641,ls),
(419,641,o),
(469,587,o),
(469,493,cs),
(469,401,o),
(419,344,o),
(299,344,cs),
(154,344,l)
);
}
);
width = 584;
},
{
layerId = "5D382461-81E1-4DF2-8677-8A6F02AD5363";
shapes = (
{
closed = 1;
nodes = (
(65,0,l),
(65,324,l),
(233,324,ls),
(396,324,o),
(459,399,o),
(459,511,cs),
(459,623,o),
(396,700,o),
(233,700,cs),
(45,700,l),
(45,0,l)
);
},
{
closed = 1;
nodes = (
(65,682,l),
(235,682,ls),
(363,682,o),
(438,627,o),
(438,511,cs),
(438,395,o),
(363,342,o),
(235,342,cs),
(65,342,l)
);
}
);
width = 479;
},
{
layerId = "3B8883BF-F483-4B97-AC7C-CABF8B821093";
shapes = (
{
closed = 1;
nodes = (
(115,0,l),
(115,299,l),
(266,299,ls),
(430,299,o),
(502,386,o),
(502,499,cs),
(502,614,o),
(428,700,o),
(266,700,cs),
(45,700,l),
(45,0,l)
);
},
{
closed = 1;
nodes = (
(115,641,l),
(266,641,ls),
(384,641,o),
(430,589,o),
(430,499,cs),
(430,413,o),
(384,359,o),
(266,359,cs),
(115,359,l)
);
}
);
width = 522;
},
{
layerId = "F5F01D5B-AEA3-4AC3-B3D8-92550D1582D7";
shapes = (
{
closed = 1;
nodes = (
(129,0,l),
(129,292,l),
(275,292,ls),
(441,292,o),
(514,382,o),
(514,496,cs),
(514,612,o),
(439,700,o),
(275,700,cs),
(45,700,l),
(45,0,l)
);
},
{
closed = 1;
nodes = (
(129,630,l),
(273,630,ls),
(384,630,o),
(428,581,o),
(428,496,cs),
(428,414,o),
(384,363,o),
(273,363,cs),
(129,363,l)
);
}
);
width = 534;
},
{
layerId = "A390C1A2-E540-434D-BB9E-4BCEE875BA63";
shapes = (
{
closed = 1;
nodes = (
(216,0,l),
(216,250,l),
(332,250,ls),
(511,250,o),
(590,358,o),
(590,474,cs),
(590,603,o),
(504,700,o),
(332,700,cs),
(45,700,l),
(45,0,l)
);
},
{
closed = 1;
nodes = (
(216,562,l),
(319,562,ls),
(387,562,o),
(416,528,o),
(416,474,cs),
(416,420,o),
(387,386,o),
(319,386,cs),
(216,386,l)
);
}
);
width = 610;
},
{
layerId = "12552169-0282-4A31-82CC-880002E60A2C";
shapes = (
{
closed = 1;
nodes = (
(146,0,l),
(146,299,l),
(297,299,ls),
(461,299,o),
(533,386,o),
(533,499,cs),
(533,614,o),
(459,700,o),
(297,700,cs),
(76,700,l),
(76,0,l)
);
},
{
closed = 1;
nodes = (
(146,641,l),
(297,641,ls),
(415,641,o),
(461,589,o),
(461,499,cs),
(461,413,o),
(415,359,o),
(297,359,cs),
(146,359,l)
);
}
);
width = 570;
},
{
layerId = "44982FF8-7820-4F75-948C-97259056F879";
shapes = (
{
closed = 1;
nodes = (
(158,0,l),
(158,292,l),
(304,292,ls),
(470,292,o),
(543,382,o),
(543,496,cs),
(543,612,o),
(468,700,o),
(304,700,cs),
(74,700,l),
(74,0,l)
);
},
{
closed = 1;
nodes = (
(158,630,l),
(302,630,ls),
(413,630,o),
(457,581,o),
(457,496,cs),
(457,414,o),
(413,363,o),
(302,363,cs),
(158,363,l)
);
}
);
width = 579;
},
{
layerId = "84B0614D-4B2F-419D-B7F2-5B7DD4CAD23C";
shapes = (
{
closed = 1;
nodes = (
(233,0,l),
(233,250,l),
(349,250,ls),
(528,250,o),
(607,358,o),
(607,474,cs),
(607,603,o),
(521,700,o),
(349,700,cs),
(62,700,l),
(62,0,l)
);
},
{
closed = 1;
nodes = (
(233,562,l),
(336,562,ls),
(404,562,o),
(433,528,o),
(433,474,cs),
(433,420,o),
(404,386,o),
(336,386,cs),
(233,386,l)
);
}
);
width = 634;
},
{
layerId = "90D50F69-F6F7-4633-9462-ED0440D3064F";
shapes = (
{
closed = 1;
nodes = (
(96,0,l),
(96,324,l),
(264,324,ls),
(427,324,o),
(490,399,o),
(490,511,cs),
(490,623,o),
(427,700,o),
(264,700,cs),
(76,700,l),
(76,0,l)
);
},
{
closed = 1;
nodes = (
(96,682,l),
(266,682,ls),
(394,682,o),
(469,627,o),
(469,511,cs),
(469,395,o),
(394,342,o),
(266,342,cs),
(96,342,l)
);
}
);
width = 527;
}
);
metricLeft = H;
unicode = 80;
userData = {
com.schriftgestaltung.Glyphs.ColorIndex = 4;
com.typesupply.AccentFactory.yCoordinates = {
bottom = {
name = origin;
type = glyphMetric;
};
top = {
name = capHeight;
type = fontInfo;
};
};
};
},
{
glyphname = Thorn;
kernLeft = H;
lastChange = "2023-05-19 14:07:26 +0000";
layers = (
{
layerId = "EB62C368-BB48-47C0-A466-DA94204A0DE4";
shapes = (
{
closed = 1;
nodes = (
(98,0,l),
(98,163,l),
(266,163,ls),
(422,163,o),
(491,238,o),
(491,351,cs),
(491,459,o),
(431,539,o),
(266,539,cs),
(98,539,l),
(98,700,l),
(78,700,l),
(78,0,l)
);
},
{
closed = 1;
nodes = (
(98,521,l),
(260,521,ls),
(406,521,o),
(471,460,o),
(471,351,cs),
(471,243,o),
(406,181,o),
(263,181,cs),
(98,181,l)
);
}
);
width = 530;
},
{
layerId = "A6F5E7A4-47EF-4F55-BF18-0ACACB57A720";
shapes = (
{
closed = 1;
nodes = (
(161,0,l),
(161,147,l),
(307,147,ls),
(473,147,o),
(546,236,o),
(546,350,cs),
(546,467,o),
(471,554,o),
(307,554,cs),
(161,554,l),
(161,700,l),
(77,700,l),
(77,0,l)
);
},
{
closed = 1;
nodes = (
(161,484,l),
(305,484,ls),
(416,484,o),
(460,435,o),
(460,350,cs),
(460,268,o),
(416,217,o),
(305,217,cs),
(161,217,l)
);
}
);
width = 584;
},
{
layerId = "1615C59E-33DE-4B88-B2CC-A48C7D56A125";
shapes = (
{
closed = 1;
nodes = (
(243,0,l),
(243,125,l),
(359,125,ls),
(538,125,o),
(617,233,o),
(617,349,cs),
(617,478,o),
(531,575,o),
(359,575,cs),
(243,575,l),
(243,700,l),
(72,700,l),
(72,0,l)
);
},
{
closed = 1;
nodes = (
(243,437,l),
(346,437,ls),
(414,437,o),
(443,403,o),
(443,349,cs),
(443,295,o),
(414,261,o),
(346,261,cs),
(243,261,l)
);
}
);
width = 651;
},
{
layerId = "2D111E5E-352D-4630-9162-BCEF010D26CF";
shapes = (
{
closed = 1;
nodes = (
(154,0,l),
(154,151,l),
(305,151,ls),
(469,151,o),
(541,236,o),
(541,350,cs),
(541,465,o),
(467,551,o),
(305,551,cs),
(154,551,l),
(154,700,l),
(84,700,l),
(84,0,l)
);
},
{
closed = 1;
nodes = (
(154,492,l),
(305,492,ls),
(423,492,o),
(469,440,o),
(469,350,cs),
(469,264,o),
(423,210,o),
(305,210,cs),
(154,210,l)
);
}
);
width = 584;
},
{
layerId = "5D382461-81E1-4DF2-8677-8A6F02AD5363";
shapes = (
{
closed = 1;
nodes = (
(65,0,l),
(65,163,l),
(233,163,ls),
(389,163,o),
(458,238,o),
(458,351,cs),
(458,459,o),
(398,539,o),
(233,539,cs),
(65,539,l),
(65,700,l),
(45,700,l),
(45,0,l)
);
},
{
closed = 1;
nodes = (
(65,521,l),
(227,521,ls),
(373,521,o),
(438,460,o),
(438,351,cs),
(438,243,o),
(373,181,o),
(230,181,cs),
(65,181,l)
);
}
);
width = 478;
},
{
layerId = "3B8883BF-F483-4B97-AC7C-CABF8B821093";
shapes = (
{
closed = 1;
nodes = (
(115,0,l),
(115,151,l),
(266,151,ls),
(430,151,o),
(502,236,o),
(502,350,cs),
(502,465,o),
(428,551,o),
(266,551,cs),
(115,551,l),
(115,700,l),
(45,700,l),
(45,0,l)
);
},
{
closed = 1;
nodes = (
(115,492,l),
(266,492,ls),
(384,492,o),
(430,440,o),
(430,350,cs),
(430,264,o),
(384,210,o),
(266,210,cs),
(115,210,l)
);
}
);
width = 522;
},
{
layerId = "F5F01D5B-AEA3-4AC3-B3D8-92550D1582D7";
shapes = (
{
closed = 1;
nodes = (
(129,0,l),
(129,147,l),
(275,147,ls),
(441,147,o),
(514,236,o),
(514,350,cs),
(514,467,o),
(439,554,o),
(275,554,cs),
(129,554,l),
(129,700,l),
(45,700,l),
(45,0,l)
);
},
{
closed = 1;
nodes = (
(129,484,l),
(273,484,ls),
(384,484,o),
(428,435,o),
(428,350,cs),
(428,268,o),
(384,217,o),
(273,217,cs),
(129,217,l)
);
}
);
width = 534;
},
{
layerId = "A390C1A2-E540-434D-BB9E-4BCEE875BA63";
shapes = (
{
closed = 1;
nodes = (
(216,0,l),
(216,125,l),
(332,125,ls),
(511,125,o),
(590,233,o),
(590,349,cs),
(590,478,o),
(504,575,o),
(332,575,cs),
(216,575,l),
(216,700,l),
(45,700,l),
(45,0,l)
);
},
{
closed = 1;
nodes = (
(216,437,l),
(319,437,ls),
(387,437,o),
(416,403,o),
(416,349,cs),
(416,295,o),
(387,261,o),
(319,261,cs),
(216,261,l)
);
}
);
width = 610;
},
{
layerId = "12552169-0282-4A31-82CC-880002E60A2C";
shapes = (
{
closed = 1;
nodes = (
(146,0,l),
(146,150,l),
(297,150,ls),
(461,150,o),
(533,237,o),
(533,350,cs),
(533,465,o),
(459,551,o),
(297,551,cs),
(146,551,l),
(146,700,l),
(76,700,l),
(76,0,l)
);
},
{
closed = 1;
nodes = (
(146,492,l),
(297,492,ls),
(415,492,o),
(461,440,o),
(461,350,cs),
(461,264,o),
(415,210,o),
(297,210,cs),
(146,210,l)
);
}
);
width = 570;
},
{
layerId = "44982FF8-7820-4F75-948C-97259056F879";
shapes = (
{
closed = 1;
nodes = (
(158,0,l),
(158,147,l),
(304,147,ls),
(470,147,o),
(543,236,o),
(543,350,cs),
(543,467,o),
(468,554,o),
(304,554,cs),
(158,554,l),
(158,700,l),
(74,700,l),
(74,0,l)
);
},
{
closed = 1;
nodes = (
(158,484,l),
(302,484,ls),
(413,484,o),
(457,435,o),
(457,350,cs),
(457,268,o),
(413,217,o),
(302,217,cs),
(158,217,l)
);
}
);
width = 579;
},
{
layerId = "84B0614D-4B2F-419D-B7F2-5B7DD4CAD23C";
shapes = (
{
closed = 1;
nodes = (
(233,0,l),
(233,125,l),
(349,125,ls),
(528,125,o),
(607,233,o),
(607,349,cs),
(607,478,o),
(521,575,o),
(349,575,cs),
(233,575,l),
(233,700,l),
(62,700,l),
(62,0,l)
);
},
{
closed = 1;
nodes = (
(233,437,l),
(336,437,ls),
(404,437,o),
(433,403,o),
(433,349,cs),
(433,295,o),
(404,261,o),
(336,261,cs),
(233,261,l)
);
}
);
width = 634;
},
{
layerId = "90D50F69-F6F7-4633-9462-ED0440D3064F";
shapes = (
{
closed = 1;
nodes = (
(96,0,l),
(96,163,l),
(264,163,ls),
(420,163,o),
(489,238,o),
(489,351,cs),
(489,459,o),
(429,539,o),
(264,539,cs),
(96,539,l),
(96,700,l),
(76,700,l),
(76,0,l)
);
},
{
closed = 1;
nodes = (
(96,521,l),
(258,521,ls),
(404,521,o),
(469,460,o),
(469,351,cs),
(469,243,o),
(404,181,o),
(261,181,cs),
(96,181,l)
);
}
);
width = 526;
}
);
metricLeft = H;
metricRight = P;
unicode = 222;
userData = {
com.schriftgestaltung.Glyphs.ColorIndex = 4;
};
},
{
glyphname = Q;
kernLeft = O;
lastChange = "2023-05-19 14:07:26 +0000";
layers = (
{
layerId = "EB62C368-BB48-47C0-A466-DA94204A0DE4";
shapes = (
{
closed = 1;
nodes = (
(588,-86,l),
(377,266,l),
(355,266,l),
(566,-86,l)
);
},
{
alignment = -1;
ref = O;
}
);
width = 725;
},
{
layerId = "A6F5E7A4-47EF-4F55-BF18-0ACACB57A720";
shapes = (
{
closed = 1;
nodes = (
(655,-95,l),
(420,273,l),
(323,273,l),
(558,-95,l)
);
},
{
alignment = -1;
ref = O;
}
);
width = 746;
},
{
layerId = "1615C59E-33DE-4B88-B2CC-A48C7D56A125";
shapes = (
{
closed = 1;
nodes = (
(741,-120,l),
(462,303,l),
(266,303,l),
(534,-120,l)
);
},
{
alignment = -1;
ref = O;
}
);
width = 767;
},
{
layerId = "2D111E5E-352D-4630-9162-BCEF010D26CF";
shapes = (
{
closed = 1;
nodes = (
(652,-95,l),
(417,273,l),
(328,273,l),
(563,-95,l)
);
},
{
alignment = -1;
ref = O;
}
);
width = 748;
},
{
layerId = "A390C1A2-E540-434D-BB9E-4BCEE875BA63";
shapes = (
{
closed = 1;
nodes = (
(748,-120,l),
(469,303,l),
(273,303,l),
(541,-120,l)
);
},
{
alignment = -1;
ref = O;
}
);
width = 782;
},
{
layerId = "84B0614D-4B2F-419D-B7F2-5B7DD4CAD23C";
shapes = (
{
closed = 1;
nodes = (
(756,-120,l),
(477,303,l),
(281,303,l),
(549,-120,l)
);
},
{
alignment = -1;
ref = O;
}
);
width = 798;
},
{
layerId = "44982FF8-7820-4F75-948C-97259056F879";
shapes = (
{
closed = 1;
nodes = (
(675,-95,l),
(440,273,l),
(343,273,l),
(578,-95,l)
);
},
{
alignment = -1;
ref = O;
}
);
width = 784;
},
{
layerId = "12552169-0282-4A31-82CC-880002E60A2C";
shapes = (
{
closed = 1;
nodes = (
(669,-95,l),
(434,273,l),
(345,273,l),
(580,-95,l)
);
},
{
alignment = -1;
ref = O;
}
);
width = 782;
},
{
layerId = "90D50F69-F6F7-4633-9462-ED0440D3064F";
shapes = (
{
closed = 1;
nodes = (
(610,-86,l),
(399,266,l),
(377,266,l),
(588,-86,l)
);
},
{
alignment = -1;
ref = O;
}
);
width = 769;
},
{
layerId = "5D382461-81E1-4DF2-8677-8A6F02AD5363";
shapes = (
{
closed = 1;
nodes = (
(597,-86,l),
(386,266,l),
(364,266,l),
(575,-86,l)
);
},
{
alignment = -1;
ref = O;
}
);
width = 743;
},
{
layerId = "3B8883BF-F483-4B97-AC7C-CABF8B821093";
shapes = (
{
closed = 1;
nodes = (
(656,-95,l),
(421,273,l),
(332,273,l),
(567,-95,l)
);
},
{
alignment = -1;
ref = O;
}
);
width = 756;
},
{
layerId = "F5F01D5B-AEA3-4AC3-B3D8-92550D1582D7";
shapes = (
{
closed = 1;
nodes = (
(663,-95,l),
(428,273,l),
(331,273,l),
(566,-95,l)
);
},
{
alignment = -1;
ref = O;
}
);
width = 760;
}
);
metricLeft = O;
metricWidth = O;
unicode = 81;
userData = {
com.schriftgestaltung.Glyphs.ColorIndex = 4;
com.typesupply.AccentFactory.yCoordinates = {
bottom = {
name = origin;
type = glyphMetric;
};
top = {
name = capHeight;
type = fontInfo;
};
};
};
},
{
glyphname = R;
kernLeft = H;
kernRight = R;
lastChange = "2023-05-19 14:07:26 +0000";
layers = (
{
anchors = (
{
name = bottom;
pos = (270,0);
},
{
name = top;
pos = (270,700);
}
);
layerId = "EB62C368-BB48-47C0-A466-DA94204A0DE4";
shapes = (
{
closed = 1;
nodes = (
(98,0,l),
(98,309,l),
(253,309,ls),
(416,309,o),
(479,384,o),
(479,506,cs),
(479,618,o),
(416,700,o),
(253,700,cs),
(78,700,l),
(78,0,l)
);
},
{
closed = 1;
nodes = (
(486,0,l),
(319,322,l),
(297,322,l),
(464,0,l)
);
},
{
closed = 1;
nodes = (
(98,682,l),
(254,682,ls),
(383,682,o),
(458,622,o),
(458,506,cs),
(458,380,o),
(383,327,o),
(254,327,cs),
(98,327,l)
);
}
);
width = 540;
},
{
anchors = (
{
name = bottom;
pos = (270,0);
},
{
name = top;
pos = (270,700);
}
);
layerId = "A6F5E7A4-47EF-4F55-BF18-0ACACB57A720";
shapes = (
{
closed = 1;
nodes = (
(161,0,l),
(161,289,l),
(299,289,ls),
(465,289,o),
(539,383,o),
(539,495,cs),
(539,610,o),
(466,700,o),
(303,700,cs),
(77,700,l),
(77,0,l)
);
},
{
closed = 1;
nodes = (
(546,0,l),
(387,313,l),
(293,313,l),
(447,0,l)
);
},
{
closed = 1;
nodes = (
(161,629,l),
(296,629,ls),
(407,629,o),
(452,577,o),
(452,494,cs),
(452,413,o),
(404,355,o),
(297,355,cs),
(161,355,l)
);
}
);
width = 598;
},
{
anchors = (
{
name = bottom;
pos = (290,0);
},
{
name = top;
pos = (290,700);
}
);
layerId = "1615C59E-33DE-4B88-B2CC-A48C7D56A125";
shapes = (
{
closed = 1;
nodes = (
(243,0,l),
(243,263,l),
(359,263,ls),
(539,263,o),
(617,367,o),
(617,479,cs),
(617,601,o),
(531,700,o),
(359,700,cs),
(72,700,l),
(72,0,l)
);
},
{
closed = 1;
nodes = (
(623,0,l),
(476,304,l),
(293,304,l),
(430,0,l)
);
},
{
closed = 1;
nodes = (
(243,558,l),
(349,558,ls),
(413,558,o),
(443,524,o),
(443,472,cs),
(443,417,o),
(413,384,o),
(349,384,cs),
(243,384,l)
);
}
);
width = 669;
},
{
anchors = (
{
name = bottom;
pos = (270,0);
},
{
name = top;
pos = (270,700);
}
);
layerId = "2D111E5E-352D-4630-9162-BCEF010D26CF";
shapes = (
{
closed = 1;
nodes = (
(154,0,l),
(154,293,l),
(296,293,ls),
(461,293,o),
(532,383,o),
(532,497,cs),
(532,612,o),
(462,700,o),
(299,700,cs),
(84,700,l),
(84,0,l)
);
},
{
closed = 1;
nodes = (
(540,0,l),
(379,315,l),
(300,315,l),
(457,0,l)
);
},
{
closed = 1;
nodes = (
(154,641,l),
(294,641,ls),
(408,641,o),
(460,587,o),
(460,497,cs),
(460,406,o),
(406,349,o),
(294,349,cs),
(154,349,l)
);
}
);
width = 597;
},
{
anchors = (
{
name = bottom;
pos = (235,0);
},
{
name = top;
pos = (235,700);
}
);
layerId = "5D382461-81E1-4DF2-8677-8A6F02AD5363";
shapes = (
{
closed = 1;
nodes = (
(65,0,l),
(65,309,l),
(220,309,ls),
(383,309,o),
(446,384,o),
(446,506,cs),
(446,618,o),
(383,700,o),
(220,700,cs),
(45,700,l),
(45,0,l)
);
},
{
closed = 1;
nodes = (
(454,0,l),
(287,322,l),
(264,322,l),
(431,0,l)
);
},
{
closed = 1;
nodes = (
(65,682,l),
(222,682,ls),
(350,682,o),
(425,622,o),
(425,506,cs),
(425,380,o),
(350,327,o),
(222,327,cs),
(65,327,l)
);
}
);
width = 469;
},
{
anchors = (
{
name = bottom;
pos = (258,0);
},
{
name = top;
pos = (258,700);
}
);
layerId = "3B8883BF-F483-4B97-AC7C-CABF8B821093";
shapes = (
{
closed = 1;
nodes = (
(115,0,l),
(115,293,l),
(256,293,ls),
(420,293,o),
(493,385,o),
(493,497,cs),
(493,612,o),
(423,700,o),
(261,700,cs),
(45,700,l),
(45,0,l)
);
},
{
closed = 1;
nodes = (
(501,0,l),
(340,315,l),
(260,315,l),
(417,0,l)
);
},
{
closed = 1;
nodes = (
(115,641,l),
(255,641,ls),
(373,641,o),
(421,585,o),
(421,497,cs),
(421,412,o),
(370,350,o),
(256,350,cs),
(115,350,l)
);
}
);
width = 516;
},
{
anchors = (
{
name = bottom;
pos = (265,0);
},
{
name = top;
pos = (265,700);
}
);
layerId = "F5F01D5B-AEA3-4AC3-B3D8-92550D1582D7";
shapes = (
{
closed = 1;
nodes = (
(129,0,l),
(129,289,l),
(267,289,ls),
(433,289,o),
(507,383,o),
(507,495,cs),
(507,610,o),
(434,700,o),
(271,700,cs),
(45,700,l),
(45,0,l)
);
},
{
closed = 1;
nodes = (
(514,0,l),
(355,313,l),
(261,313,l),
(415,0,l)
);
},
{
closed = 1;
nodes = (
(129,629,l),
(264,629,ls),
(375,629,o),
(420,577,o),
(420,494,cs),
(420,413,o),
(372,355,o),
(265,355,cs),
(129,355,l)
);
}
);
width = 529;
},
{
anchors = (
{
name = bottom;
pos = (306,0);
},
{
name = top;
pos = (306,700);
}
);
layerId = "A390C1A2-E540-434D-BB9E-4BCEE875BA63";
shapes = (
{
closed = 1;
nodes = (
(216,0,l),
(216,263,l),
(332,263,ls),
(512,263,o),
(590,367,o),
(590,479,cs),
(590,601,o),
(504,700,o),
(332,700,cs),
(45,700,l),
(45,0,l)
);
},
{
closed = 1;
nodes = (
(596,0,l),
(449,304,l),
(266,304,l),
(403,0,l)
);
},
{
closed = 1;
nodes = (
(216,558,l),
(322,558,ls),
(386,558,o),
(416,524,o),
(416,472,cs),
(416,417,o),
(386,384,o),
(322,384,cs),
(216,384,l)
);
}
);
width = 611;
},
{
anchors = (
{
name = bottom;
pos = (292,0);
},
{
name = top;
pos = (292,700);
}
);
layerId = "12552169-0282-4A31-82CC-880002E60A2C";
shapes = (
{
closed = 1;
nodes = (
(146,0,l),
(146,293,l),
(287,293,ls),
(451,293,o),
(524,385,o),
(524,497,cs),
(524,612,o),
(454,700,o),
(292,700,cs),
(76,700,l),
(76,0,l)
);
},
{
closed = 1;
nodes = (
(532,0,l),
(371,315,l),
(291,315,l),
(448,0,l)
);
},
{
closed = 1;
nodes = (
(146,641,l),
(286,641,ls),
(404,641,o),
(452,585,o),
(452,497,cs),
(452,412,o),
(401,350,o),
(287,350,cs),
(146,350,l)
);
}
);
width = 583;
},
{
anchors = (
{
name = bottom;
pos = (297,0);
},
{
name = top;
pos = (297,700);
}
);
layerId = "44982FF8-7820-4F75-948C-97259056F879";
shapes = (
{
closed = 1;
nodes = (
(158,0,l),
(158,289,l),
(296,289,ls),
(462,289,o),
(536,383,o),
(536,495,cs),
(536,610,o),
(463,700,o),
(300,700,cs),
(74,700,l),
(74,0,l)
);
},
{
closed = 1;
nodes = (
(543,0,l),
(384,313,l),
(290,313,l),
(444,0,l)
);
},
{
closed = 1;
nodes = (
(158,629,l),
(293,629,ls),
(404,629,o),
(449,577,o),
(449,494,cs),
(449,413,o),
(401,355,o),
(294,355,cs),
(158,355,l)
);
}
);
width = 593;
},
{
anchors = (
{
name = bottom;
pos = (326,0);
},
{
name = top;
pos = (326,700);
}
);
layerId = "84B0614D-4B2F-419D-B7F2-5B7DD4CAD23C";
shapes = (
{
closed = 1;
nodes = (
(233,0,l),
(233,263,l),
(349,263,ls),
(529,263,o),
(607,367,o),
(607,479,cs),
(607,601,o),
(521,700,o),
(349,700,cs),
(62,700,l),
(62,0,l)
);
},
{
closed = 1;
nodes = (
(613,0,l),
(466,304,l),
(283,304,l),
(420,0,l)
);
},
{
closed = 1;
nodes = (
(233,558,l),
(339,558,ls),
(403,558,o),
(433,524,o),
(433,472,cs),
(433,417,o),
(403,384,o),
(339,384,cs),
(233,384,l)
);
}
);
width = 652;
},
{
anchors = (
{
name = bottom;
pos = (268,0);
},
{
name = top;
pos = (268,700);
}
);
layerId = "90D50F69-F6F7-4633-9462-ED0440D3064F";
shapes = (
{
closed = 1;
nodes = (
(96,0,l),
(96,309,l),
(251,309,ls),
(414,309,o),
(477,384,o),
(477,506,cs),
(477,618,o),
(414,700,o),
(251,700,cs),
(76,700,l),
(76,0,l)
);
},
{
closed = 1;
nodes = (
(485,0,l),
(318,322,l),
(295,322,l),
(462,0,l)
);
},
{
closed = 1;
nodes = (
(96,682,l),
(253,682,ls),
(381,682,o),
(456,622,o),
(456,506,cs),
(456,380,o),
(381,327,o),
(253,327,cs),
(96,327,l)
);
}
);
width = 536;
}
);
metricLeft = H;
unicode = 82;
userData = {
com.schriftgestaltung.Glyphs.ColorIndex = 4;
com.typesupply.AccentFactory.yCoordinates = {
bottom = {
name = origin;
type = glyphMetric;
};
top = {
name = capHeight;
type = fontInfo;
};
};
};
},
{
glyphname = S;
kernLeft = S;
kernRight = S;
lastChange = "2023-05-19 14:07:26 +0000";
layers = (
{
anchors = (
{
name = bottom;
pos = (271,0);
},
{
name = top;
pos = (271,700);
}
);
layerId = "EB62C368-BB48-47C0-A466-DA94204A0DE4";
shapes = (
{
closed = 1;
nodes = (
(430,-12,o),
(502,71,o),
(502,179,cs),
(502,274,o),
(446,322,o),
(376,354,cs),
(257,408,o),
(97,416,o),
(97,550,cs),
(97,623,o),
(144,692,o),
(271,692,cs),
(371,692,o),
(449,650,o),
(449,528,c),
(471,528,l),
(471,658,o),
(382,712,o),
(271,712,cs),
(140,712,o),
(75,637,o),
(75,550,cs),
(75,467,o),
(128,424,o),
(206,393,cs),
(319,348,o),
(480,333,o),
(480,179,cs),
(480,84,o),
(419,8,o),
(278,8,cs),
(122,8,o),
(61,102,o),
(63,210,c),
(41,210,l),
(39,87,o),
(113,-12,o),
(279,-12,cs)
);
}
);
width = 543;
},
{
anchors = (
{
name = bottom;
pos = (299,0);
},
{
name = top;
pos = (291,700);
}
);
layerId = "A6F5E7A4-47EF-4F55-BF18-0ACACB57A720";
shapes = (
{
closed = 1;
nodes = (
(458,-12,o),
(537,83,o),
(537,183,cs),
(537,301,o),
(463,349,o),
(362,384,cs),
(242,424,o),
(159,438,o),
(159,528,cs),
(159,599,o),
(213,641,o),
(289,640,cs),
(381,640,o),
(426,576,o),
(426,518,c),
(514,518,l),
(513,631,o),
(425,712,o),
(292,712,cs),
(156,712,o),
(71,633,o),
(72,520,cs),
(72,431,o),
(122,377,o),
(239,340,cs),
(355,303,o),
(450,280,o),
(450,178,cs),
(450,110,o),
(395,59,o),
(301,59,cs),
(193,59,o),
(136,128,o),
(136,210,c),
(48,210,l),
(48,77,o),
(147,-12,o),
(301,-12,cs)
);
}
);
width = 586;
},
{
anchors = (
{
name = bottom;
pos = (323,0);
},
{
name = top;
pos = (315,700);
}
);
layerId = "1615C59E-33DE-4B88-B2CC-A48C7D56A125";
shapes = (
{
closed = 1;
nodes = (
(489,-12,o),
(581,86,o),
(581,204,cs),
(581,337,o),
(484,382,o),
(377,418,cs),
(302,443,o),
(242,463,o),
(242,515,cs),
(242,552,o),
(273,570,o),
(310,569,cs),
(348,568,o),
(380,542,o),
(383,502,c),
(568,502,l),
(561,636,o),
(458,712,o),
(311,712,cs),
(170,712,o),
(61,638,o),
(61,505,cs),
(61,398,o),
(125,337,o),
(247,302,cs),
(335,276,o),
(398,238,o),
(398,192,cs),
(398,150,o),
(365,131,o),
(324,131,cs),
(274,131,o),
(237,162,o),
(233,212,c),
(51,212,l),
(56,63,o),
(174,-12,o),
(325,-12,cs)
);
}
);
width = 634;
},
{
anchors = (
{
name = bottom;
pos = (298,0);
},
{
name = top;
pos = (291,700);
}
);
layerId = "2D111E5E-352D-4630-9162-BCEF010D26CF";
shapes = (
{
closed = 1;
nodes = (
(457,-12,o),
(534,80,o),
(534,182,cs),
(534,295,o),
(464,343,o),
(370,377,cs),
(250,421,o),
(150,433,o),
(150,533,cs),
(150,604,o),
(203,652,o),
(290,651,cs),
(384,651,o),
(436,592,o),
(436,520,c),
(509,520,l),
(509,637,o),
(420,712,o),
(292,712,cs),
(157,712,o),
(77,634,o),
(77,527,cs),
(77,439,o),
(128,387,o),
(239,351,cs),
(354,313,o),
(461,289,o),
(461,178,cs),
(461,104,o),
(405,48,o),
(301,48,cs),
(182,48,o),
(124,122,o),
(125,210,c),
(51,210,l),
(51,79,o),
(144,-12,o),
(301,-12,cs)
);
}
);
width = 586;
},
{
anchors = (
{
name = bottom;
pos = (256,0);
},
{
name = top;
pos = (256,700);
}
);
layerId = "5D382461-81E1-4DF2-8677-8A6F02AD5363";
shapes = (
{
closed = 1;
nodes = (
(414,-12,o),
(486,71,o),
(486,179,cs),
(486,274,o),
(430,322,o),
(360,354,cs),
(241,408,o),
(81,416,o),
(81,550,cs),
(81,623,o),
(128,692,o),
(255,692,cs),
(355,692,o),
(433,650,o),
(433,528,c),
(455,528,l),
(455,658,o),
(366,712,o),
(255,712,cs),
(124,712,o),
(59,637,o),
(59,550,cs),
(59,467,o),
(112,424,o),
(190,393,cs),
(303,348,o),
(464,333,o),
(464,179,cs),
(464,84,o),
(403,8,o),
(262,8,cs),
(106,8,o),
(45,102,o),
(47,210,c),
(25,210,l),
(23,87,o),
(97,-12,o),
(263,-12,cs)
);
}
);
width = 511;
},
{
anchors = (
{
name = bottom;
pos = (267,0);
},
{
name = top;
pos = (267,700);
}
);
layerId = "3B8883BF-F483-4B97-AC7C-CABF8B821093";
shapes = (
{
closed = 1;
nodes = (
(431,-12,o),
(508,83,o),
(508,180,cs),
(508,295,o),
(437,344,o),
(337,378,cs),
(210,421,o),
(123,434,o),
(123,530,cs),
(123,606,o),
(181,652,o),
(263,652,cs),
(364,652,o),
(411,582,o),
(411,520,c),
(483,520,l),
(483,630,o),
(398,712,o),
(267,712,cs),
(132,712,o),
(50,632,o),
(51,522,cs),
(52,436,o),
(100,385,o),
(208,348,cs),
(328,307,o),
(436,295,o),
(436,176,cs),
(436,104,o),
(378,47,o),
(275,47,cs),
(158,47,o),
(98,122,o),
(98,210,c),
(25,210,l),
(25,79,o),
(120,-12,o),
(275,-12,cs)
);
}
);
width = 533;
},
{
anchors = (
{
name = bottom;
pos = (269,0);
},
{
name = top;
pos = (269,700);
}
);
layerId = "F5F01D5B-AEA3-4AC3-B3D8-92550D1582D7";
shapes = (
{
closed = 1;
nodes = (
(436,-12,o),
(513,83,o),
(513,186,cs),
(513,299,o),
(435,347,o),
(334,384,cs),
(204,432,o),
(133,451,o),
(133,536,cs),
(133,612,o),
(187,644,o),
(262,644,cs),
(355,643,o),
(403,592,o),
(403,518,c),
(491,518,l),
(490,631,o),
(402,712,o),
(269,712,cs),
(133,712,o),
(49,634,o),
(49,528,cs),
(49,439,o),
(103,380,o),
(225,338,cs),
(326,304,o),
(431,280,o),
(431,176,cs),
(431,98,o),
(368,59,o),
(279,59,cs),
(166,59,o),
(113,128,o),
(113,210,c),
(25,210,l),
(25,77,o),
(124,-12,o),
(278,-12,cs)
);
}
);
width = 538;
},
{
anchors = (
{
name = bottom;
pos = (290,0);
},
{
name = top;
pos = (290,700);
}
);
layerId = "A390C1A2-E540-434D-BB9E-4BCEE875BA63";
shapes = (
{
closed = 1;
nodes = (
(463,-12,o),
(555,86,o),
(555,204,cs),
(555,337,o),
(458,382,o),
(351,418,cs),
(276,443,o),
(216,463,o),
(216,515,cs),
(216,552,o),
(247,570,o),
(284,569,cs),
(322,568,o),
(354,542,o),
(357,502,c),
(542,502,l),
(535,636,o),
(432,712,o),
(285,712,cs),
(144,712,o),
(35,638,o),
(35,505,cs),
(35,398,o),
(100,341,o),
(208,305,cs),
(295,276,o),
(372,253,o),
(372,192,cs),
(372,150,o),
(339,131,o),
(298,131,cs),
(248,131,o),
(211,162,o),
(207,212,c),
(25,212,l),
(30,63,o),
(148,-12,o),
(299,-12,cs)
);
}
);
width = 580;
},
{
anchors = (
{
name = bottom;
pos = (292,0);
},
{
name = top;
pos = (284,700);
}
);
layerId = "12552169-0282-4A31-82CC-880002E60A2C";
shapes = (
{
closed = 1;
nodes = (
(450,-12,o),
(527,83,o),
(527,180,cs),
(527,295,o),
(456,344,o),
(356,378,cs),
(229,421,o),
(142,434,o),
(142,530,cs),
(142,606,o),
(200,652,o),
(282,652,cs),
(383,652,o),
(430,582,o),
(430,520,c),
(502,520,l),
(502,630,o),
(417,712,o),
(286,712,cs),
(151,712,o),
(69,632,o),
(70,522,cs),
(71,436,o),
(119,385,o),
(227,348,cs),
(347,307,o),
(455,295,o),
(455,176,cs),
(455,104,o),
(397,47,o),
(294,47,cs),
(177,47,o),
(117,122,o),
(117,210,c),
(44,210,l),
(44,79,o),
(139,-12,o),
(294,-12,cs)
);
}
);
width = 572;
},
{
anchors = (
{
name = bottom;
pos = (295,0);
},
{
name = top;
pos = (287,700);
}
);
layerId = "44982FF8-7820-4F75-948C-97259056F879";
shapes = (
{
closed = 1;
nodes = (
(454,-12,o),
(533,83,o),
(533,183,cs),
(533,301,o),
(459,349,o),
(358,384,cs),
(238,424,o),
(155,438,o),
(155,528,cs),
(155,599,o),
(209,641,o),
(285,640,cs),
(377,640,o),
(422,576,o),
(422,518,c),
(510,518,l),
(509,631,o),
(421,712,o),
(288,712,cs),
(152,712,o),
(67,633,o),
(68,520,cs),
(68,431,o),
(119,379,o),
(227,342,cs),
(342,303,o),
(446,289,o),
(446,178,cs),
(446,110,o),
(391,59,o),
(297,59,cs),
(189,59,o),
(132,128,o),
(132,210,c),
(44,210,l),
(44,77,o),
(143,-12,o),
(297,-12,cs)
);
}
);
width = 578;
},
{
anchors = (
{
name = bottom;
pos = (314,0);
},
{
name = top;
pos = (306,700);
}
);
layerId = "84B0614D-4B2F-419D-B7F2-5B7DD4CAD23C";
shapes = (
{
closed = 1;
nodes = (
(480,-12,o),
(572,86,o),
(572,204,cs),
(572,337,o),
(475,382,o),
(368,418,cs),
(293,443,o),
(233,463,o),
(233,515,cs),
(233,552,o),
(264,570,o),
(301,569,cs),
(339,568,o),
(371,542,o),
(374,502,c),
(559,502,l),
(552,636,o),
(449,712,o),
(302,712,cs),
(161,712,o),
(52,638,o),
(52,505,cs),
(52,398,o),
(117,341,o),
(225,305,cs),
(312,276,o),
(389,253,o),
(389,192,cs),
(389,150,o),
(356,131,o),
(315,131,cs),
(265,131,o),
(228,162,o),
(224,212,c),
(42,212,l),
(47,63,o),
(165,-12,o),
(316,-12,cs)
);
}
);
width = 616;
},
{
anchors = (
{
name = bottom;
pos = (275,0);
},
{
name = top;
pos = (275,700);
}
);
layerId = "90D50F69-F6F7-4633-9462-ED0440D3064F";
shapes = (
{
closed = 1;
nodes = (
(433,-12,o),
(505,71,o),
(505,179,cs),
(505,274,o),
(449,322,o),
(379,354,cs),
(260,408,o),
(100,416,o),
(100,550,cs),
(100,623,o),
(147,692,o),
(274,692,cs),
(374,692,o),
(452,650,o),
(452,528,c),
(474,528,l),
(474,658,o),
(385,712,o),
(274,712,cs),
(143,712,o),
(78,637,o),
(78,550,cs),
(78,467,o),
(131,424,o),
(209,393,cs),
(322,348,o),
(483,333,o),
(483,179,cs),
(483,84,o),
(422,8,o),
(281,8,cs),
(125,8,o),
(64,102,o),
(66,210,c),
(44,210,l),
(42,87,o),
(116,-12,o),
(282,-12,cs)
);
}
);
width = 550;
}
);
unicode = 83;
userData = {
com.schriftgestaltung.Glyphs.ColorIndex = 4;
com.typesupply.AccentFactory.yCoordinates = {
bottom = {
name = origin;
type = glyphMetric;
};
top = {
name = capHeight;
type = fontInfo;
};
};
};
},
{
glyphname = Germandbls;
lastChange = "2023-05-19 14:07:26 +0000";
layers = (
{
guides = (
{
pos = (199,191);
}
);
layerId = "EB62C368-BB48-47C0-A466-DA94204A0DE4";
shapes = (
{
closed = 1;
nodes = (
(496,-5,o),
(579,87,o),
(579,219,cs),
(579,354,o),
(501,433,o),
(362,433,cs),
(316,433,l),
(543,682,l),
(543,700,l),
(187,700,ls),
(103,700,o),
(78,664,o),
(78,593,cs),
(78,0,l),
(98,0,l),
(98,588,ls),
(98,661,o),
(122,682,o),
(192,682,cs),
(518,682,l),
(292,433,l),
(292,415,l),
(362,415,ls),
(484,415,o),
(558,349,o),
(558,219,cs),
(558,82,o),
(470,16,o),
(381,16,cs),
(258,16,o),
(209,82,o),
(209,191,c),
(188,191,l),
(188,68,o),
(249,-5,o),
(381,-5,cs)
);
}
);
width = 620;
},
{
layerId = "2D111E5E-352D-4630-9162-BCEF010D26CF";
shapes = (
{
closed = 1;
nodes = (
(550,-5,o),
(622,82,o),
(622,216,cs),
(622,353,o),
(544,433,o),
(387,433,cs),
(369,433,l),
(579,646,l),
(579,700,l),
(216,700,ls),
(128,700,o),
(84,659,o),
(84,571,cs),
(84,0,l),
(154,0,l),
(154,568,ls),
(154,621,o),
(176,641,o),
(229,641,cs),
(495,641,l),
(288,429,l),
(288,379,l),
(384,379,ls),
(500,379,o),
(553,319,o),
(553,211,cs),
(553,103,o),
(501,54,o),
(417,54,cs),
(328,54,o),
(286,110,o),
(286,204,c),
(217,204,l),
(217,68,o),
(286,-5,o),
(412,-5,cs)
);
}
);
width = 674;
},
{
layerId = "A6F5E7A4-47EF-4F55-BF18-0ACACB57A720";
shapes = (
{
closed = 1;
nodes = (
(556,-5,o),
(634,80,o),
(634,215,cs),
(634,353,o),
(546,433,o),
(400,433,cs),
(381,433,l),
(587,636,l),
(587,700,l),
(218,700,ls),
(126,700,o),
(77,658,o),
(77,562,cs),
(77,0,l),
(161,0,l),
(161,559,ls),
(161,610,o),
(181,629,o),
(232,629,cs),
(483,629,l),
(281,428,l),
(281,369,l),
(396,369,ls),
(493,369,o),
(552,312,o),
(552,209,cs),
(552,132,o),
(519,65,o),
(426,65,cs),
(337,65,o),
(302,127,o),
(302,208,c),
(219,208,l),
(219,68,o),
(291,-5,o),
(426,-5,cs)
);
}
);
width = 683;
},
{
layerId = "1615C59E-33DE-4B88-B2CC-A48C7D56A125";
shapes = (
{
closed = 1;
nodes = (
(651,-6,o),
(734,75,o),
(734,226,cs),
(733,337,o),
(672,430,o),
(550,430,cs),
(538,430,l),
(676,571,l),
(676,700,l),
(269,700,ls),
(153,700,o),
(72,651,o),
(72,506,cs),
(72,0,l),
(243,0,l),
(243,507,ls),
(243,540,o),
(257,554,o),
(295,554,cs),
(480,554,l),
(369,436,l),
(369,325,l),
(468,325,ls),
(538,325,o),
(572,299,o),
(573,226,cs),
(573,171,o),
(556,136,o),
(509,136,cs),
(462,136,o),
(445,171,o),
(445,226,c),
(278,226,l),
(278,75,o),
(361,-6,o),
(506,-6,cs)
);
}
);
width = 787;
},
{
layerId = "90D50F69-F6F7-4633-9462-ED0440D3064F";
shapes = (
{
closed = 1;
nodes = (
(494,-5,o),
(577,87,o),
(577,219,cs),
(577,354,o),
(499,433,o),
(360,433,cs),
(314,433,l),
(541,682,l),
(541,700,l),
(185,700,ls),
(101,700,o),
(76,664,o),
(76,593,cs),
(76,0,l),
(96,0,l),
(96,588,ls),
(96,661,o),
(120,682,o),
(190,682,cs),
(516,682,l),
(290,433,l),
(290,415,l),
(360,415,ls),
(482,415,o),
(556,349,o),
(556,219,cs),
(556,82,o),
(468,16,o),
(379,16,cs),
(256,16,o),
(207,82,o),
(207,191,c),
(186,191,l),
(186,68,o),
(247,-5,o),
(379,-5,cs)
);
}
);
width = 622;
},
{
layerId = "12552169-0282-4A31-82CC-880002E60A2C";
shapes = (
{
closed = 1;
nodes = (
(542,-5,o),
(614,82,o),
(614,216,cs),
(614,353,o),
(536,433,o),
(379,433,cs),
(361,433,l),
(571,646,l),
(571,700,l),
(208,700,ls),
(120,700,o),
(76,659,o),
(76,571,cs),
(76,0,l),
(146,0,l),
(146,568,ls),
(146,621,o),
(168,641,o),
(221,641,cs),
(487,641,l),
(280,429,l),
(280,379,l),
(376,379,ls),
(492,379,o),
(545,319,o),
(545,211,cs),
(545,103,o),
(493,54,o),
(409,54,cs),
(320,54,o),
(278,110,o),
(278,204,c),
(209,204,l),
(209,68,o),
(278,-5,o),
(404,-5,cs)
);
}
);
width = 659;
},
{
layerId = "44982FF8-7820-4F75-948C-97259056F879";
shapes = (
{
closed = 1;
nodes = (
(553,-5,o),
(631,80,o),
(631,215,cs),
(631,353,o),
(543,433,o),
(397,433,cs),
(378,433,l),
(584,636,l),
(584,700,l),
(215,700,ls),
(123,700,o),
(74,658,o),
(74,562,cs),
(74,0,l),
(158,0,l),
(158,559,ls),
(158,610,o),
(178,629,o),
(229,629,cs),
(480,629,l),
(278,428,l),
(278,369,l),
(393,369,ls),
(490,369,o),
(549,312,o),
(549,209,cs),
(549,132,o),
(516,65,o),
(423,65,cs),
(334,65,o),
(299,127,o),
(299,208,c),
(216,208,l),
(216,68,o),
(288,-5,o),
(423,-5,cs)
);
}
);
width = 676;
},
{
layerId = "84B0614D-4B2F-419D-B7F2-5B7DD4CAD23C";
shapes = (
{
closed = 1;
nodes = (
(641,-6,o),
(724,75,o),
(724,226,cs),
(723,337,o),
(662,430,o),
(540,430,cs),
(528,430,l),
(666,571,l),
(666,700,l),
(259,700,ls),
(143,700,o),
(62,651,o),
(62,506,cs),
(62,0,l),
(233,0,l),
(233,507,ls),
(233,540,o),
(247,554,o),
(285,554,cs),
(470,554,l),
(359,436,l),
(359,325,l),
(458,325,ls),
(528,325,o),
(562,299,o),
(563,226,cs),
(563,171,o),
(546,136,o),
(499,136,cs),
(452,136,o),
(435,171,o),
(435,226,c),
(268,226,l),
(268,75,o),
(351,-6,o),
(496,-6,cs)
);
}
);
width = 768;
},
{
layerId = "5D382461-81E1-4DF2-8677-8A6F02AD5363";
shapes = (
{
closed = 1;
nodes = (
(463,-5,o),
(546,87,o),
(546,219,cs),
(546,354,o),
(468,433,o),
(329,433,cs),
(283,433,l),
(510,682,l),
(510,700,l),
(154,700,ls),
(70,700,o),
(45,664,o),
(45,593,cs),
(45,0,l),
(65,0,l),
(65,588,ls),
(65,661,o),
(89,682,o),
(159,682,cs),
(485,682,l),
(259,433,l),
(259,415,l),
(329,415,ls),
(451,415,o),
(525,349,o),
(525,219,cs),
(525,82,o),
(437,16,o),
(348,16,cs),
(225,16,o),
(176,82,o),
(176,191,c),
(155,191,l),
(155,68,o),
(216,-5,o),
(348,-5,cs)
);
}
);
width = 571;
},
{
layerId = "3B8883BF-F483-4B97-AC7C-CABF8B821093";
shapes = (
{
closed = 1;
nodes = (
(511,-5,o),
(583,82,o),
(583,216,cs),
(583,353,o),
(505,433,o),
(348,433,cs),
(330,433,l),
(540,646,l),
(540,700,l),
(177,700,ls),
(89,700,o),
(45,659,o),
(45,571,cs),
(45,0,l),
(115,0,l),
(115,568,ls),
(115,621,o),
(137,641,o),
(190,641,cs),
(456,641,l),
(249,429,l),
(249,379,l),
(345,379,ls),
(461,379,o),
(514,319,o),
(514,211,cs),
(514,103,o),
(462,54,o),
(378,54,cs),
(289,54,o),
(247,110,o),
(247,204,c),
(178,204,l),
(178,68,o),
(247,-5,o),
(373,-5,cs)
);
}
);
width = 608;
},
{
layerId = "F5F01D5B-AEA3-4AC3-B3D8-92550D1582D7";
shapes = (
{
closed = 1;
nodes = (
(524,-5,o),
(602,80,o),
(602,215,cs),
(602,353,o),
(514,433,o),
(368,433,cs),
(349,433,l),
(555,636,l),
(555,700,l),
(186,700,ls),
(94,700,o),
(45,658,o),
(45,562,cs),
(45,0,l),
(129,0,l),
(129,559,ls),
(129,610,o),
(149,629,o),
(200,629,cs),
(451,629,l),
(249,428,l),
(249,369,l),
(364,369,ls),
(461,369,o),
(520,312,o),
(520,209,cs),
(520,132,o),
(487,65,o),
(394,65,cs),
(305,65,o),
(270,127,o),
(270,208,c),
(187,208,l),
(187,68,o),
(259,-5,o),
(394,-5,cs)
);
}
);
width = 627;
},
{
layerId = "A390C1A2-E540-434D-BB9E-4BCEE875BA63";
shapes = (
{
closed = 1;
nodes = (
(624,-6,o),
(707,75,o),
(707,226,cs),
(706,337,o),
(645,430,o),
(523,430,cs),
(511,430,l),
(649,571,l),
(649,700,l),
(242,700,ls),
(126,700,o),
(45,651,o),
(45,506,cs),
(45,0,l),
(216,0,l),
(216,507,ls),
(216,540,o),
(230,554,o),
(268,554,cs),
(453,554,l),
(342,436,l),
(342,325,l),
(441,325,ls),
(511,325,o),
(545,299,o),
(546,226,cs),
(546,171,o),
(529,136,o),
(482,136,cs),
(435,136,o),
(418,171,o),
(418,226,c),
(251,226,l),
(251,75,o),
(334,-6,o),
(479,-6,cs)
);
}
);
width = 732;
}
);
metricLeft = F;
metricRight = S;
unicode = 7838;
},
{
glyphname = T;
kernLeft = T;
kernRight = T;
lastChange = "2023-05-19 14:07:26 +0000";
layers = (
{
anchors = (
{
name = bottom;
pos = (251,0);
},
{
name = top;
pos = (251,700);
}
);
layerId = "EB62C368-BB48-47C0-A466-DA94204A0DE4";
shapes = (
{
closed = 1;
nodes = (
(261,0,l),
(261,682,l),
(474,682,l),
(474,700,l),
(28,700,l),
(28,682,l),
(241,682,l),
(241,0,l)
);
}
);
width = 502;
},
{
anchors = (
{
name = bottom;
pos = (280,0);
},
{
name = top;
pos = (282,700);
}
);
layerId = "A6F5E7A4-47EF-4F55-BF18-0ACACB57A720";
shapes = (
{
closed = 1;
nodes = (
(324,0,l),
(324,631,l),
(533,631,l),
(533,700,l),
(31,700,l),
(31,631,l),
(240,631,l),
(240,0,l)
);
}
);
width = 564;
},
{
anchors = (
{
name = bottom;
pos = (315,0);
},
{
name = top;
pos = (315,700);
}
);
layerId = "1615C59E-33DE-4B88-B2CC-A48C7D56A125";
shapes = (
{
closed = 1;
nodes = (
(400,0,l),
(400,563,l),
(601,563,l),
(601,700,l),
(29,700,l),
(29,563,l),
(230,563,l),
(230,0,l)
);
}
);
width = 630;
},
{
anchors = (
{
name = bottom;
pos = (276,0);
},
{
name = top;
pos = (278,700);
}
);
layerId = "2D111E5E-352D-4630-9162-BCEF010D26CF";
shapes = (
{
closed = 1;
nodes = (
(313,0,l),
(313,642,l),
(523,642,l),
(523,700,l),
(33,700,l),
(33,642,l),
(243,642,l),
(243,0,l)
);
}
);
width = 556;
},
{
anchors = (
{
name = bottom;
pos = (228,0);
},
{
name = top;
pos = (228,700);
}
);
layerId = "5D382461-81E1-4DF2-8677-8A6F02AD5363";
shapes = (
{
closed = 1;
nodes = (
(238,0,l),
(238,682,l),
(451,682,l),
(451,700,l),
(5,700,l),
(5,682,l),
(218,682,l),
(218,0,l)
);
}
);
width = 458;
},
{
anchors = (
{
name = bottom;
pos = (250,0);
},
{
name = top;
pos = (250,700);
}
);
layerId = "3B8883BF-F483-4B97-AC7C-CABF8B821093";
shapes = (
{
closed = 1;
nodes = (
(285,0,l),
(285,642,l),
(495,642,l),
(495,700,l),
(5,700,l),
(5,642,l),
(215,642,l),
(215,0,l)
);
}
);
width = 500;
},
{
anchors = (
{
name = bottom;
pos = (256,0);
},
{
name = top;
pos = (256,700);
}
);
layerId = "F5F01D5B-AEA3-4AC3-B3D8-92550D1582D7";
shapes = (
{
closed = 1;
nodes = (
(298,0,l),
(298,631,l),
(507,631,l),
(507,700,l),
(5,700,l),
(5,631,l),
(214,631,l),
(214,0,l)
);
}
);
width = 512;
},
{
anchors = (
{
name = bottom;
pos = (292,0);
},
{
name = top;
pos = (292,700);
}
);
layerId = "A390C1A2-E540-434D-BB9E-4BCEE875BA63";
shapes = (
{
closed = 1;
nodes = (
(377,0,l),
(377,563,l),
(578,563,l),
(578,700,l),
(5,700,l),
(5,563,l),
(206,563,l),
(206,0,l)
);
}
);
width = 583;
},
{
anchors = (
{
name = bottom;
pos = (273,0);
},
{
name = top;
pos = (275,700);
}
);
layerId = "12552169-0282-4A31-82CC-880002E60A2C";
shapes = (
{
closed = 1;
nodes = (
(310,0,l),
(310,642,l),
(520,642,l),
(520,700,l),
(30,700,l),
(30,642,l),
(240,642,l),
(240,0,l)
);
}
);
width = 550;
},
{
anchors = (
{
name = bottom;
pos = (278,0);
},
{
name = top;
pos = (280,700);
}
);
layerId = "44982FF8-7820-4F75-948C-97259056F879";
shapes = (
{
closed = 1;
nodes = (
(322,0,l),
(322,631,l),
(531,631,l),
(531,700,l),
(29,700,l),
(29,631,l),
(238,631,l),
(238,0,l)
);
}
);
width = 560;
},
{
anchors = (
{
name = bottom;
pos = (311,0);
},
{
name = top;
pos = (311,700);
}
);
layerId = "84B0614D-4B2F-419D-B7F2-5B7DD4CAD23C";
shapes = (
{
closed = 1;
nodes = (
(396,0,l),
(396,563,l),
(597,563,l),
(597,700,l),
(24,700,l),
(24,563,l),
(225,563,l),
(225,0,l)
);
}
);
width = 621;
},
{
anchors = (
{
name = bottom;
pos = (253,0);
},
{
name = top;
pos = (253,700);
}
);
layerId = "90D50F69-F6F7-4633-9462-ED0440D3064F";
shapes = (
{
closed = 1;
nodes = (
(263,0,l),
(263,682,l),
(476,682,l),
(476,700,l),
(30,700,l),
(30,682,l),
(243,682,l),
(243,0,l)
);
}
);
width = 508;
}
);
unicode = 84;
userData = {
com.schriftgestaltung.Glyphs.ColorIndex = 4;
com.typesupply.AccentFactory.yCoordinates = {
bottom = {
name = origin;
type = glyphMetric;
};
top = {
name = capHeight;
type = fontInfo;
};
};
};
},
{
glyphname = U;
kernLeft = U;
kernRight = U;
lastChange = "2023-05-19 14:07:26 +0000";
layers = (
{
anchors = (
{
name = ogonek;
pos = (372,-5);
},
{
name = top;
pos = (308,700);
}
);
layerId = "EB62C368-BB48-47C0-A466-DA94204A0DE4";
shapes = (
{
closed = 1;
nodes = (
(441,-12,o),
(541,63,o),
(541,243,cs),
(541,700,l),
(521,700,l),
(521,246,ls),
(521,76,o),
(432,8,o),
(308,8,cs),
(186,8,o),
(93,76,o),
(93,246,cs),
(93,700,l),
(73,700,l),
(73,243,ls),
(73,63,o),
(177,-12,o),
(309,-12,cs)
);
}
);
width = 614;
},
{
anchors = (
{
name = ogonek;
pos = (403,0);
},
{
name = top;
pos = (326,700);
}
);
layerId = "A6F5E7A4-47EF-4F55-BF18-0ACACB57A720";
shapes = (
{
closed = 1;
nodes = (
(471,-12,o),
(587,72,o),
(587,258,cs),
(587,700,l),
(503,700,l),
(503,257,ls),
(503,121,o),
(433,63,o),
(328,63,cs),
(223,63,o),
(151,121,o),
(151,257,cs),
(151,700,l),
(67,700,l),
(67,258,ls),
(67,72,o),
(182,-12,o),
(326,-12,cs)
);
}
);
width = 654;
},
{
anchors = (
{
name = ogonek;
pos = (443,0);
},
{
name = top;
pos = (353,700);
}
);
layerId = "1615C59E-33DE-4B88-B2CC-A48C7D56A125";
shapes = (
{
closed = 1;
nodes = (
(511,-12,o),
(647,84,o),
(647,278,cs),
(647,700,l),
(476,700,l),
(476,277,ls),
(476,194,o),
(433,146,o),
(352,146,cs),
(271,146,o),
(230,194,o),
(230,277,cs),
(230,700,l),
(59,700,l),
(59,278,ls),
(59,84,o),
(186,-12,o),
(349,-12,cs)
);
}
);
width = 705;
},
{
anchors = (
{
name = ogonek;
pos = (392,0);
},
{
name = top;
pos = (323,700);
}
);
layerId = "2D111E5E-352D-4630-9162-BCEF010D26CF";
shapes = (
{
closed = 1;
nodes = (
(465,-12,o),
(578,70,o),
(578,255,cs),
(578,700,l),
(508,700,l),
(508,255,ls),
(508,111,o),
(434,51,o),
(325,51,cs),
(216,51,o),
(139,111,o),
(139,255,cs),
(139,700,l),
(69,700,l),
(69,255,ls),
(69,70,o),
(182,-12,o),
(323,-12,cs)
);
}
);
width = 647;
},
{
anchors = (
{
name = ogonek;
pos = (386,10);
},
{
name = top;
pos = (274,700);
}
);
layerId = "5D382461-81E1-4DF2-8677-8A6F02AD5363";
shapes = (
{
closed = 1;
nodes = (
(408,-12,o),
(508,63,o),
(508,243,cs),
(508,700,l),
(488,700,l),
(488,246,ls),
(488,76,o),
(399,8,o),
(275,8,cs),
(153,8,o),
(60,76,o),
(60,246,cs),
(60,700,l),
(40,700,l),
(40,243,ls),
(40,63,o),
(144,-12,o),
(276,-12,cs)
);
}
);
width = 548;
},
{
anchors = (
{
name = ogonek;
pos = (409,10);
},
{
name = top;
pos = (294,700);
}
);
layerId = "3B8883BF-F483-4B97-AC7C-CABF8B821093";
shapes = (
{
closed = 1;
nodes = (
(436,-12,o),
(548,70,o),
(548,255,cs),
(548,700,l),
(478,700,l),
(478,254,ls),
(478,109,o),
(404,50,o),
(295,50,cs),
(186,50,o),
(110,109,o),
(110,254,cs),
(110,700,l),
(40,700,l),
(40,255,ls),
(40,70,o),
(152,-12,o),
(294,-12,cs)
);
}
);
width = 588;
},
{
anchors = (
{
name = ogonek;
pos = (417,10);
},
{
name = top;
pos = (300,700);
}
);
layerId = "F5F01D5B-AEA3-4AC3-B3D8-92550D1582D7";
shapes = (
{
closed = 1;
nodes = (
(444,-12,o),
(560,72,o),
(560,258,cs),
(560,700,l),
(476,700,l),
(476,257,ls),
(476,121,o),
(406,63,o),
(301,63,cs),
(196,63,o),
(124,121,o),
(124,257,cs),
(124,700,l),
(40,700,l),
(40,258,ls),
(40,72,o),
(155,-12,o),
(299,-12,cs)
);
}
);
width = 600;
},
{
anchors = (
{
name = ogonek;
pos = (455,10);
},
{
name = top;
pos = (334,700);
}
);
layerId = "A390C1A2-E540-434D-BB9E-4BCEE875BA63";
shapes = (
{
closed = 1;
nodes = (
(492,-12,o),
(628,84,o),
(628,278,cs),
(628,700,l),
(457,700,l),
(457,277,ls),
(457,194,o),
(414,146,o),
(333,146,cs),
(252,146,o),
(211,194,o),
(211,277,cs),
(211,700,l),
(40,700,l),
(40,278,ls),
(40,84,o),
(167,-12,o),
(330,-12,cs)
);
}
);
width = 668;
},
{
anchors = (
{
name = ogonek;
pos = (392,0);
},
{
name = top;
pos = (323,700);
}
);
layerId = "12552169-0282-4A31-82CC-880002E60A2C";
shapes = (
{
closed = 1;
nodes = (
(466,-12,o),
(578,70,o),
(578,255,cs),
(578,700,l),
(508,700,l),
(508,254,ls),
(508,109,o),
(434,50,o),
(325,50,cs),
(216,50,o),
(140,109,o),
(140,254,cs),
(140,700,l),
(70,700,l),
(70,255,ls),
(70,70,o),
(182,-12,o),
(324,-12,cs)
);
}
);
width = 648;
},
{
anchors = (
{
name = ogonek;
pos = (398,0);
},
{
name = top;
pos = (327,700);
}
);
layerId = "44982FF8-7820-4F75-948C-97259056F879";
shapes = (
{
closed = 1;
nodes = (
(472,-12,o),
(588,72,o),
(588,258,cs),
(588,700,l),
(504,700,l),
(504,257,ls),
(504,121,o),
(434,63,o),
(329,63,cs),
(224,63,o),
(152,121,o),
(152,257,cs),
(152,700,l),
(68,700,l),
(68,258,ls),
(68,72,o),
(183,-12,o),
(327,-12,cs)
);
}
);
width = 656;
},
{
anchors = (
{
name = ogonek;
pos = (434,2);
},
{
name = top;
pos = (353,700);
}
);
layerId = "84B0614D-4B2F-419D-B7F2-5B7DD4CAD23C";
shapes = (
{
closed = 1;
nodes = (
(511,-12,o),
(647,84,o),
(647,278,cs),
(647,700,l),
(476,700,l),
(476,277,ls),
(476,194,o),
(433,146,o),
(352,146,cs),
(271,146,o),
(230,194,o),
(230,277,cs),
(230,700,l),
(59,700,l),
(59,278,ls),
(59,84,o),
(186,-12,o),
(349,-12,cs)
);
}
);
width = 705;
},
{
anchors = (
{
name = ogonek;
pos = (416,10);
},
{
name = top;
pos = (304,700);
}
);
layerId = "90D50F69-F6F7-4633-9462-ED0440D3064F";
shapes = (
{
closed = 1;
nodes = (
(438,-12,o),
(538,63,o),
(538,243,cs),
(538,700,l),
(518,700,l),
(518,246,ls),
(518,76,o),
(429,8,o),
(305,8,cs),
(183,8,o),
(90,76,o),
(90,246,cs),
(90,700,l),
(70,700,l),
(70,243,ls),
(70,63,o),
(174,-12,o),
(306,-12,cs)
);
}
);
width = 608;
}
);
unicode = 85;
userData = {
com.schriftgestaltung.Glyphs.ColorIndex = 4;
com.typesupply.AccentFactory.yCoordinates = {
bottom = {
name = origin;
type = glyphMetric;
};
top = {
name = capHeight;
type = fontInfo;
};
};
};
},
{
glyphname = V;
kernLeft = V;
kernRight = V;
lastChange = "2023-05-19 14:07:26 +0000";
layers = (
{
layerId = "EB62C368-BB48-47C0-A466-DA94204A0DE4";
shapes = (
{
closed = 1;
nodes = (
(327,0,l),
(607,700,l),
(584,700,l),
(315,24,l),
(315,24,l),
(49,700,l),
(26,700,l),
(304,0,l)
);
}
);
width = 633;
},
{
layerId = "A6F5E7A4-47EF-4F55-BF18-0ACACB57A720";
shapes = (
{
closed = 1;
nodes = (
(384,0,l),
(647,700,l),
(558,700,l),
(335,89,l),
(335,89,l),
(114,700,l),
(23,700,l),
(286,0,l)
);
}
);
width = 670;
},
{
layerId = "1615C59E-33DE-4B88-B2CC-A48C7D56A125";
shapes = (
{
closed = 1;
nodes = (
(476,0,l),
(725,700,l),
(544,700,l),
(369,172,l),
(369,172,l),
(195,700,l),
(13,700,l),
(262,0,l)
);
}
);
width = 738;
},
{
layerId = "2D111E5E-352D-4630-9162-BCEF010D26CF";
shapes = (
{
closed = 1;
nodes = (
(374,0,l),
(641,700,l),
(567,700,l),
(334,75,l),
(334,75,l),
(103,700,l),
(27,700,l),
(293,0,l)
);
}
);
width = 668;
},
{
layerId = "5D382461-81E1-4DF2-8677-8A6F02AD5363";
shapes = (
{
closed = 1;
nodes = (
(306,0,l),
(586,700,l),
(563,700,l),
(297,30,l),
(293,30,l),
(28,700,l),
(5,700,l),
(283,0,l)
);
}
);
width = 591;
},
{
layerId = "3B8883BF-F483-4B97-AC7C-CABF8B821093";
shapes = (
{
closed = 1;
nodes = (
(360,0,l),
(615,700,l),
(541,700,l),
(313,62,l),
(309,62,l),
(81,700,l),
(5,700,l),
(260,0,l)
);
}
);
width = 620;
},
{
layerId = "F5F01D5B-AEA3-4AC3-B3D8-92550D1582D7";
shapes = (
{
closed = 1;
nodes = (
(374,0,l),
(609,700,l),
(523,700,l),
(313,62,l),
(309,62,l),
(95,700,l),
(5,700,l),
(244,0,l)
);
}
);
width = 614;
},
{
layerId = "A390C1A2-E540-434D-BB9E-4BCEE875BA63";
shapes = (
{
closed = 1;
nodes = (
(501,0,l),
(711,700,l),
(530,700,l),
(360,100,l),
(356,100,l),
(184,700,l),
(5,700,l),
(215,0,l)
);
}
);
width = 716;
},
{
layerId = "12552169-0282-4A31-82CC-880002E60A2C";
shapes = (
{
closed = 1;
nodes = (
(369,0,l),
(634,700,l),
(560,700,l),
(329,76,l),
(329,76,l),
(100,700,l),
(24,700,l),
(289,0,l)
);
}
);
width = 658;
},
{
layerId = "44982FF8-7820-4F75-948C-97259056F879";
shapes = (
{
closed = 1;
nodes = (
(383,0,l),
(646,700,l),
(557,700,l),
(334,89,l),
(334,89,l),
(113,700,l),
(22,700,l),
(285,0,l)
);
}
);
width = 668;
},
{
layerId = "84B0614D-4B2F-419D-B7F2-5B7DD4CAD23C";
shapes = (
{
closed = 1;
nodes = (
(472,0,l),
(721,700,l),
(540,700,l),
(365,172,l),
(365,172,l),
(191,700,l),
(9,700,l),
(258,0,l)
);
}
);
width = 730;
},
{
layerId = "90D50F69-F6F7-4633-9462-ED0440D3064F";
shapes = (
{
closed = 1;
nodes = (
(325,0,l),
(605,700,l),
(582,700,l),
(314,27,l),
(314,27,l),
(47,700,l),
(24,700,l),
(302,0,l)
);
}
);
width = 629;
}
);
unicode = 86;
userData = {
com.schriftgestaltung.Glyphs.ColorIndex = 4;
com.typesupply.AccentFactory.yCoordinates = {
bottom = {
name = origin;
type = glyphMetric;
};
top = {
name = capHeight;
type = fontInfo;
};
};
};
},
{
glyphname = W;
kernLeft = W;
kernRight = W;
lastChange = "2023-05-19 14:07:26 +0000";
layers = (
{
anchors = (
{
name = bottom;
pos = (451,0);
},
{
name = top;
pos = (451,700);
}
);
layerId = "EB62C368-BB48-47C0-A466-DA94204A0DE4";
shapes = (
{
closed = 1;
nodes = (
(246,0,l),
(451,670,l),
(451,670,l),
(653,0,l),
(679,0,l),
(873,700,l),
(852,700,l),
(665,30,l),
(665,30,l),
(464,700,l),
(437,700,l),
(233,30,l),
(233,30,l),
(48,700,l),
(27,700,l),
(221,0,l)
);
}
);
width = 900;
},
{
anchors = (
{
name = bottom;
pos = (487,0);
},
{
name = top;
pos = (487,700);
}
);
layerId = "A6F5E7A4-47EF-4F55-BF18-0ACACB57A720";
shapes = (
{
closed = 1;
nodes = (
(314,0,l),
(485,579,l),
(485,579,l),
(652,0,l),
(748,0,l),
(944,700,l),
(854,700,l),
(701,98,l),
(701,98,l),
(534,700,l),
(440,700,l),
(269,100,l),
(269,100,l),
(118,700,l),
(28,700,l),
(220,0,l)
);
}
);
width = 970;
},
{
anchors = (
{
name = bottom;
pos = (530,0);
},
{
name = top;
pos = (530,700);
}
);
layerId = "1615C59E-33DE-4B88-B2CC-A48C7D56A125";
shapes = (
{
closed = 1;
nodes = (
(414,0,l),
(530,461,l),
(530,461,l),
(642,0,l),
(849,0,l),
(1032,700,l),
(848,700,l),
(746,191,l),
(746,191,l),
(626,700,l),
(438,700,l),
(313,190,l),
(313,190,l),
(212,700,l),
(29,700,l),
(207,0,l)
);
}
);
width = 1061;
},
{
anchors = (
{
name = bottom;
pos = (482,0);
},
{
name = top;
pos = (482,700);
}
);
layerId = "2D111E5E-352D-4630-9162-BCEF010D26CF";
shapes = (
{
closed = 1;
nodes = (
(302,0,l),
(480,599,l),
(480,599,l),
(655,0,l),
(736,0,l),
(932,700,l),
(856,700,l),
(696,83,l),
(696,83,l),
(522,700,l),
(443,700,l),
(264,85,l),
(264,85,l),
(106,700,l),
(31,700,l),
(223,0,l)
);
}
);
width = 961;
},
{
anchors = (
{
name = bottom;
pos = (429,0);
},
{
name = top;
pos = (429,700);
}
);
layerId = "5D382461-81E1-4DF2-8677-8A6F02AD5363";
shapes = (
{
closed = 1;
nodes = (
(224,0,l),
(427,670,l),
(431,670,l),
(631,0,l),
(657,0,l),
(852,700,l),
(830,700,l),
(645,30,l),
(641,30,l),
(442,700,l),
(416,700,l),
(214,30,l),
(210,30,l),
(27,700,l),
(5,700,l),
(199,0,l)
);
}
);
width = 857;
},
{
anchors = (
{
name = bottom;
pos = (456,0);
},
{
name = top;
pos = (456,700);
}
);
guides = (
{
pos = (234,80);
}
);
layerId = "3B8883BF-F483-4B97-AC7C-CABF8B821093";
shapes = (
{
closed = 1;
nodes = (
(275,0,l),
(455,636,l),
(459,636,l),
(641,0,l),
(719,0,l),
(907,700,l),
(832,700,l),
(686,80,l),
(682,80,l),
(507,700,l),
(409,700,l),
(236,80,l),
(232,80,l),
(80,700,l),
(5,700,l),
(189,0,l)
);
}
);
width = 912;
},
{
anchors = (
{
name = bottom;
pos = (484,0);
},
{
name = top;
pos = (484,700);
}
);
layerId = "F5F01D5B-AEA3-4AC3-B3D8-92550D1582D7";
shapes = (
{
closed = 1;
nodes = (
(316,0,l),
(479,552,l),
(483,552,l),
(648,0,l),
(778,0,l),
(962,700,l),
(876,700,l),
(717,62,l),
(713,62,l),
(525,700,l),
(439,700,l),
(255,62,l),
(251,62,l),
(91,700,l),
(5,700,l),
(186,0,l)
);
}
);
width = 967;
},
{
anchors = (
{
name = bottom;
pos = (507,0);
},
{
name = top;
pos = (507,700);
}
);
guides = (
{
pos = (290,201);
},
{
pos = (290,171);
}
);
layerId = "A390C1A2-E540-434D-BB9E-4BCEE875BA63";
shapes = (
{
closed = 1;
nodes = (
(400,0,l),
(504,555,l),
(508,555,l),
(618,0,l),
(865,0,l),
(1008,700,l),
(824,700,l),
(738,101,l),
(734,101,l),
(616,700,l),
(400,700,l),
(292,101,l),
(287,101,l),
(188,700,l),
(5,700,l),
(153,0,l)
);
}
);
width = 1013;
},
{
anchors = (
{
name = bottom;
pos = (478,0);
},
{
name = top;
pos = (478,700);
}
);
layerId = "12552169-0282-4A31-82CC-880002E60A2C";
shapes = (
{
closed = 1;
nodes = (
(296,0,l),
(476,596,l),
(476,596,l),
(652,0,l),
(730,0,l),
(928,700,l),
(853,700,l),
(692,86,l),
(692,86,l),
(518,700,l),
(440,700,l),
(261,86,l),
(261,86,l),
(101,700,l),
(26,700,l),
(220,0,l)
);
}
);
width = 954;
},
{
anchors = (
{
name = bottom;
pos = (485,0);
},
{
name = top;
pos = (485,700);
}
);
layerId = "44982FF8-7820-4F75-948C-97259056F879";
shapes = (
{
closed = 1;
nodes = (
(312,0,l),
(483,579,l),
(483,579,l),
(650,0,l),
(746,0,l),
(942,700,l),
(852,700,l),
(699,98,l),
(699,98,l),
(532,700,l),
(439,700,l),
(267,100,l),
(267,100,l),
(116,700,l),
(26,700,l),
(218,0,l)
);
}
);
width = 967;
},
{
anchors = (
{
name = bottom;
pos = (525,0);
},
{
name = top;
pos = (525,700);
}
);
layerId = "84B0614D-4B2F-419D-B7F2-5B7DD4CAD23C";
shapes = (
{
closed = 1;
nodes = (
(409,0,l),
(525,461,l),
(525,461,l),
(637,0,l),
(844,0,l),
(1027,700,l),
(843,700,l),
(741,191,l),
(741,191,l),
(621,700,l),
(433,700,l),
(308,190,l),
(308,190,l),
(207,700,l),
(24,700,l),
(202,0,l)
);
}
);
width = 1051;
},
{
anchors = (
{
name = bottom;
pos = (450,0);
},
{
name = top;
pos = (450,700);
}
);
layerId = "90D50F69-F6F7-4633-9462-ED0440D3064F";
shapes = (
{
closed = 1;
nodes = (
(245,0,l),
(450,670,l),
(450,670,l),
(652,0,l),
(678,0,l),
(873,700,l),
(851,700,l),
(664,30,l),
(664,30,l),
(463,700,l),
(437,700,l),
(233,30,l),
(233,30,l),
(48,700,l),
(26,700,l),
(220,0,l)
);
}
);
width = 899;
}
);
unicode = 87;
userData = {
com.schriftgestaltung.Glyphs.ColorIndex = 4;
com.typemytype.robofont.layerData = {
b = {
anchors = (
);
components = (
);
contours = (
{
points = (
{
segmentType = line;
smooth = 0;
x = 229;
y = -2;
},
{
segmentType = line;
smooth = 0;
x = 245;
y = 0;
},
{
segmentType = line;
smooth = 0;
x = 473;
y = 727;
},
{
segmentType = line;
smooth = 0;
x = 435;
y = 727;
},
{
segmentType = line;
smooth = 0;
x = 638;
y = 0;
},
{
segmentType = line;
smooth = 0;
x = 654;
y = 0;
},
{
segmentType = line;
smooth = 0;
x = 877;
y = 684;
},
{
segmentType = line;
smooth = 0;
x = 860;
y = 684;
},
{
segmentType = line;
smooth = 0;
x = 636;
y = 7;
},
{
segmentType = line;
smooth = 0;
x = 650;
y = 5;
},
{
segmentType = line;
smooth = 0;
x = 459;
y = 684;
},
{
segmentType = line;
smooth = 0;
x = 442;
y = 684;
},
{
segmentType = line;
smooth = 0;
x = 230;
y = 10;
},
{
segmentType = line;
smooth = 0;
x = 239;
y = 10;
},
{
segmentType = line;
smooth = 0;
x = 54;
y = 684;
},
{
segmentType = line;
smooth = 0;
x = 36;
y = 684;
}
);
}
);
lib = {
};
name = W;
unicodes = (
);
width = 904;
};
};
com.typesupply.AccentFactory.yCoordinates = {
bottom = {
name = origin;
type = glyphMetric;
};
top = {
name = capHeight;
type = fontInfo;
};
};
};
},
{
glyphname = X;
lastChange = "2023-05-19 14:03:36 +0000";
layers = (
{
layerId = "EB62C368-BB48-47C0-A466-DA94204A0DE4";
shapes = (
{
closed = 1;
nodes = (
(64,0,l),
(258,335,l),
(258,335,l),
(450,0,l),
(472,0,l),
(272,349,l),
(472,700,l),
(450,700,l),
(258,364,l),
(258,364,l),
(66,700,l),
(44,700,l),
(243,349,l),
(42,0,l)
);
}
);
width = 513;
},
{
layerId = "A6F5E7A4-47EF-4F55-BF18-0ACACB57A720";
shapes = (
{
closed = 1;
nodes = (
(134,0,l),
(297,282,l),
(297,282,l),
(470,0,l),
(565,0,l),
(350,350,l),
(564,700,l),
(470,700,l),
(306,421,l),
(306,421,l),
(134,700,l),
(39,700,l),
(253,353,l),
(39,0,l)
);
}
);
width = 604;
},
{
layerId = "1615C59E-33DE-4B88-B2CC-A48C7D56A125";
shapes = (
{
closed = 1;
nodes = (
(227,0,l),
(353,215,l),
(353,215,l),
(496,0,l),
(695,0,l),
(463,348,l),
(686,700,l),
(492,700,l),
(368,489,l),
(368,489,l),
(227,700,l),
(28,700,l),
(258,356,l),
(33,0,l)
);
}
);
width = 723;
},
{
layerId = "2D111E5E-352D-4630-9162-BCEF010D26CF";
shapes = (
{
closed = 1;
nodes = (
(121,0,l),
(291,294,l),
(291,294,l),
(468,0,l),
(547,0,l),
(336,350,l),
(547,700,l),
(468,700,l),
(298,409,l),
(298,409,l),
(122,700,l),
(43,700,l),
(254,352,l),
(42,0,l)
);
}
);
width = 590;
},
{
layerId = "5D382461-81E1-4DF2-8677-8A6F02AD5363";
shapes = (
{
closed = 1;
nodes = (
(27,0,l),
(219,329,l),
(223,329,l),
(413,0,l),
(435,0,l),
(235,349,l),
(435,700,l),
(413,700,l),
(223,369,l),
(219,369,l),
(29,700,l),
(7,700,l),
(207,349,l),
(5,0,l)
);
}
);
width = 440;
},
{
layerId = "3B8883BF-F483-4B97-AC7C-CABF8B821093";
shapes = (
{
closed = 1;
nodes = (
(83,0,l),
(250,288,l),
(254,288,l),
(430,0,l),
(508,0,l),
(296,349,l),
(509,700,l),
(431,700,l),
(262,413,l),
(258,413,l),
(83,700,l),
(5,700,l),
(216,352,l),
(5,0,l)
);
}
);
width = 514;
},
{
layerId = "F5F01D5B-AEA3-4AC3-B3D8-92550D1582D7";
shapes = (
{
closed = 1;
nodes = (
(100,0,l),
(264,288,l),
(268,288,l),
(436,0,l),
(531,0,l),
(316,350,l),
(530,700,l),
(436,700,l),
(274,414,l),
(270,414,l),
(100,700,l),
(5,700,l),
(219,353,l),
(5,0,l)
);
}
);
width = 536;
},
{
layerId = "A390C1A2-E540-434D-BB9E-4BCEE875BA63";
shapes = (
{
closed = 1;
nodes = (
(204,0,l),
(329,211,l),
(333,211,l),
(473,0,l),
(672,0,l),
(440,348,l),
(663,700,l),
(469,700,l),
(346,494,l),
(342,494,l),
(204,700,l),
(5,700,l),
(235,356,l),
(10,0,l)
);
}
);
width = 677;
},
{
layerId = "12552169-0282-4A31-82CC-880002E60A2C";
shapes = (
{
closed = 1;
nodes = (
(118,0,l),
(287,293,l),
(287,293,l),
(465,0,l),
(543,0,l),
(331,349,l),
(544,700,l),
(466,700,l),
(295,409,l),
(295,409,l),
(118,700,l),
(40,700,l),
(251,352,l),
(40,0,l)
);
}
);
width = 584;
},
{
layerId = "44982FF8-7820-4F75-948C-97259056F879";
shapes = (
{
closed = 1;
nodes = (
(133,0,l),
(296,282,l),
(296,282,l),
(469,0,l),
(564,0,l),
(349,350,l),
(563,700,l),
(469,700,l),
(305,421,l),
(305,421,l),
(133,700,l),
(38,700,l),
(252,353,l),
(38,0,l)
);
}
);
width = 602;
},
{
layerId = "84B0614D-4B2F-419D-B7F2-5B7DD4CAD23C";
shapes = (
{
closed = 1;
nodes = (
(223,0,l),
(349,215,l),
(349,215,l),
(492,0,l),
(691,0,l),
(459,348,l),
(682,700,l),
(488,700,l),
(364,489,l),
(364,489,l),
(223,700,l),
(24,700,l),
(254,356,l),
(29,0,l)
);
}
);
width = 715;
},
{
layerId = "90D50F69-F6F7-4633-9462-ED0440D3064F";
shapes = (
{
closed = 1;
nodes = (
(62,0,l),
(256,332,l),
(256,332,l),
(448,0,l),
(470,0,l),
(270,349,l),
(470,700,l),
(448,700,l),
(256,367,l),
(256,367,l),
(64,700,l),
(42,700,l),
(242,349,l),
(40,0,l)
);
}
);
width = 510;
}
);
unicode = 88;
userData = {
com.schriftgestaltung.Glyphs.ColorIndex = 4;
com.typemytype.robofont.guides = (
{
angle = 90;
isGlobal = 0;
magnetic = 5;
x = 50;
y = 16;
},
{
angle = 90;
isGlobal = 0;
magnetic = 5;
x = 490;
y = 36;
},
{
angle = 0;
isGlobal = 0;
magnetic = 5;
x = 511;
y = 352;
}
);
com.typesupply.AccentFactory.yCoordinates = {
bottom = {
name = origin;
type = glyphMetric;
};
top = {
name = capHeight;
type = fontInfo;
};
};
};
},
{
glyphname = Y;
kernLeft = Y;
kernRight = Y;
lastChange = "2023-05-19 14:07:26 +0000";
layers = (
{
anchors = (
{
name = top;
pos = (253,700);
}
);
layerId = "EB62C368-BB48-47C0-A466-DA94204A0DE4";
shapes = (
{
closed = 1;
nodes = (
(263,0,l),
(263,312,l),
(476,700,l),
(454,700,l),
(253,332,l),
(253,332,l),
(47,700,l),
(25,700,l),
(243,312,l),
(243,0,l)
);
}
);
width = 501;
},
{
anchors = (
{
name = top;
pos = (291,700);
}
);
layerId = "A6F5E7A4-47EF-4F55-BF18-0ACACB57A720";
shapes = (
{
closed = 1;
nodes = (
(333,0,l),
(333,266,l),
(560,700,l),
(466,700,l),
(291,346,l),
(291,346,l),
(116,700,l),
(21,700,l),
(249,266,l),
(249,0,l)
);
}
);
width = 581;
},
{
anchors = (
{
name = top;
pos = (341,700);
}
);
layerId = "1615C59E-33DE-4B88-B2CC-A48C7D56A125";
shapes = (
{
closed = 1;
nodes = (
(426,0,l),
(426,232,l),
(668,700,l),
(476,700,l),
(342,408,l),
(342,408,l),
(207,700,l),
(13,700,l),
(255,232,l),
(255,0,l)
);
}
);
width = 681;
},
{
anchors = (
{
name = top;
pos = (287,700);
}
);
layerId = "2D111E5E-352D-4630-9162-BCEF010D26CF";
shapes = (
{
closed = 1;
nodes = (
(322,0,l),
(322,276,l),
(545,700,l),
(467,700,l),
(287,343,l),
(287,343,l),
(105,700,l),
(26,700,l),
(252,276,l),
(252,0,l)
);
}
);
width = 571;
},
{
anchors = (
{
name = top;
pos = (232,700);
}
);
layerId = "5D382461-81E1-4DF2-8677-8A6F02AD5363";
shapes = (
{
closed = 1;
nodes = (
(243,0,l),
(243,312,l),
(458,700,l),
(432,700,l),
(235,339,l),
(231,339,l),
(27,700,l),
(5,700,l),
(223,312,l),
(223,0,l)
);
}
);
width = 463;
},
{
anchors = (
{
name = top;
pos = (265,700);
}
);
layerId = "3B8883BF-F483-4B97-AC7C-CABF8B821093";
shapes = (
{
closed = 1;
nodes = (
(301,0,l),
(301,272,l),
(525,700,l),
(447,700,l),
(268,340,l),
(264,340,l),
(84,700,l),
(5,700,l),
(231,272,l),
(231,0,l)
);
}
);
width = 530;
},
{
anchors = (
{
name = top;
pos = (275,700);
}
);
layerId = "F5F01D5B-AEA3-4AC3-B3D8-92550D1582D7";
shapes = (
{
closed = 1;
nodes = (
(317,0,l),
(317,252,l),
(544,700,l),
(453,700,l),
(279,339,l),
(275,339,l),
(100,700,l),
(5,700,l),
(233,252,l),
(233,0,l)
);
}
);
width = 549;
},
{
anchors = (
{
name = top;
pos = (333,700);
}
);
layerId = "A390C1A2-E540-434D-BB9E-4BCEE875BA63";
shapes = (
{
closed = 1;
nodes = (
(418,0,l),
(418,232,l),
(660,700,l),
(468,700,l),
(336,397,l),
(332,397,l),
(199,700,l),
(5,700,l),
(247,232,l),
(247,0,l)
);
}
);
width = 665;
},
{
anchors = (
{
name = top;
pos = (283,700);
}
);
layerId = "12552169-0282-4A31-82CC-880002E60A2C";
shapes = (
{
closed = 1;
nodes = (
(318,0,l),
(318,272,l),
(542,700,l),
(464,700,l),
(267,304,l),
(299,304,l),
(101,700,l),
(22,700,l),
(248,272,l),
(248,0,l)
);
}
);
width = 564;
},
{
anchors = (
{
name = top;
pos = (290,700);
}
);
layerId = "44982FF8-7820-4F75-948C-97259056F879";
shapes = (
{
closed = 1;
nodes = (
(332,0,l),
(332,266,l),
(559,700,l),
(465,700,l),
(274,313,l),
(307,313,l),
(115,700,l),
(20,700,l),
(248,266,l),
(248,0,l)
);
}
);
width = 579;
},
{
anchors = (
{
name = top;
pos = (336,700);
}
);
layerId = "84B0614D-4B2F-419D-B7F2-5B7DD4CAD23C";
shapes = (
{
closed = 1;
nodes = (
(421,0,l),
(421,232,l),
(663,700,l),
(471,700,l),
(318,367,l),
(356,367,l),
(202,700,l),
(8,700,l),
(250,232,l),
(250,0,l)
);
}
);
width = 671;
},
{
anchors = (
{
name = top;
pos = (249,700);
}
);
layerId = "90D50F69-F6F7-4633-9462-ED0440D3064F";
shapes = (
{
closed = 1;
nodes = (
(260,0,l),
(260,312,l),
(475,700,l),
(449,700,l),
(251,335,l),
(251,335,l),
(44,700,l),
(22,700,l),
(240,312,l),
(240,0,l)
);
}
);
width = 497;
}
);
unicode = 89;
userData = {
com.schriftgestaltung.Glyphs.ColorIndex = 4;
com.typesupply.AccentFactory.yCoordinates = {
bottom = {
name = origin;
type = glyphMetric;
};
top = {
name = capHeight;
type = fontInfo;
};
};
};
},
{
glyphname = Z;
kernLeft = Z;
kernRight = Z;
lastChange = "2023-05-19 14:07:26 +0000";
layers = (
{
anchors = (
{
name = top;
pos = (253,700);
}
);
layerId = "EB62C368-BB48-47C0-A466-DA94204A0DE4";
shapes = (
{
closed = 1;
nodes = (
(466,0,l),
(466,20,l),
(62,20,l),
(457,681,l),
(457,700,l),
(47,700,l),
(47,681,l),
(433,681,l),
(39,19,l),
(39,0,l)
);
}
);
width = 505;
},
{
anchors = (
{
name = top;
pos = (280,700);
}
);
layerId = "A6F5E7A4-47EF-4F55-BF18-0ACACB57A720";
shapes = (
{
closed = 1;
nodes = (
(511,0,l),
(511,73,l),
(144,73,l),
(507,634,l),
(507,700,l),
(52,700,l),
(52,627,l),
(409,627,l),
(47,66,l),
(47,0,l)
);
}
);
width = 558;
},
{
anchors = (
{
name = top;
pos = (312,700);
}
);
layerId = "1615C59E-33DE-4B88-B2CC-A48C7D56A125";
shapes = (
{
closed = 1;
nodes = (
(569,0,l),
(569,140,l),
(250,140,l),
(569,570,l),
(569,700,l),
(56,700,l),
(56,560,l),
(373,560,l),
(56,130,l),
(56,0,l)
);
}
);
width = 625;
},
{
anchors = (
{
name = top;
pos = (276,700);
}
);
layerId = "2D111E5E-352D-4630-9162-BCEF010D26CF";
shapes = (
{
closed = 1;
nodes = (
(504,0,l),
(504,61,l),
(129,61,l),
(499,644,l),
(499,700,l),
(54,700,l),
(54,639,l),
(417,639,l),
(48,56,l),
(48,0,l)
);
}
);
width = 552;
},
{
anchors = (
{
name = top;
pos = (216,700);
}
);
layerId = "5D382461-81E1-4DF2-8677-8A6F02AD5363";
shapes = (
{
closed = 1;
nodes = (
(421,0,l),
(421,19,l),
(33,19,l),
(411,681,l),
(411,700,l),
(19,700,l),
(19,681,l),
(388,681,l),
(10,19,l),
(10,0,l)
);
}
);
width = 431;
},
{
anchors = (
{
name = top;
pos = (230,700);
}
);
layerId = "3B8883BF-F483-4B97-AC7C-CABF8B821093";
shapes = (
{
closed = 1;
nodes = (
(449,0,l),
(449,62,l),
(92,62,l),
(444,644,l),
(444,700,l),
(16,700,l),
(16,638,l),
(362,638,l),
(10,56,l),
(10,0,l)
);
}
);
width = 459;
},
{
anchors = (
{
name = top;
pos = (234,700);
}
);
layerId = "F5F01D5B-AEA3-4AC3-B3D8-92550D1582D7";
shapes = (
{
closed = 1;
nodes = (
(457,0,l),
(457,73,l),
(107,73,l),
(453,634,l),
(453,700,l),
(15,700,l),
(15,627,l),
(355,627,l),
(10,66,l),
(10,0,l)
);
}
);
width = 467;
},
{
anchors = (
{
name = top;
pos = (258,700);
}
);
layerId = "A390C1A2-E540-434D-BB9E-4BCEE875BA63";
shapes = (
{
closed = 1;
nodes = (
(506,0,l),
(506,140,l),
(204,140,l),
(506,570,l),
(506,700,l),
(10,700,l),
(10,560,l),
(310,560,l),
(10,130,l),
(10,0,l)
);
}
);
width = 516;
},
{
anchors = (
{
name = top;
pos = (263,700);
}
);
layerId = "12552169-0282-4A31-82CC-880002E60A2C";
shapes = (
{
closed = 1;
nodes = (
(482,0,l),
(482,62,l),
(125,62,l),
(477,644,l),
(477,700,l),
(49,700,l),
(49,638,l),
(395,638,l),
(43,56,l),
(43,0,l)
);
}
);
width = 525;
},
{
anchors = (
{
name = top;
pos = (268,700);
}
);
layerId = "44982FF8-7820-4F75-948C-97259056F879";
shapes = (
{
closed = 1;
nodes = (
(491,0,l),
(491,73,l),
(141,73,l),
(487,634,l),
(487,700,l),
(49,700,l),
(49,627,l),
(389,627,l),
(44,66,l),
(44,0,l)
);
}
);
width = 535;
},
{
anchors = (
{
name = top;
pos = (298,700);
}
);
layerId = "84B0614D-4B2F-419D-B7F2-5B7DD4CAD23C";
shapes = (
{
closed = 1;
nodes = (
(546,0,l),
(546,140,l),
(244,140,l),
(546,570,l),
(546,700,l),
(50,700,l),
(50,560,l),
(350,560,l),
(50,130,l),
(50,0,l)
);
}
);
width = 596;
},
{
anchors = (
{
name = top;
pos = (249,700);
}
);
layerId = "90D50F69-F6F7-4633-9462-ED0440D3064F";
shapes = (
{
closed = 1;
nodes = (
(454,0,l),
(454,19,l),
(66,19,l),
(444,681,l),
(444,700,l),
(52,700,l),
(52,681,l),
(421,681,l),
(43,19,l),
(43,0,l)
);
}
);
width = 497;
}
);
unicode = 90;
userData = {
com.schriftgestaltung.Glyphs.ColorIndex = 4;
com.typesupply.AccentFactory.yCoordinates = {
bottom = {
name = origin;
type = glyphMetric;
};
top = {
name = capHeight;
type = fontInfo;
};
};
};
},
{
glyphname = Q.ss06;
kernLeft = O;
lastChange = "2023-05-19 14:07:26 +0000";
layers = (
{
layerId = "5D382461-81E1-4DF2-8677-8A6F02AD5363";
shapes = (
{
closed = 1;
nodes = (
(671,-137,l),
(509,21,l),
(484,17,l),
(643,-137,l)
);
},
{
alignment = -1;
ref = O;
}
);
width = 743;
},
{
layerId = "3B8883BF-F483-4B97-AC7C-CABF8B821093";
shapes = (
{
closed = 1;
nodes = (
(717,-137,l),
(515,57,l),
(448,35,l),
(626,-137,l)
);
},
{
alignment = -1;
ref = O;
}
);
width = 756;
},
{
layerId = "F5F01D5B-AEA3-4AC3-B3D8-92550D1582D7";
shapes = (
{
closed = 1;
nodes = (
(727,-137,l),
(518,64,l),
(440,37,l),
(618,-137,l)
);
},
{
alignment = -1;
ref = O;
}
);
width = 760;
},
{
layerId = "A390C1A2-E540-434D-BB9E-4BCEE875BA63";
shapes = (
{
closed = 1;
nodes = (
(739,-137,l),
(490,107,l),
(323,75,l),
(540,-137,l)
);
},
{
alignment = -1;
ref = O;
}
);
width = 782;
},
{
layerId = "EB62C368-BB48-47C0-A466-DA94204A0DE4";
shapes = (
{
closed = 1;
nodes = (
(662,-137,l),
(493,28,l),
(471,21,l),
(634,-137,l)
);
},
{
alignment = -1;
ref = O;
}
);
width = 725;
},
{
layerId = "2D111E5E-352D-4630-9162-BCEF010D26CF";
shapes = (
{
closed = 1;
nodes = (
(713,-137,l),
(511,57,l),
(444,35,l),
(622,-137,l)
);
},
{
alignment = -1;
ref = O;
}
);
width = 748;
},
{
layerId = "A6F5E7A4-47EF-4F55-BF18-0ACACB57A720";
shapes = (
{
closed = 1;
nodes = (
(719,-137,l),
(510,64,l),
(432,37,l),
(610,-137,l)
);
},
{
alignment = -1;
ref = O;
}
);
width = 746;
},
{
layerId = "1615C59E-33DE-4B88-B2CC-A48C7D56A125";
shapes = (
{
closed = 1;
nodes = (
(730,-137,l),
(481,107,l),
(314,75,l),
(531,-137,l)
);
},
{
alignment = -1;
ref = O;
}
);
width = 767;
},
{
layerId = "90D50F69-F6F7-4633-9462-ED0440D3064F";
shapes = (
{
closed = 1;
nodes = (
(684,-137,l),
(522,21,l),
(497,17,l),
(656,-137,l)
);
},
{
alignment = -1;
ref = O;
}
);
width = 769;
},
{
layerId = "12552169-0282-4A31-82CC-880002E60A2C";
shapes = (
{
closed = 1;
nodes = (
(730,-137,l),
(528,57,l),
(461,35,l),
(639,-137,l)
);
},
{
alignment = -1;
ref = O;
}
);
width = 782;
},
{
layerId = "44982FF8-7820-4F75-948C-97259056F879";
shapes = (
{
closed = 1;
nodes = (
(739,-137,l),
(530,64,l),
(452,37,l),
(630,-137,l)
);
},
{
alignment = -1;
ref = O;
}
);
width = 784;
},
{
layerId = "84B0614D-4B2F-419D-B7F2-5B7DD4CAD23C";
shapes = (
{
closed = 1;
nodes = (
(747,-137,l),
(498,107,l),
(331,75,l),
(548,-137,l)
);
},
{
alignment = -1;
ref = O;
}
);
width = 798;
}
);
metricLeft = O;
metricWidth = O;
userData = {
com.schriftgestaltung.Glyphs.ColorIndex = 4;
com.typesupply.AccentFactory.yCoordinates = {
bottom = {
name = origin;
type = glyphMetric;
};
top = {
name = capHeight;
type = fontInfo;
};
};
};
},
{
glyphname = a;
kernLeft = a;
kernRight = a;
lastChange = "2023-05-19 14:07:26 +0000";
layers = (
{
anchors = (
{
name = ogonek;
pos = (394,0);
},
{
name = top;
pos = (214,526);
}
);
layerId = "EB62C368-BB48-47C0-A466-DA94204A0DE4";
shapes = (
{
closed = 1;
nodes = (
(310,-12,o),
(354,75,o),
(372,111,c),
(372,111,l),
(378,0,l),
(394,0,l),
(394,312,ls),
(394,437,o),
(358,538,o),
(218,538,cs),
(131,538,o),
(55,491,o),
(40,386,c),
(60,386,l),
(75,476,o),
(133,518,o),
(218,518,cs),
(336,518,o),
(374,436,o),
(374,311,c),
(216,311,ls),
(107,311,o),
(33,264,o),
(33,145,cs),
(33,63,o),
(94,-12,o),
(196,-12,cs)
);
},
{
closed = 1;
nodes = (
(109,8,o),
(55,72,o),
(55,145,cs),
(55,232,o),
(96,293,o),
(221,293,cs),
(374,293,l),
(374,197,ls),
(374,120,o),
(315,8,o),
(196,8,cs)
);
}
);
width = 455;
},
{
anchors = (
{
name = ogonek;
pos = (483,0);
},
{
name = top;
pos = (270,526);
}
);
layerId = "A6F5E7A4-47EF-4F55-BF18-0ACACB57A720";
shapes = (
{
closed = 1;
nodes = (
(321,-12,o),
(375,33,o),
(403,90,c),
(403,90,l),
(408,0,l),
(483,0,l),
(483,334,ls),
(483,457,o),
(418,538,o),
(276,538,cs),
(175,538,o),
(85,481,o),
(73,378,c),
(159,378,l),
(169,437,o),
(216,467,o),
(276,467,cs),
(366,467,o),
(399,416,o),
(399,314,c),
(268,314,ls),
(140,314,o),
(55,255,o),
(55,151,cs),
(55,64,o),
(114,-12,o),
(235,-12,cs)
);
},
{
closed = 1;
nodes = (
(181,59,o),
(143,97,o),
(143,155,cs),
(143,209,o),
(180,249,o),
(275,249,cs),
(399,249,l),
(399,239,ls),
(399,146,o),
(336,59,o),
(247,59,cs)
);
}
);
width = 551;
},
{
anchors = (
{
name = ogonek;
pos = (555,0);
},
{
name = top;
pos = (306,526);
}
);
layerId = "1615C59E-33DE-4B88-B2CC-A48C7D56A125";
shapes = (
{
closed = 1;
nodes = (
(311,-12,o),
(362,19,o),
(392,69,c),
(392,69,l),
(414,0,l),
(555,0,l),
(555,335,ls),
(555,471,o),
(459,538,o),
(311,538,cs),
(170,538,o),
(89,465,o),
(79,362,c),
(242,362,l),
(248,389,o),
(270,401,o),
(310,401,cs),
(380,401,o),
(384,371,o),
(384,302,c),
(269,302,ls),
(119,302,o),
(57,232,o),
(57,145,cs),
(57,58,o),
(115,-12,o),
(238,-12,cs)
);
},
{
closed = 1;
nodes = (
(259,116,o),
(238,130,o),
(238,162,cs),
(238,189,o),
(256,207,o),
(290,207,cs),
(375,207,l),
(375,207,ls),
(362,150,o),
(330,116,o),
(284,116,cs)
);
}
);
width = 628;
},
{
anchors = (
{
name = ogonek;
pos = (462,0);
},
{
name = top;
pos = (259,526);
}
);
layerId = "2D111E5E-352D-4630-9162-BCEF010D26CF";
shapes = (
{
closed = 1;
nodes = (
(320,-12,o),
(370,42,o),
(395,94,c),
(395,94,l),
(401,0,l),
(463,0,l),
(463,327,ls),
(463,451,o),
(404,538,o),
(264,538,cs),
(164,538,o),
(79,484,o),
(66,382,c),
(138,382,l),
(149,446,o),
(196,478,o),
(264,478,cs),
(358,478,o),
(393,420,o),
(393,313,c),
(257,313,ls),
(134,313,o),
(52,257,o),
(52,148,cs),
(52,63,o),
(111,-12,o),
(226,-12,cs)
);
},
{
closed = 1;
nodes = (
(166,48,o),
(126,91,o),
(126,151,cs),
(126,214,o),
(161,258,o),
(263,258,cs),
(393,258,l),
(393,229,ls),
(393,139,o),
(333,48,o),
(237,48,cs)
);
}
);
width = 534;
},
{
anchors = (
{
name = ogonek;
pos = (410,0);
},
{
name = top;
pos = (220,496);
}
);
layerId = "5D382461-81E1-4DF2-8677-8A6F02AD5363";
shapes = (
{
closed = 1;
nodes = (
(326,-12,o),
(375,90,o),
(386,107,c),
(390,107,l),
(394,0,l),
(410,0,l),
(410,305,ls),
(410,418,o),
(362,508,o),
(225,508,cs),
(129,508,o),
(51,461,o),
(36,356,c),
(56,356,l),
(72,446,o),
(130,488,o),
(225,488,cs),
(346,488,o),
(390,416,o),
(390,301,c),
(220,301,ls),
(103,301,o),
(29,254,o),
(29,145,cs),
(29,63,o),
(90,-12,o),
(199,-12,cs)
);
},
{
closed = 1;
nodes = (
(105,8,o),
(51,72,o),
(51,145,cs),
(51,222,o),
(87,283,o),
(220,283,cs),
(390,283,l),
(390,197,ls),
(390,120,o),
(331,8,o),
(200,8,cs)
);
}
);
width = 445;
},
{
anchors = (
{
name = ogonek;
pos = (452,0);
},
{
name = top;
pos = (242,496);
}
);
layerId = "3B8883BF-F483-4B97-AC7C-CABF8B821093";
shapes = (
{
closed = 1;
nodes = (
(300,-12,o),
(348,40,o),
(376,97,c),
(380,97,l),
(388,0,l),
(452,0,l),
(452,305,ls),
(452,425,o),
(387,508,o),
(250,508,cs),
(150,508,o),
(51,451,o),
(39,344,c),
(113,344,l),
(125,412,o),
(181,448,o),
(250,448,cs),
(335,448,o),
(382,395,o),
(382,301,c),
(246,301,ls),
(117,301,o),
(30,246,o),
(30,142,cs),
(30,60,o),
(89,-12,o),
(214,-12,cs)
);
},
{
closed = 1;
nodes = (
(145,50,o),
(103,88,o),
(103,144,cs),
(103,199,o),
(142,241,o),
(251,241,cs),
(382,241,l),
(382,241,l),
(382,125,o),
(315,50,o),
(221,50,cs)
);
}
);
width = 487;
},
{
anchors = (
{
name = ogonek;
pos = (464,0);
},
{
name = top;
pos = (248,496);
}
);
layerId = "F5F01D5B-AEA3-4AC3-B3D8-92550D1582D7";
shapes = (
{
closed = 1;
nodes = (
(282,-12,o),
(345,22,o),
(382,85,c),
(386,85,l),
(394,0,l),
(464,0,l),
(464,305,ls),
(464,426,o),
(397,508,o),
(255,508,cs),
(141,508,o),
(51,448,o),
(40,341,c),
(126,341,l),
(137,410,o),
(190,443,o),
(255,443,cs),
(333,443,o),
(380,397,o),
(380,299,c),
(246,299,ls),
(113,299,o),
(30,242,o),
(30,141,cs),
(30,59,o),
(89,-12,o),
(208,-12,cs)
);
},
{
closed = 1;
nodes = (
(157,59,o),
(118,93,o),
(118,145,cs),
(118,196,o),
(154,234,o),
(253,234,cs),
(380,234,l),
(380,234,l),
(380,145,o),
(324,59,o),
(223,59,cs)
);
}
);
width = 499;
},
{
anchors = (
{
name = ogonek;
pos = (535,0);
},
{
name = top;
pos = (282,496);
}
);
layerId = "A390C1A2-E540-434D-BB9E-4BCEE875BA63";
shapes = (
{
closed = 1;
nodes = (
(270,-12,o),
(328,13,o),
(371,72,c),
(375,72,l),
(394,0,l),
(535,0,l),
(535,305,ls),
(535,441,o),
(432,508,o),
(288,508,cs),
(147,508,o),
(53,431,o),
(44,321,c),
(207,321,l),
(214,355,o),
(246,371,o),
(287,371,cs),
(345,371,o),
(364,345,o),
(364,287,c),
(246,287,ls),
(90,287,o),
(30,219,o),
(30,135,cs),
(30,53,o),
(78,-12,o),
(197,-12,cs)
);
},
{
closed = 1;
nodes = (
(235,116,o),
(211,126,o),
(211,152,cs),
(211,176,o),
(230,192,o),
(267,192,cs),
(355,192,l),
(355,192,l),
(342,146,o),
(315,116,o),
(263,116,cs)
);
}
);
width = 570;
},
{
anchors = (
{
name = ogonek;
pos = (472,0);
},
{
name = top;
pos = (262,496);
}
);
layerId = "12552169-0282-4A31-82CC-880002E60A2C";
shapes = (
{
closed = 1;
nodes = (
(326,-12,o),
(377,34,o),
(405,91,c),
(405,91,l),
(408,0,l),
(472,0,l),
(472,305,ls),
(472,425,o),
(407,508,o),
(270,508,cs),
(170,508,o),
(71,451,o),
(59,344,c),
(133,344,l),
(145,412,o),
(201,448,o),
(270,448,cs),
(355,448,o),
(402,395,o),
(402,301,c),
(266,301,ls),
(137,301,o),
(50,246,o),
(50,142,cs),
(50,60,o),
(109,-12,o),
(234,-12,cs)
);
},
{
closed = 1;
nodes = (
(165,50,o),
(123,88,o),
(123,144,cs),
(123,199,o),
(162,241,o),
(271,241,cs),
(402,241,l),
(402,226,ls),
(402,138,o),
(341,50,o),
(241,50,cs)
);
}
);
width = 530;
},
{
anchors = (
{
name = ogonek;
pos = (484,0);
},
{
name = top;
pos = (268,496);
}
);
layerId = "44982FF8-7820-4F75-948C-97259056F879";
shapes = (
{
closed = 1;
nodes = (
(325,-12,o),
(376,33,o),
(404,89,c),
(404,89,l),
(409,0,l),
(484,0,l),
(484,305,ls),
(484,427,o),
(413,508,o),
(275,508,cs),
(170,508,o),
(71,448,o),
(60,341,c),
(146,341,l),
(157,404,o),
(210,437,o),
(275,437,cs),
(353,437,o),
(400,391,o),
(400,299,c),
(266,299,ls),
(133,299,o),
(50,242,o),
(50,141,cs),
(50,59,o),
(109,-12,o),
(234,-12,cs)
);
},
{
closed = 1;
nodes = (
(177,59,o),
(138,93,o),
(138,145,cs),
(138,196,o),
(174,234,o),
(273,234,cs),
(400,234,l),
(400,233,ls),
(400,145,o),
(344,59,o),
(247,59,cs)
);
}
);
width = 542;
},
{
anchors = (
{
name = ogonek;
pos = (555,0);
},
{
name = top;
pos = (303,496);
}
);
layerId = "84B0614D-4B2F-419D-B7F2-5B7DD4CAD23C";
shapes = (
{
closed = 1;
nodes = (
(312,-12,o),
(362,20,o),
(392,68,c),
(392,68,l),
(414,0,l),
(555,0,l),
(555,305,ls),
(555,441,o),
(452,508,o),
(308,508,cs),
(167,508,o),
(73,431,o),
(64,321,c),
(227,321,l),
(234,355,o),
(266,371,o),
(307,371,cs),
(365,371,o),
(384,345,o),
(384,287,c),
(266,287,ls),
(110,287,o),
(50,219,o),
(50,135,cs),
(50,53,o),
(108,-12,o),
(237,-12,cs)
);
},
{
closed = 1;
nodes = (
(255,116,o),
(231,126,o),
(231,152,cs),
(231,176,o),
(250,192,o),
(287,192,cs),
(375,192,l),
(375,192,l),
(362,146,o),
(335,116,o),
(283,116,cs)
);
}
);
width = 611;
},
{
anchors = (
{
name = ogonek;
pos = (431,0);
},
{
name = top;
pos = (241,496);
}
);
layerId = "90D50F69-F6F7-4633-9462-ED0440D3064F";
shapes = (
{
closed = 1;
nodes = (
(347,-12,o),
(393,79,o),
(410,109,c),
(410,109,l),
(415,0,l),
(431,0,l),
(431,305,ls),
(431,418,o),
(383,508,o),
(246,508,cs),
(150,508,o),
(72,461,o),
(57,356,c),
(77,356,l),
(93,446,o),
(151,488,o),
(246,488,cs),
(367,488,o),
(411,416,o),
(411,301,c),
(241,301,ls),
(124,301,o),
(50,254,o),
(50,145,cs),
(50,63,o),
(111,-12,o),
(220,-12,cs)
);
},
{
closed = 1;
nodes = (
(126,8,o),
(72,72,o),
(72,145,cs),
(72,222,o),
(108,283,o),
(241,283,cs),
(411,283,l),
(411,197,ls),
(411,120,o),
(353,8,o),
(223,8,cs)
);
}
);
width = 489;
}
);
metricRight = n;
unicode = 97;
userData = {
com.schriftgestaltung.Glyphs.ColorIndex = 4;
com.typemytype.robofont.guides = (
{
angle = 90;
isGlobal = 0;
magnetic = 5;
x = 306;
y = 501;
},
{
angle = 0;
isGlobal = 0;
magnetic = 5;
x = 88;
y = 270;
}
);
com.typesupply.AccentFactory.yCoordinates = {
bottom = {
name = origin;
type = glyphMetric;
};
top = {
name = xHeight;
type = fontInfo;
};
};
};
},
